<?xml version="1.0" encoding="UTF-8"?> <svg xmlns="http://www.w3.org/2000/svg" viewBox="0 0 302.83 148.1"><title>Asset 1-6</title><g id="Layer_2" data-name="Layer 2"><g id="Layer_1-2" data-name="Layer 1"><path d="M25.93,131c-1.53.18-2.26.46-2.86,2.34L18.48,148H16l-3.29-11.62L9.47,148H7L2.21,132.67A2.26,2.26,0,0,0,0,131v-1H7.94v1c-1.22.15-1.85.43-1.85,1a7.56,7.56,0,0,0,.29,1.36l2.72,9.25,3.34-12.8h2.3l3.63,12.8,2.77-8.76a6.69,6.69,0,0,0,.34-1.59c0-.69-.56-1.12-1.9-1.27v-1h6.35Z"></path><path d="M46.57,138.87c0-4.67-1.7-8-5.27-8s-5.24,3.31-5.24,8,1.67,8,5.24,8,5.27-3.32,5.27-8M32.26,139a9,9,0,0,1,9-9.37,8.73,8.73,0,0,1,9,9.08,9,9,0,0,1-9,9.37,8.75,8.75,0,0,1-9-9.08"></path><path d="M73.11,138.87c0-4.67-1.71-8-5.28-8s-5.24,3.31-5.24,8,1.67,8,5.24,8,5.28-3.32,5.28-8M58.79,139a9,9,0,0,1,9-9.37,8.74,8.74,0,0,1,9,9.08,9,9,0,0,1-9,9.37,8.76,8.76,0,0,1-9-9.08"></path><path d="M90.63,144.38c0,1.61.28,2.1,2.46,2.1,4.11,0,5.73-3.17,5.73-7.61,0-4.64-1.9-7.61-6-7.61H90.63ZM85,146.77c1.73-.14,2.07-.69,2.07-2.39v-11c0-1.7-.34-2.24-2.07-2.39v-1h7.77c6.06,0,9.83,3.58,9.83,8.94,0,5-3.48,8.94-9.52,8.94H85Z"></path><path d="M129.06,138.29h2.44c1.65,0,1.79-.34,2.16-2.13h1.07V142h-1.07c-.37-1.76-.51-2.13-2.16-2.13h-2.44v4.5c0,1.7.37,2.24,2.1,2.39v1h-7.71v-1c1.73-.15,2.07-.69,2.07-2.39v-11c0-1.7-.34-2.24-2.07-2.39v-1h12.78l.57,4.15h-1.05c-1-1.75-1.81-2.82-3.45-2.82h-3.24Z"></path><path d="M158.12,147.81H144.66v-1c1.73-.14,2.07-.69,2.07-2.39v-11c0-1.7-.34-2.24-2.07-2.39v-1h7.71v1c-1.73.15-2.1.69-2.1,2.39v11c0,1.64.37,2.1,2.1,2.1h2.09c1.65,0,2.44-1.07,3.43-3.11H159Z"></path><path d="M180.94,138.87c0-4.67-1.7-8-5.27-8s-5.24,3.31-5.24,8,1.67,8,5.24,8,5.27-3.32,5.27-8m-14.31.15a9,9,0,0,1,9-9.37,8.73,8.73,0,0,1,9,9.08,9,9,0,0,1-9,9.37,8.75,8.75,0,0,1-9-9.08"></path><path d="M207.47,138.87c0-4.67-1.7-8-5.27-8s-5.24,3.31-5.24,8,1.67,8,5.24,8,5.27-3.32,5.27-8m-14.31.15a9,9,0,0,1,9-9.37,8.73,8.73,0,0,1,9,9.08,9,9,0,0,1-9,9.37,8.76,8.76,0,0,1-9-9.08"></path><path d="M245.55,133.36c0-1.7-.34-2.24-2.07-2.39v-1h7.71v1c-1.73.15-2.1.69-2.1,2.39v11c0,1.7.37,2.25,2.1,2.39v1h-7.71v-1c1.73-.14,2.07-.69,2.07-2.39Z"></path><path d="M278.06,131c-1.76.15-2.1.72-2.1,2.39V148h-1.73l-10.85-13.72v10.15c0,1.7.34,2.25,2.1,2.39v1h-6v-1c1.73-.14,2.07-.72,2.07-2.39v-11c0-1.67-.34-2.24-2.07-2.39v-1h5.16l9.5,11.85v-8.42c0-1.7-.34-2.24-2.07-2.39v-1h5.95Z"></path><path d="M302.83,140.86c-.87.14-1.24.69-1.24,2.36v3.18l-.37,0c-1.19.26-2.72,1.65-6.26,1.65-5.39,0-9-3.43-9-9.08,0-5.25,3.74-9.37,8.9-9.37a36.27,36.27,0,0,1,4.05.46,3.07,3.07,0,0,0,1.33-.32l.37.29.46,4H300a4.35,4.35,0,0,0-4.51-3c-3.54,0-5.72,3.49-5.72,7.93,0,4.72,1.95,7.84,5.18,7.84,1.76,0,3.07-.81,3.07-1.85v-1.79c0-1.67-.12-2.22-2.41-2.36v-1.07h7.19Z"></path><path d="M234.41,145.91c.48.78.88.78,1.93.86v1h-5.16c-1-2-4.22-7.55-4.22-7.55l-.69-1.2a3.59,3.59,0,0,0,3.63-4c0-2.48-1-3.78-3.37-3.78H225v13.12c0,1.7.37,2.25,2.1,2.39v1h-7.71v-1c1.73-.14,2.07-.69,2.07-2.39v-11c0-1.7-.34-2.25-2.07-2.39v-1h7.11c3.43,0,7.17,1,7.17,5a4.71,4.71,0,0,1-3.12,4.47Z"></path><path d="M203.86,106.68H163.22a6.89,6.89,0,0,1,0-13.78h27.09V65.34a6.78,6.78,0,1,1,13.55,0Z"></path><path d="M139.62,106.68H99V65.34a6.78,6.78,0,1,1,13.55,0V92.9h27.1a6.89,6.89,0,0,1,0,13.78"></path><path d="M105.75,48.23A6.83,6.83,0,0,1,99,41.34V0h40.65a6.83,6.83,0,0,1,6.77,6.89,6.83,6.83,0,0,1-6.77,6.89h-27.1V41.34a6.83,6.83,0,0,1-6.77,6.89"></path><path d="M197.09,48.23a6.84,6.84,0,0,1-6.78-6.89V13.78H163.22a6.84,6.84,0,0,1-6.78-6.89A6.84,6.84,0,0,1,163.22,0h40.64V41.34a6.83,6.83,0,0,1-6.77,6.89"></path><path d="M162.64,42.22,147.54,78h-1.43L131,42.22c-3.39-7.93-4.62-9.19-10.07-9.19V30.94h23.11V33c-7.49,0-8.21,1.88-5.65,7.94l10.48,24.65L159.36,41C162,34.81,162,33,153.81,33V30.94h19.41V33c-6.26,0-7.19,1.26-10.58,9.19"></path><path d="M172.64,49.52l-7,9.56h7Zm7.71,17.09V67.7H168.58V66.61c3.45,0,4.06-.89,4.06-5.59h-9.91V60L175,43.51h1.34V59.08c2.26,0,3.44-.68,4.26-4l.26-1h1.08l-.46,7h-5.14c0,4.7.67,5.59,4.06,5.59"></path><path d="M213.36,105.31c.09.14.16.14.35.15v.19h-.93c-.17-.36-.75-1.36-.75-1.36l-.13-.21a.65.65,0,0,0,.66-.72c0-.45-.18-.68-.61-.68h-.27V105c0,.31.07.41.38.43v.19h-1.38v-.19c.31,0,.37-.12.37-.43v-2c0-.31-.06-.41-.37-.43v-.19H212c.62,0,1.29.18,1.29.91a.84.84,0,0,1-.56.8Z"></path><path d="M212.09,101.68a2.4,2.4,0,1,0,2.36,2.4,2.39,2.39,0,0,0-2.36-2.4m0,5.55a3.15,3.15,0,1,1,3.09-3.15,3.12,3.12,0,0,1-3.09,3.15"></path></g></g></svg> 