<?xml version="1.0" encoding="UTF-8"?> <svg xmlns="http://www.w3.org/2000/svg" viewBox="0 0 750.14 424.73"><title>Asset 1-8</title><g id="Layer_2" data-name="Layer 2"><g id="Layer_1-2" data-name="Layer 1"><path d="M107.14,229.67s26,27,127.63,27,164.33-36.52,207.6-50.41S556.26,175.69,643,224.11c0,0-71.48-57-165.7-47.63-83.06,8.24-155.2,55.57-227.84,61.13C201.15,241.31,165.27,240,107.14,229.67Z"></path><path d="M272.93,274.06s47.38.61,94.75-20.68S482,203.61,530.06,198.8,643,224.89,643,224.89s-54.58-24.37-139.37-.69S342.62,292.32,272.93,274.06Z"></path><path d="M382.21,141s13.32,8.39,13.66,15l2.54,49.43,9.93-.51,3.59-28.09,19.13-42.34-14.95,7.61-10.05,18.35-6-20.64Z"></path><path d="M478.27,76.47a30.17,30.17,0,0,0-39.85-27,31.57,31.57,0,0,0-62.85,5.34,28.94,28.94,0,0,0-41.7,25.67,31.24,31.24,0,0,1,15.37,14.63,29.9,29.9,0,0,1,29.57,28.32,29.46,29.46,0,0,1-2.5,13.61,30.8,30.8,0,0,1,1.38,7.09h.74a30.6,30.6,0,0,0,15.2-4.94,36.22,36.22,0,0,0,35.28-1.58,31.71,31.71,0,0,0,44-42.38A30,30,0,0,0,478.27,76.47Z"></path><path d="M368.13,124.9a20.32,20.32,0,0,0-21.33-19.24,20.08,20.08,0,0,0-5.52,1,21.28,21.28,0,0,0-42.35,3.6,19.52,19.52,0,0,0-19.08,34,20.7,20.7,0,0,0,31.25,22.86,24.37,24.37,0,0,0,23.77-1.06,21.37,21.37,0,0,0,29.65-28.56A20.2,20.2,0,0,0,368.13,124.9Z"></path><path d="M305.13,167.16s8.9,5.6,9.12,10,1.7,51.48,1.7,51.48l6.63-.34,2.4-37.23,12.77-28.27-10,5.08-6.71,12.25-4-13.77Z"></path><path d="M234.89,76s12.74-48.65,40.74-27.86c0,0,18.53-23,35.34,6,0,0-14.73-15.93-31.92,1.58a4.86,4.86,0,0,1-6.57.38C266.15,50.7,251.55,44.23,234.89,76Z"></path><path d="M346.05,25.49S337.16-8.48,317.59,6c0,0-12.93-16-24.68,4.17,0,0,10.29-11.12,22.3,1.1a3.39,3.39,0,0,0,4.59.27C324.22,7.86,334.42,3.33,346.05,25.49Z"></path><rect y="403.58" width="169.01" height="3.37"></rect><rect x="581.13" y="403.58" width="169.01" height="3.37"></rect><path d="M34.12,362.35H12.91v-1.07c.71,0,1.34-.11,1.89-.16a4.21,4.21,0,0,0,1.4-.37,1.81,1.81,0,0,0,.86-1,5.22,5.22,0,0,0,.29-1.93v-46c-1.81,0-3.61-.05-5.39-.17a16.71,16.71,0,0,0-4.89.38,7.4,7.4,0,0,0-3.74,2.13,9.17,9.17,0,0,0-2,5.06H0l.17-13.15H46.78L47,319.27H45.63a9.17,9.17,0,0,0-2-5.06,7.4,7.4,0,0,0-3.7-2.13,16.16,16.16,0,0,0-4.81-.38c-1.76.12-3.57.17-5.43.17v46a5.22,5.22,0,0,0,.29,1.93,1.81,1.81,0,0,0,.86,1,4,4,0,0,0,1.4.37,17.82,17.82,0,0,0,1.89.08Z"></path><path d="M102.36,362.35h-21v-1.07c.71,0,1.34-.11,1.89-.16a3.16,3.16,0,0,0,1.35-.41,1.86,1.86,0,0,0,.78-1,5.48,5.48,0,0,0,.25-1.89V310.55a5.06,5.06,0,0,0-.29-1.93,1.84,1.84,0,0,0-.82-1,3.42,3.42,0,0,0-1.36-.37,17.35,17.35,0,0,0-1.89-.09v-1.06h21v1.06c-.71.06-1.34.11-1.89.17a3.12,3.12,0,0,0-1.36.41,1.86,1.86,0,0,0-.78,1,5.7,5.7,0,0,0-.25,1.89v47.27a5.22,5.22,0,0,0,.29,1.93,1.87,1.87,0,0,0,.82,1,3.59,3.59,0,0,0,1.36.37,17.82,17.82,0,0,0,1.89.08Z"></path><path d="M206.94,306.12v1.06a9.12,9.12,0,0,0-3,.62c-.63.3-.95,1.25-.95,2.84v47.27q0,2.22,1,2.76a7.1,7.1,0,0,0,3,.61v1.07H187v-1.07c.72,0,1.33-.12,1.85-.2a3.93,3.93,0,0,0,1.28-.41,1.81,1.81,0,0,0,.74-.95,5.74,5.74,0,0,0,.25-1.89V314l-18.42,48.34h-6.25l-18.42-47.68v42.5c0,1.76.33,2.89,1,3.41a5.52,5.52,0,0,0,3.54.7v1.07H136.73v-1.07c.87-.11,1.59-.22,2.13-.33a2.75,2.75,0,0,0,1.28-.53,2,2,0,0,0,.62-1.15,12.07,12.07,0,0,0,.16-2.18V310.55a5.48,5.48,0,0,0-.25-1.89,2,2,0,0,0-.74-1,2.72,2.72,0,0,0-1.27-.41,16.45,16.45,0,0,0-1.85-.09v-1.06h19.65l15.62,40.78,15.29-40.78Z"></path><path d="M241.31,361.28a8.14,8.14,0,0,0,3.08-.57c.68-.33,1-1.29,1-2.88V310.55c0-1.58-.35-2.56-1-2.91a6.37,6.37,0,0,0-3.08-.46v-1.06h23.18a44.6,44.6,0,0,1,7,.57,21.11,21.11,0,0,1,6.5,2.1,13.31,13.31,0,0,1,4.81,4.23,11.82,11.82,0,0,1,1.89,6.91,12,12,0,0,1-1,5,11.29,11.29,0,0,1-2.55,3.62A13.54,13.54,0,0,1,277.4,331a25.15,25.15,0,0,1-4.77,1.56,27.11,27.11,0,0,1,5.34,1.56,16.42,16.42,0,0,1,4.65,2.8,13.72,13.72,0,0,1,3.25,4.11,11.66,11.66,0,0,1,1.23,5.42,13.79,13.79,0,0,1-2,7.69,14.85,14.85,0,0,1-5.23,4.89,22.85,22.85,0,0,1-7.15,2.55,41.7,41.7,0,0,1-7.81.74H241.31Zm19.56-31.16a27.29,27.29,0,0,0,4.69-.37,9,9,0,0,0,3.62-1.39,6.91,6.91,0,0,0,2.3-2.84,11.4,11.4,0,0,0,.82-4.69c0-3.18-.79-5.49-2.38-6.95s-3.95-2.18-7.07-2.18a16.46,16.46,0,0,0-3,.29,3.12,3.12,0,0,0-2.3,1.69v16.44Zm-3.28,24.09a4.08,4.08,0,0,0,2.3,2.1,10.13,10.13,0,0,0,3.12.45q5.34,0,8.3-2.47t3-8a12.13,12.13,0,0,0-1-5.26,8.17,8.17,0,0,0-2.8-3.29,11.47,11.47,0,0,0-4.23-1.73,26.15,26.15,0,0,0-5.22-.49h-3.45Z"></path><path d="M321.47,362.35v-1.07c.71,0,1.31-.11,1.81-.16a2.8,2.8,0,0,0,1.23-.41,2,2,0,0,0,.74-1,5.78,5.78,0,0,0,.24-1.89V310.55c0-1.53-.32-2.47-1-2.83a6.57,6.57,0,0,0-3-.54v-1.06h41.6l.08,12.82H362q-.66-4.28-2.92-5.71a12,12,0,0,0-6.45-1.44h-12a5.53,5.53,0,0,0-2.13.29c-.44.19-.66.83-.66,1.93v16.52h10.93c2.36,0,4-.48,4.94-1.44s1.53-2.59,1.8-4.89h1.15v18.58H355.5a8.63,8.63,0,0,0-1.72-5q-1.41-1.56-5-1.56H337.83v18.08c0,1.21.38,1.91,1.15,2.1a11,11,0,0,0,2.63.29h10.94a13.07,13.07,0,0,0,7.23-1.81,12.18,12.18,0,0,0,4.44-5.92h1.23l-1.89,13.4Z"></path><path d="M416.18,357.91c0,1.54.34,2.48,1,2.84a6.6,6.6,0,0,0,3,.53v1.07H399.82v-1.07a7.74,7.74,0,0,0,3-.57q1-.49,1-2.88V310.55c0-1.47-.36-2.42-1.07-2.83a5.51,5.51,0,0,0-3-.54v-1.06h22.77a57,57,0,0,1,7.73.53,22.68,22.68,0,0,1,7.15,2.14,14,14,0,0,1,5.27,4.52,12.93,12.93,0,0,1,2.05,7.6,11.36,11.36,0,0,1-1.19,5.27,14,14,0,0,1-3.16,4,18.08,18.08,0,0,1-4.57,2.87,26.27,26.27,0,0,1-5.3,1.73,23.53,23.53,0,0,1,4.81,4.48,52,52,0,0,1,4,5.63c1.2,2,2.33,3.93,3.37,5.88s2,3.7,2.87,5.26a26.54,26.54,0,0,0,2.51,3.78,3.25,3.25,0,0,0,2.34,1.44v1.07h-15A78.06,78.06,0,0,0,429,349a54.46,54.46,0,0,0-9.46-11.43l-3.37.08Zm2.55-26a34.71,34.71,0,0,0,5.3-.37,11,11,0,0,0,4.2-1.48A7.54,7.54,0,0,0,431,327a12.09,12.09,0,0,0,1-5.31q0-5.17-2.84-7.52t-7.77-2.34a13.88,13.88,0,0,0-3,.29,3.24,3.24,0,0,0-2.18,1.85v18Z"></path><path d="M484.83,306.12h20.31v1.06c-.72.06-1.33.11-1.85.17a2.77,2.77,0,0,0-1.28.41,2,2,0,0,0-.74,1,5.74,5.74,0,0,0-.24,1.89v19.57H522.4V310.55a5.48,5.48,0,0,0-.25-1.89,2,2,0,0,0-.73-1,2.77,2.77,0,0,0-1.28-.41,16.45,16.45,0,0,0-1.85-.09v-1.06h20.47v1.06c-.71.06-1.33.11-1.85.17a2.72,2.72,0,0,0-1.27.41,1.79,1.79,0,0,0-.7,1,6.57,6.57,0,0,0-.2,1.89v47.27a5.78,5.78,0,0,0,.24,1.89,2,2,0,0,0,.74,1,2.73,2.73,0,0,0,1.28.41,16.57,16.57,0,0,0,1.85.08v1.07H518.37v-1.07c.71,0,1.33-.11,1.85-.16a2.89,2.89,0,0,0,1.28-.41,1.79,1.79,0,0,0,.7-1,7,7,0,0,0,.2-1.89V336.45H501v21.46a6.14,6.14,0,0,0,.24,1.93,1.77,1.77,0,0,0,.74,1,3.18,3.18,0,0,0,1.28.37,17.54,17.54,0,0,0,1.93.08v1.07H484.91v-1.07a8.1,8.1,0,0,0,3-.61c.55-.31.82-1.25.82-2.84V310.55c0-1.53-.28-2.46-.86-2.79a7.15,7.15,0,0,0-3-.58Z"></path><path d="M594.26,362.35h-21v-1.07c.71,0,1.34-.11,1.89-.16a3.21,3.21,0,0,0,1.35-.41,1.86,1.86,0,0,0,.78-1,5.48,5.48,0,0,0,.25-1.89V310.55a5.26,5.26,0,0,0-.29-1.93,1.84,1.84,0,0,0-.82-1,3.42,3.42,0,0,0-1.36-.37,17.48,17.48,0,0,0-1.89-.09v-1.06h21v1.06c-.71.06-1.34.11-1.89.17a3.12,3.12,0,0,0-1.36.41,1.86,1.86,0,0,0-.78,1,5.7,5.7,0,0,0-.25,1.89v47.27a5.22,5.22,0,0,0,.29,1.93,1.87,1.87,0,0,0,.82,1,3.59,3.59,0,0,0,1.36.37,17.82,17.82,0,0,0,1.89.08Z"></path><path d="M672.2,348.21l-2,14.14h-41.6v-1.07a9,9,0,0,0,3-.61c.6-.31.9-1.25.9-2.84V310.55c0-1.53-.31-2.46-.94-2.79a7.54,7.54,0,0,0-3-.58v-1.06h20.8v1.06c-.77.06-1.43.11-2,.17a3.93,3.93,0,0,0-1.39.37,1.82,1.82,0,0,0-.87.94,5.26,5.26,0,0,0-.28,2v43.65c0,1.21.38,1.91,1.15,2.1a10.9,10.9,0,0,0,2.63.29h10.36a19.11,19.11,0,0,0,4.52-.45,8.2,8.2,0,0,0,3.08-1.44,9.44,9.44,0,0,0,2.26-2.59,28.48,28.48,0,0,0,2-4Z"></path><path d="M750.14,348.21l-2,14.14h-41.6v-1.07a9,9,0,0,0,3-.61c.6-.31.91-1.25.91-2.84V310.55c0-1.53-.32-2.46-.95-2.79a7.54,7.54,0,0,0-3-.58v-1.06h20.8v1.06c-.77.06-1.43.11-2,.17a3.93,3.93,0,0,0-1.4.37,1.8,1.8,0,0,0-.86.94,5,5,0,0,0-.29,2v43.65c0,1.21.38,1.91,1.15,2.1a11,11,0,0,0,2.63.29H737a19.11,19.11,0,0,0,4.52-.45,8.13,8.13,0,0,0,3.08-1.44,9.63,9.63,0,0,0,2.27-2.59,29.69,29.69,0,0,0,2-4Z"></path><path d="M213.67,392.28a5.21,5.21,0,0,0-.5-1.65,2.24,2.24,0,0,0-.83-.91,2.88,2.88,0,0,0-1.21-.39,14.22,14.22,0,0,0-1.71-.08H198.58c-.62,0-1,.06-1.07.19a2.3,2.3,0,0,0-.14,1.08v12.65h10.55a11.82,11.82,0,0,0,1.55-.08,2.5,2.5,0,0,0,1.08-.36,1.8,1.8,0,0,0,.66-.83,4.92,4.92,0,0,0,.36-1.49h.72v8.34h-.72c-.11-1.28-.43-2.09-1-2.4a5.64,5.64,0,0,0-2.68-.47H197.31l.06,14.87a10.82,10.82,0,0,0,.08,1.46,1.45,1.45,0,0,0,.36.8,1.33,1.33,0,0,0,.8.36,9.22,9.22,0,0,0,1.47.09V424H190v-.55a8.73,8.73,0,0,0,1.41-.09,1.24,1.24,0,0,0,1.16-1.16,9.17,9.17,0,0,0,.09-1.46V389.86a9.32,9.32,0,0,0-.09-1.44,1.48,1.48,0,0,0-.33-.83,1.21,1.21,0,0,0-.77-.36,8.92,8.92,0,0,0-1.41-.08v-.56h24.37l.06,5.69Z"></path><path d="M259.65,424H234.73v-.55a8.68,8.68,0,0,0,1.4-.09,1.22,1.22,0,0,0,1.16-1.16,9.17,9.17,0,0,0,.09-1.46V389.86a9.32,9.32,0,0,0-.09-1.44,1.42,1.42,0,0,0-.35-.83,1.39,1.39,0,0,0-.81-.36,8.86,8.86,0,0,0-1.4-.08v-.56h10.16v.56a9.36,9.36,0,0,0-1.43.08,1.51,1.51,0,0,0-.86.36,1.42,1.42,0,0,0-.41.8,7.08,7.08,0,0,0-.11,1.47V420.3a.9.9,0,0,0,.3.75,1.38,1.38,0,0,0,.72.31,5.1,5.1,0,0,0,.88,0c.31,0,.58,0,.8,0h8.07a26.23,26.23,0,0,0,2.66-.12,6,6,0,0,0,2-.52,4.48,4.48,0,0,0,1.57-1.27,10.72,10.72,0,0,0,1.36-2.29l.72.16Z"></path><path d="M312.54,412.82a18.38,18.38,0,0,1-3.4,6.16,15.72,15.72,0,0,1-5.5,4.17,19.19,19.19,0,0,1-15,0,15.89,15.89,0,0,1-5.5-4.14,17.55,17.55,0,0,1-3.37-6.16,24.4,24.4,0,0,1-1.14-7.52,22.44,22.44,0,0,1,1.5-8.57,18.26,18.26,0,0,1,4-6.11,16.45,16.45,0,0,1,5.64-3.67,17.25,17.25,0,0,1,6.41-1.19,18.13,18.13,0,0,1,6.41,1.25,16.51,16.51,0,0,1,5.64,3.64,17.79,17.79,0,0,1,4,6.11,22.69,22.69,0,0,1,1.49,8.54A23.83,23.83,0,0,1,312.54,412.82ZM308,399.44a18.1,18.1,0,0,0-2.19-5.44,12.44,12.44,0,0,0-3.86-4,11.76,11.76,0,0,0-11.67,0,12.57,12.57,0,0,0-3.87,4,17.66,17.66,0,0,0-2.15,5.41,27.4,27.4,0,0,0-.66,5.92,27.72,27.72,0,0,0,.66,5.94,17.32,17.32,0,0,0,2.15,5.42,12.38,12.38,0,0,0,3.87,3.92,12,12,0,0,0,11.69,0,12.07,12.07,0,0,0,3.9-3.95,17.61,17.61,0,0,0,2.15-5.42,26.72,26.72,0,0,0,.67-5.91A26.34,26.34,0,0,0,308,399.44Z"></path><path d="M367.25,412.82a18.21,18.21,0,0,1-3.4,6.16,15.72,15.72,0,0,1-5.5,4.17,19.19,19.19,0,0,1-15,0,15.89,15.89,0,0,1-5.5-4.14,17.71,17.71,0,0,1-3.37-6.16,24.4,24.4,0,0,1-1.14-7.52,22.44,22.44,0,0,1,1.5-8.57,18.26,18.26,0,0,1,4-6.11,16.45,16.45,0,0,1,5.64-3.67,17.25,17.25,0,0,1,6.41-1.19A18.13,18.13,0,0,1,357.3,387a16.51,16.51,0,0,1,5.64,3.64,17.79,17.79,0,0,1,4,6.11,22.69,22.69,0,0,1,1.49,8.54A23.83,23.83,0,0,1,367.25,412.82Zm-4.5-13.38a17.84,17.84,0,0,0-2.19-5.44,12.44,12.44,0,0,0-3.86-4A11.76,11.76,0,0,0,345,390a12.44,12.44,0,0,0-3.86,4,17.42,17.42,0,0,0-2.16,5.41,27.4,27.4,0,0,0-.66,5.92,27.72,27.72,0,0,0,.66,5.94,17.1,17.1,0,0,0,2.16,5.42,12.25,12.25,0,0,0,3.86,3.92,12,12,0,0,0,11.69,0,12,12,0,0,0,3.9-3.95,17.88,17.88,0,0,0,2.16-5.42,27.31,27.31,0,0,0,.66-5.91A26.34,26.34,0,0,0,362.75,399.44Z"></path><path d="M412.07,424c-.88-2-1.77-3.71-2.65-5.28a39.6,39.6,0,0,0-2.88-4.39,41.43,41.43,0,0,0-3.37-3.93c-1.21-1.25-2.6-2.56-4.14-3.92l-4,.05v14.21a7.48,7.48,0,0,0,.11,1.49,1.5,1.5,0,0,0,.39.83,1.32,1.32,0,0,0,.82.33,13.92,13.92,0,0,0,1.44.06V424H387.75v-.55a8.3,8.3,0,0,0,1.36-.09,1.36,1.36,0,0,0,.8-.36,1.45,1.45,0,0,0,.36-.8,10.82,10.82,0,0,0,.08-1.46V389.86a11,11,0,0,0-.08-1.44,1.49,1.49,0,0,0-.36-.83,1.36,1.36,0,0,0-.8-.36,8.47,8.47,0,0,0-1.36-.08v-.56H401a20.38,20.38,0,0,1,4.67.53,11.82,11.82,0,0,1,3.95,1.68,8.63,8.63,0,0,1,2.74,3,9.66,9.66,0,0,1,1,4.65,8.3,8.3,0,0,1-.77,3.67,7.82,7.82,0,0,1-2.1,2.65,11.5,11.5,0,0,1-3,1.75,16.61,16.61,0,0,1-3.59.93c1.06.89,1.93,1.64,2.59,2.27a23.85,23.85,0,0,1,1.74,1.8c.5.57,1,1.16,1.47,1.76s1.05,1.32,1.71,2.13a23.54,23.54,0,0,1,2.1,3.12l1.85,3.26c.57,1,1.1,1.88,1.58,2.57s.94,1.06,1.38,1.06V424Zm-17-20.12h2.65a21,21,0,0,0,3.9-.36,10.55,10.55,0,0,0,3.45-1.27,7.15,7.15,0,0,0,2.49-2.46,7.39,7.39,0,0,0,.94-3.87,6.59,6.59,0,0,0-.78-3.37,5.56,5.56,0,0,0-2.07-2.07,8.65,8.65,0,0,0-3-1,19.82,19.82,0,0,0-3.37-.28h-1.1c-.37,0-.76,0-1.16.06a3.81,3.81,0,0,0-1.14.27,2.24,2.24,0,0,0-.85.61Z"></path><path d="M439.26,424v-.55c.63,0,1.13,0,1.52-.06a1.85,1.85,0,0,0,.91-.3,1.28,1.28,0,0,0,.44-.81,7.58,7.58,0,0,0,.12-1.54V389.86a7.69,7.69,0,0,0-.12-1.55,1.23,1.23,0,0,0-.44-.8,1.75,1.75,0,0,0-.91-.31c-.39,0-.89-.05-1.52-.05v-.56H450v.56c-.62,0-1.13,0-1.52.05a1.78,1.78,0,0,0-.91.31,1.23,1.23,0,0,0-.44.8,7.83,7.83,0,0,0-.11,1.55v30.89a7.71,7.71,0,0,0,.11,1.54,1.28,1.28,0,0,0,.44.81,1.88,1.88,0,0,0,.91.3c.39,0,.9.06,1.52.06V424Z"></path><path d="M503.92,387.39a1.61,1.61,0,0,0-.86.75,3.07,3.07,0,0,0-.27,1.27q0,.78,0,1.83v33h-2.82l-22.16-31.72v26.92c0,.7,0,1.29,0,1.79a3,3,0,0,0,.27,1.25,1.44,1.44,0,0,0,.86.71,5.06,5.06,0,0,0,1.71.23V424h-8.9v-.55a5.29,5.29,0,0,0,1.77-.23,1.58,1.58,0,0,0,.89-.69,2.6,2.6,0,0,0,.3-1.21c0-.5,0-1.12,0-1.85v-30l-.55-1.19a2.45,2.45,0,0,0-.5-.72,1.39,1.39,0,0,0-.69-.33,6.56,6.56,0,0,0-1.25-.08v-.56h7.3q5.08,7.68,10.33,15.09t10.34,15.09V391.24c0-.74,0-1.37,0-1.88a3.19,3.19,0,0,0-.27-1.27,1.49,1.49,0,0,0-.89-.72,5.62,5.62,0,0,0-1.8-.22v-.56h9v.56A5,5,0,0,0,503.92,387.39Z"></path><path d="M558.38,404.72a1.75,1.75,0,0,0-.8,1.6v14.92a3,3,0,0,1-1,.81,13.18,13.18,0,0,1-1.36.66,11.72,11.72,0,0,1-1.44.5c-.48.13-.88.25-1.21.36a29.34,29.34,0,0,1-10.34,1.07,19.89,19.89,0,0,1-8.81-2.73,17.06,17.06,0,0,1-6.16-6.52,23,23,0,0,1-.94-17.91,17.67,17.67,0,0,1,9.89-10.14,19.54,19.54,0,0,1,7.68-1.47,29.32,29.32,0,0,1,6.63.78,6.37,6.37,0,0,0,.72.22l1.3.33,1.8.44a1.81,1.81,0,0,0,.77-.3.91.91,0,0,0,.44-.69h.66c0,.4,0,1,0,1.74s-.05,1.54-.08,2.35-.1,1.57-.17,2.29a6.11,6.11,0,0,1-.33,1.58.86.86,0,0,0,.11.19l.11.19-.22-.38a11.63,11.63,0,0,0-4.51-4.51,12.93,12.93,0,0,0-6.27-1.52,14.87,14.87,0,0,0-6.6,1.36,13.09,13.09,0,0,0-4.64,3.7,15.56,15.56,0,0,0-2.74,5.47,24.1,24.1,0,0,0-.89,6.61,21.66,21.66,0,0,0,.92,6.29,14,14,0,0,0,3.18,5.53,12.49,12.49,0,0,0,5,3.46,17.59,17.59,0,0,0,6,1c.44,0,1.06,0,1.85-.11s1.58-.2,2.37-.36a12.26,12.26,0,0,0,2.22-.69,2.73,2.73,0,0,0,1.4-1.16V406.54a2.34,2.34,0,0,0-.33-1.38,1.61,1.61,0,0,0-.88-.6,3.44,3.44,0,0,0-1.22-.14c-.44,0-.9,0-1.38,0v-.77h11v.55A3.39,3.39,0,0,0,558.38,404.72ZM555.87,395l-.11-.19a.86.86,0,0,1-.11-.19Z"></path></g></g></svg> 