<?xml version="1.0" encoding="UTF-8"?> <svg xmlns="http://www.w3.org/2000/svg" viewBox="0 0 410.75 184.78"><defs><style>.cls-1{opacity:0.73;}.cls-2{fill:#006838;}.cls-3{fill:#fff;}.cls-4{opacity:0.2;}</style></defs><title>Asset 13-2</title><g id="Layer_2" data-name="Layer 2"><g id="Layer_6" data-name="Layer 6"><g class="cls-1"><rect class="cls-2" width="410.75" height="184.78"></rect></g><path class="cls-3" d="M48.43,62.28a7.83,7.83,0,0,1-.77,3.58,7.25,7.25,0,0,1-2.07,2.54,9.42,9.42,0,0,1-3.38,1.72,17.38,17.38,0,0,1-4.68.52H26.62V43.36h9.63a34,34,0,0,1,4.55.23,8.75,8.75,0,0,1,2.91,1,5.38,5.38,0,0,1,2.19,2.11,6.24,6.24,0,0,1,.72,3,6.4,6.4,0,0,1-1,3.55,5.82,5.82,0,0,1-2.76,2.29v.15a7.4,7.4,0,0,1,4,2.17A6.22,6.22,0,0,1,48.43,62.28ZM39.66,51.07a3.13,3.13,0,0,0-.34-1.35,2.07,2.07,0,0,0-1-1,4.35,4.35,0,0,0-1.61-.32c-.61,0-1.53,0-2.75,0h-.48v5.77h.86c1.17,0,2,0,2.46,0a3.91,3.91,0,0,0,1.46-.38,2.24,2.24,0,0,0,1.14-1.06A3.87,3.87,0,0,0,39.66,51.07Zm1.72,11.09a3.33,3.33,0,0,0-.51-2,3.08,3.08,0,0,0-1.54-1.08,5.36,5.36,0,0,0-1.71-.27c-.73,0-1.7,0-2.93,0H33.43v6.84h.37c1.78,0,3,0,3.7,0a5.75,5.75,0,0,0,2.08-.5A2.68,2.68,0,0,0,41,63.92,3.56,3.56,0,0,0,41.38,62.16Z"></path><path class="cls-3" d="M65.8,56.13h-.53a4.41,4.41,0,0,0-1.06-.19,14.64,14.64,0,0,0-1.54-.07,8.56,8.56,0,0,0-2.12.29,20.79,20.79,0,0,0-2.15.7V70.64H52V50.06H58.4V53c.29-.26.7-.6,1.22-1A11.13,11.13,0,0,1,61,51a7.6,7.6,0,0,1,1.62-.73,5.65,5.65,0,0,1,1.75-.3l.69,0,.7.05Z"></path><path class="cls-3" d="M88,60.36a11.15,11.15,0,0,1-2.77,8c-1.85,1.94-4.47,2.92-7.85,2.92s-6-1-7.83-2.92a11.08,11.08,0,0,1-2.8-8q0-5.13,2.8-8t7.83-2.91q5.06,0,7.84,2.93T88,60.36Zm-6.57,0a12.45,12.45,0,0,0-.31-3,5.53,5.53,0,0,0-.83-2A3.21,3.21,0,0,0,79,54.32a4.19,4.19,0,0,0-1.63-.3,4.25,4.25,0,0,0-1.56.27,3,3,0,0,0-1.28,1,5.5,5.5,0,0,0-.88,2,12.53,12.53,0,0,0-.33,3.14,12.12,12.12,0,0,0,.31,3.05,6,6,0,0,0,.81,1.86,3.07,3.07,0,0,0,1.28,1,4.26,4.26,0,0,0,1.7.33A4.06,4.06,0,0,0,79,66.35a2.91,2.91,0,0,0,1.27-1,5.53,5.53,0,0,0,.86-1.9A12.2,12.2,0,0,0,81.43,60.4Z"></path><path class="cls-3" d="M122.06,50.06l-6,20.58h-6.82l-3.6-13.3L102,70.64H95.18l-6-20.58H96l3.15,13.62L103,50.06h5.66l3.69,13.62,3.09-13.62Z"></path><path class="cls-3" d="M131.05,71.21a18,18,0,0,1-4.29-.5,16.22,16.22,0,0,1-3.35-1.15V64.13H124c.3.24.65.49,1,.77a8.73,8.73,0,0,0,1.63.88,13.16,13.16,0,0,0,2,.73,9.56,9.56,0,0,0,2.45.3,6.33,6.33,0,0,0,2.39-.42,1.42,1.42,0,0,0,1-1.34A1.26,1.26,0,0,0,134,64a5.32,5.32,0,0,0-1.85-.7c-.49-.12-1.11-.25-1.85-.39a15.07,15.07,0,0,1-2-.49,7.49,7.49,0,0,1-3.64-2.22,5.92,5.92,0,0,1-1.21-3.88,5.57,5.57,0,0,1,.63-2.59A6.64,6.64,0,0,1,126,51.53a9.41,9.41,0,0,1,3-1.48,13.82,13.82,0,0,1,4.07-.55,17,17,0,0,1,4,.43,14.75,14.75,0,0,1,3.06,1v5.2h-.51a10.36,10.36,0,0,0-1-.68,11.8,11.8,0,0,0-1.39-.74,9.74,9.74,0,0,0-1.8-.61,8.77,8.77,0,0,0-2-.24,5.24,5.24,0,0,0-2.35.48,1.43,1.43,0,0,0-1,1.26,1.38,1.38,0,0,0,.47,1.1,5.72,5.72,0,0,0,2.07.79c.55.13,1.18.27,1.9.39a15.16,15.16,0,0,1,2.06.53,7,7,0,0,1,3.36,2.09A5.57,5.57,0,0,1,141,64.21a5.92,5.92,0,0,1-.68,2.75,6.16,6.16,0,0,1-1.92,2.21,9.88,9.88,0,0,1-3.11,1.5A14.91,14.91,0,0,1,131.05,71.21Z"></path><path class="cls-3" d="M154.63,71.19q-5.82,0-8.93-2.79c-2.07-1.85-3.11-4.5-3.11-7.93a11.09,11.09,0,0,1,2.9-8q2.89-3,8.1-3,4.72,0,7.1,2.55t2.39,7.29v2.31H149a5.87,5.87,0,0,0,.61,2.39A4.18,4.18,0,0,0,151,65.49a5.33,5.33,0,0,0,1.93.81,10.59,10.59,0,0,0,2.4.25,9.58,9.58,0,0,0,2.2-.25,9.9,9.9,0,0,0,2-.65,11.71,11.71,0,0,0,1.46-.75c.45-.27.81-.5,1.09-.71h.68v5.29l-1.44.58a12,12,0,0,1-1.79.54,18.17,18.17,0,0,1-2.15.43A20.4,20.4,0,0,1,154.63,71.19Zm2.12-13.49a4.9,4.9,0,0,0-.94-3.09,3.34,3.34,0,0,0-2.72-1.06,3.84,3.84,0,0,0-2.92,1.11,4.67,4.67,0,0,0-1.16,3Z"></path><path class="cls-3" d="M199.55,62.28a8,8,0,0,1-.77,3.58,7.25,7.25,0,0,1-2.07,2.54,9.5,9.5,0,0,1-3.38,1.72,17.48,17.48,0,0,1-4.68.52H177.73V43.36h9.64a34,34,0,0,1,4.55.23,8.62,8.62,0,0,1,2.9,1A5.25,5.25,0,0,1,197,46.66a6.24,6.24,0,0,1,.73,3,6.48,6.48,0,0,1-1,3.55A5.91,5.91,0,0,1,194,55.54v.15A7.44,7.44,0,0,1,198,57.86,6.26,6.26,0,0,1,199.55,62.28Zm-8.78-11.21a3,3,0,0,0-.34-1.35,2,2,0,0,0-1.05-1,4.29,4.29,0,0,0-1.6-.32q-.93,0-2.76,0h-.48v5.77h.87c1.17,0,2,0,2.46,0a3.91,3.91,0,0,0,1.46-.38,2.22,2.22,0,0,0,1.13-1.06A3.71,3.71,0,0,0,190.77,51.07Zm1.73,11.09a3.33,3.33,0,0,0-.52-2,3,3,0,0,0-1.54-1.08,5.26,5.26,0,0,0-1.71-.27c-.73,0-1.7,0-2.92,0h-1.27v6.84h.37c1.78,0,3,0,3.7,0a5.8,5.8,0,0,0,2.09-.5,2.72,2.72,0,0,0,1.37-1.18A3.67,3.67,0,0,0,192.5,62.16Z"></path><path class="cls-3" d="M222.3,50.06,211.91,78.18H205l3.11-8-7.55-20.08h6.74L211.66,63l4.05-12.9Z"></path><path class="cls-3" d="M257.05,52a11,11,0,0,1-.6,3.63,7.86,7.86,0,0,1-1.74,2.87,12.08,12.08,0,0,1-1.53,1.32,9.38,9.38,0,0,1-1.84,1,11.68,11.68,0,0,1-2.19.66,13.41,13.41,0,0,1-2.65.23h-3.59v8.93h-6.85V43.36h10.59a16.71,16.71,0,0,1,4.07.43,9.91,9.91,0,0,1,3.11,1.36,7,7,0,0,1,2.38,2.74A9.2,9.2,0,0,1,257.05,52Zm-7,.16a3.54,3.54,0,0,0-.55-2A2.93,2.93,0,0,0,248.15,49a5.69,5.69,0,0,0-1.86-.48c-.59-.05-1.4-.07-2.41-.07h-1v8.17h.48c.64,0,1.25,0,1.83,0a10.6,10.6,0,0,0,1.5-.12,4.8,4.8,0,0,0,1.16-.36,3.11,3.11,0,0,0,1-.6,3.56,3.56,0,0,0,.94-1.41A6.24,6.24,0,0,0,250,52.13Z"></path><path class="cls-3" d="M274.16,56.13h-.53a4.32,4.32,0,0,0-1.06-.19,14.64,14.64,0,0,0-1.54-.07,8.56,8.56,0,0,0-2.12.29,21.6,21.6,0,0,0-2.15.7V70.64h-6.41V50.06h6.41V53c.29-.26.7-.6,1.22-1a11.13,11.13,0,0,1,1.42-1,7.6,7.6,0,0,1,1.62-.73,5.7,5.7,0,0,1,1.75-.3l.7,0,.69.05Z"></path><path class="cls-3" d="M296.37,60.36a11.16,11.16,0,0,1-2.78,8c-1.85,1.94-4.47,2.92-7.85,2.92s-6-1-7.83-2.92a11.12,11.12,0,0,1-2.8-8c0-3.42.94-6.1,2.8-8s4.47-2.91,7.83-2.91,6,1,7.84,2.93S296.37,57,296.37,60.36Zm-6.58,0a13,13,0,0,0-.3-3,5.53,5.53,0,0,0-.84-2,3.15,3.15,0,0,0-1.28-1.08,4.19,4.19,0,0,0-1.63-.3,4.33,4.33,0,0,0-1.56.27,3,3,0,0,0-1.28,1,5.5,5.5,0,0,0-.88,2,12.53,12.53,0,0,0-.33,3.14,12.12,12.12,0,0,0,.31,3.05,6,6,0,0,0,.81,1.86,3.07,3.07,0,0,0,1.28,1,4.26,4.26,0,0,0,1.7.33,4.06,4.06,0,0,0,1.57-.33,2.86,2.86,0,0,0,1.27-1,5.74,5.74,0,0,0,.87-1.9A12.78,12.78,0,0,0,289.79,60.4Z"></path><path class="cls-3" d="M308.47,71a7.1,7.1,0,0,1-2.07,5.43,7.44,7.44,0,0,1-5.34,2,30.46,30.46,0,0,1-3.19-.16,16.59,16.59,0,0,1-2.09-.32V73.18h.49a8.62,8.62,0,0,0,1.39.32,8.1,8.1,0,0,0,1.22.12,2.67,2.67,0,0,0,2.51-1.13,7.73,7.73,0,0,0,.67-3.74V54.53h-3.7V50.06h10.11Zm0-23.87h-6.83v-5h6.83Z"></path><path class="cls-3" d="M323.92,71.19c-3.89,0-6.86-.93-8.93-2.79s-3.11-4.5-3.11-7.93a11.09,11.09,0,0,1,2.9-8c1.93-2,4.62-3,8.09-3q4.72,0,7.11,2.55t2.38,7.29v2.31H318.31a5.71,5.71,0,0,0,.61,2.39,4.18,4.18,0,0,0,1.35,1.53,5.33,5.33,0,0,0,1.93.81,10.56,10.56,0,0,0,2.39.25,9.52,9.52,0,0,0,2.2-.25,10.22,10.22,0,0,0,2-.65,12.46,12.46,0,0,0,1.46-.75c.44-.27.81-.5,1.09-.71H332v5.29l-1.44.58a12.44,12.44,0,0,1-1.79.54,18.17,18.17,0,0,1-2.15.43A20.4,20.4,0,0,1,323.92,71.19ZM326,57.7a4.9,4.9,0,0,0-.94-3.09,3.34,3.34,0,0,0-2.72-1.06,3.82,3.82,0,0,0-2.92,1.11,4.67,4.67,0,0,0-1.17,3Z"></path><path class="cls-3" d="M345.75,71.19a16.3,16.3,0,0,1-4.66-.64,10.09,10.09,0,0,1-3.67-2,9.05,9.05,0,0,1-2.4-3.36,12.07,12.07,0,0,1-.86-4.78,12.23,12.23,0,0,1,.93-5,9.39,9.39,0,0,1,2.53-3.4,10,10,0,0,1,3.62-1.9,15.42,15.42,0,0,1,7.74-.22,15,15,0,0,1,3.42,1.26v5.49h-.82c-.26-.24-.57-.51-.94-.8a8.61,8.61,0,0,0-1.22-.81,8.14,8.14,0,0,0-1.58-.65,6.63,6.63,0,0,0-2-.27,4.55,4.55,0,0,0-3.8,1.72,7.22,7.22,0,0,0-1.35,4.6,6.49,6.49,0,0,0,1.44,4.62A5,5,0,0,0,346,66.57a7.55,7.55,0,0,0,2.13-.27,8,8,0,0,0,1.57-.66,7.29,7.29,0,0,0,1.1-.8c.31-.28.57-.52.79-.74h.82v5.49l-1.27.55a11.17,11.17,0,0,1-1.47.52c-.63.17-1.21.3-1.75.39A13.71,13.71,0,0,1,345.75,71.19Z"></path><path class="cls-3" d="M363.32,71q-3.92,0-5.7-1.61c-1.2-1.08-1.79-2.84-1.79-5.28V54.53h-2.45V50.06h2.45V44.18h6.41v5.88h6.18v4.47h-6.18v7.3c0,.72,0,1.34,0,1.88a3.9,3.9,0,0,0,.29,1.45,2,2,0,0,0,.91,1,3.87,3.87,0,0,0,1.9.37,5.33,5.33,0,0,0,1.34-.22,5.39,5.39,0,0,0,1.17-.4h.55v4.52a16.47,16.47,0,0,1-2.22.43A21.21,21.21,0,0,1,363.32,71Z"></path><path class="cls-3" d="M36.69,97.89H28.11v5.2h8.22v2.18H28.11v8.87H25.66V95.71h11Z"></path><path class="cls-3" d="M41.23,98H38.59V95.59h2.64Zm-.16,16.14H38.75V100.32h2.32Z"></path><path class="cls-3" d="M55.36,114.14H53v-7.87a16.36,16.36,0,0,0-.09-1.77,3.59,3.59,0,0,0-.36-1.32,1.75,1.75,0,0,0-.79-.78,3.27,3.27,0,0,0-1.38-.25,3.94,3.94,0,0,0-1.79.46,9.16,9.16,0,0,0-1.8,1.21v10.32H44.49V100.32h2.33v1.53a9.15,9.15,0,0,1,2-1.42,4.84,4.84,0,0,1,2.14-.5,4,4,0,0,1,3.2,1.35,5.84,5.84,0,0,1,1.15,3.89Z"></path><path class="cls-3" d="M69.27,114.14H66.94v-1.41c-.36.31-.67.56-.94.76a4.55,4.55,0,0,1-.93.54,5.42,5.42,0,0,1-1,.37,5.13,5.13,0,0,1-1.24.13,4.74,4.74,0,0,1-2.09-.47,4.48,4.48,0,0,1-1.63-1.38A6.86,6.86,0,0,1,58,110.42a11.87,11.87,0,0,1-.37-3.08,9.5,9.5,0,0,1,.47-3.15,7.58,7.58,0,0,1,1.3-2.32,5.29,5.29,0,0,1,1.83-1.42,5.14,5.14,0,0,1,2.24-.52,6.42,6.42,0,0,1,1.81.23,8,8,0,0,1,1.62.72v-6h2.33Zm-2.33-3.36v-8a7.64,7.64,0,0,0-1.55-.59,7,7,0,0,0-1.49-.16,3.31,3.31,0,0,0-2.81,1.35,6.32,6.32,0,0,0-1,3.88,7.3,7.3,0,0,0,.78,3.73,2.71,2.71,0,0,0,2.5,1.29,4.62,4.62,0,0,0,1.85-.41A7.07,7.07,0,0,0,66.94,110.78Z"></path><path class="cls-3" d="M84.74,114.42a4,4,0,0,1-3-1.09,4.72,4.72,0,0,1-1.06-3.42v-7.66H79.13v-1.93h1.58v-4H83v4h4.29v1.93H83v6.57c0,.7,0,1.24,0,1.62a2.79,2.79,0,0,0,.29,1.07,1.35,1.35,0,0,0,.68.65,3.17,3.17,0,0,0,1.27.21,3.66,3.66,0,0,0,1.1-.16,7,7,0,0,0,.77-.28h.14V114a12.12,12.12,0,0,1-1.33.29A8.25,8.25,0,0,1,84.74,114.42Z"></path><path class="cls-3" d="M99.91,114.14H97.58v-7.87a16.36,16.36,0,0,0-.09-1.77,3.8,3.8,0,0,0-.36-1.32,1.8,1.8,0,0,0-.79-.78,3.29,3.29,0,0,0-1.39-.25,3.93,3.93,0,0,0-1.78.46,9.16,9.16,0,0,0-1.8,1.21v10.32H89V94.88h2.33v7a8.93,8.93,0,0,1,2-1.42,4.84,4.84,0,0,1,2.14-.5,4,4,0,0,1,3.19,1.35,5.79,5.79,0,0,1,1.16,3.89Z"></path><path class="cls-3" d="M109.18,114.47A6.85,6.85,0,0,1,104,112.6a7.26,7.26,0,0,1-1.82-5.29,7.84,7.84,0,0,1,1.77-5.38,5.89,5.89,0,0,1,4.63-2,6.41,6.41,0,0,1,2.28.38,4.44,4.44,0,0,1,1.73,1.16,5.48,5.48,0,0,1,1.14,1.94,8.71,8.71,0,0,1,.39,2.8v1.26h-9.58a5.15,5.15,0,0,0,1.22,3.69,4.4,4.4,0,0,0,3.35,1.28,6.43,6.43,0,0,0,1.51-.18,6.92,6.92,0,0,0,1.33-.44,11.22,11.22,0,0,0,1.06-.55,7.85,7.85,0,0,0,.72-.5h.13v2.53l-1,.41c-.41.16-.77.28-1.09.37s-.86.22-1.23.29A8.74,8.74,0,0,1,109.18,114.47Zm2.72-8.78a6.68,6.68,0,0,0-.22-1.62,3.64,3.64,0,0,0-.57-1.15,2.59,2.59,0,0,0-1-.79,3.85,3.85,0,0,0-1.58-.28,4.13,4.13,0,0,0-1.58.28,4,4,0,0,0-1.18.81,4.07,4.07,0,0,0-.79,1.21,5.21,5.21,0,0,0-.35,1.54Z"></path><path class="cls-3" d="M136,106.87a8.47,8.47,0,0,1-1.66,5.5,5.15,5.15,0,0,1-4.17,2,6.27,6.27,0,0,1-1.82-.24,6.77,6.77,0,0,1-1.62-.73v5.79h-2.33V100.32h2.33v1.45a8.25,8.25,0,0,1,1.92-1.31,5.16,5.16,0,0,1,2.31-.53,4.29,4.29,0,0,1,3.71,1.89A8.61,8.61,0,0,1,136,106.87Zm-2.41.26a7.42,7.42,0,0,0-.75-3.67,2.61,2.61,0,0,0-2.45-1.31,4.41,4.41,0,0,0-1.91.44,8,8,0,0,0-1.75,1.13v7.84a8.19,8.19,0,0,0,1.56.6,6,6,0,0,0,1.49.17,3.33,3.33,0,0,0,2.81-1.33A6.32,6.32,0,0,0,133.63,107.13Z"></path><path class="cls-3" d="M144.45,114.47a6.84,6.84,0,0,1-5.13-1.87,7.26,7.26,0,0,1-1.82-5.29,7.84,7.84,0,0,1,1.77-5.38,5.89,5.89,0,0,1,4.63-2,6.39,6.39,0,0,1,2.27.38,4.48,4.48,0,0,1,1.74,1.16,5.48,5.48,0,0,1,1.14,1.94,8.71,8.71,0,0,1,.39,2.8v1.26h-9.58a5.19,5.19,0,0,0,1.21,3.69,4.42,4.42,0,0,0,3.36,1.28,6.28,6.28,0,0,0,1.5-.18,6.69,6.69,0,0,0,1.33-.44,11.52,11.52,0,0,0,1.07-.55,7.85,7.85,0,0,0,.72-.5h.13v2.53l-1,.41c-.41.16-.77.28-1.09.37s-.87.22-1.23.29A8.87,8.87,0,0,1,144.45,114.47Zm2.73-8.78a6.19,6.19,0,0,0-.23-1.62,3.26,3.26,0,0,0-.57-1.15,2.56,2.56,0,0,0-1-.79,3.89,3.89,0,0,0-1.58-.28,4.13,4.13,0,0,0-1.58.28,3.7,3.7,0,0,0-2,2,5.21,5.21,0,0,0-.35,1.54Z"></path><path class="cls-3" d="M159.12,102.82H159a2.53,2.53,0,0,0-.55-.09c-.2,0-.43,0-.7,0a4.48,4.48,0,0,0-1.87.41,5.84,5.84,0,0,0-1.76,1.21v9.81h-2.33V100.32h2.33v2.05a10.71,10.71,0,0,1,2.22-1.59,4.17,4.17,0,0,1,1.84-.46,3.88,3.88,0,0,1,.54,0l.4,0Z"></path><path class="cls-3" d="M168.21,97.11h-.13a6.25,6.25,0,0,0-.89-.21,6,6,0,0,0-1-.11,2.81,2.81,0,0,0-2.1.66,3.55,3.55,0,0,0-.62,2.4v.47h3.85v1.93H163.5v11.89h-2.33V102.25H159.6v-1.93h1.57v-.46a5.42,5.42,0,0,1,1.21-3.8,4.43,4.43,0,0,1,3.44-1.3,10.41,10.41,0,0,1,1.26.07c.41,0,.79.1,1.13.15Z"></path><path class="cls-3" d="M174.75,114.47a6.84,6.84,0,0,1-5.13-1.87,7.26,7.26,0,0,1-1.82-5.29,7.84,7.84,0,0,1,1.77-5.38,5.89,5.89,0,0,1,4.63-2,6.39,6.39,0,0,1,2.27.38,4.48,4.48,0,0,1,1.74,1.16,5.48,5.48,0,0,1,1.14,1.94,8.71,8.71,0,0,1,.39,2.8v1.26h-9.58a5.15,5.15,0,0,0,1.22,3.69,4.38,4.38,0,0,0,3.35,1.28,6.28,6.28,0,0,0,1.5-.18,6.69,6.69,0,0,0,1.33-.44,11.52,11.52,0,0,0,1.07-.55,7.85,7.85,0,0,0,.72-.5h.13v2.53l-1,.41c-.41.16-.77.28-1.09.37s-.87.22-1.23.29A8.78,8.78,0,0,1,174.75,114.47Zm2.73-8.78a6.19,6.19,0,0,0-.23-1.62,3.26,3.26,0,0,0-.57-1.15,2.56,2.56,0,0,0-1-.79,3.89,3.89,0,0,0-1.58-.28,4.13,4.13,0,0,0-1.58.28,4,4,0,0,0-1.18.81,3.89,3.89,0,0,0-.79,1.21,5.21,5.21,0,0,0-.35,1.54Z"></path><path class="cls-3" d="M187.59,114.45A7.3,7.3,0,0,1,185,114a5.28,5.28,0,0,1-2-1.33,6,6,0,0,1-1.33-2.24,9.88,9.88,0,0,1-.47-3.19,9,9,0,0,1,.49-3.14,6.68,6.68,0,0,1,1.31-2.23,5.33,5.33,0,0,1,2-1.39,6.94,6.94,0,0,1,2.62-.49,7.37,7.37,0,0,1,2.2.32,11.33,11.33,0,0,1,1.88.74v2.61h-.13c-.17-.14-.38-.3-.64-.48a7.72,7.72,0,0,0-1-.56,6.36,6.36,0,0,0-1.13-.43,4.83,4.83,0,0,0-1.27-.19,3.54,3.54,0,0,0-2.9,1.37,6,6,0,0,0-1.1,3.87,6.15,6.15,0,0,0,1.06,3.82,3.53,3.53,0,0,0,2.94,1.37,5.23,5.23,0,0,0,2.17-.47,6.91,6.91,0,0,0,1.82-1.22h.13v2.61l-.86.4a6.31,6.31,0,0,1-.94.33,10.48,10.48,0,0,1-1.07.27A6.64,6.64,0,0,1,187.59,114.45Z"></path><path class="cls-3" d="M198,114.42a4,4,0,0,1-3-1.09,4.72,4.72,0,0,1-1.06-3.42v-7.66h-1.57v-1.93h1.57v-4h2.33v4h4.28v1.93h-4.28v6.57q0,1.05,0,1.62a2.79,2.79,0,0,0,.29,1.07,1.39,1.39,0,0,0,.68.65,3.17,3.17,0,0,0,1.27.21,3.77,3.77,0,0,0,1.11-.16,6.68,6.68,0,0,0,.76-.28h.14V114a12.12,12.12,0,0,1-1.33.29A8.25,8.25,0,0,1,198,114.42Z"></path><path class="cls-3" d="M223.41,97.83a8.61,8.61,0,0,1,1.64,3,13.53,13.53,0,0,1,.58,4.1,13.37,13.37,0,0,1-.57,4,8.3,8.3,0,0,1-1.65,3,7.07,7.07,0,0,1-2.63,1.9,8.86,8.86,0,0,1-3.31.61,8.61,8.61,0,0,1-3.37-.63,7,7,0,0,1-2.57-1.88,8.34,8.34,0,0,1-1.63-3,13.41,13.41,0,0,1-.57-4.06,13.25,13.25,0,0,1,.57-4.09,9,9,0,0,1,1.64-3A6.88,6.88,0,0,1,214.11,96a9.09,9.09,0,0,1,6.75,0A7,7,0,0,1,223.41,97.83Zm-.33,7.11a11.8,11.8,0,0,0-.4-3.25,6.7,6.7,0,0,0-1.11-2.34,4.77,4.77,0,0,0-1.77-1.43,5.59,5.59,0,0,0-2.32-.47,5.44,5.44,0,0,0-2.33.46,4.88,4.88,0,0,0-1.76,1.44,6.69,6.69,0,0,0-1.12,2.37,12.19,12.19,0,0,0-.39,3.22,8.77,8.77,0,0,0,1.52,5.55,5.3,5.3,0,0,0,8.16,0A8.84,8.84,0,0,0,223.08,104.94Z"></path><path class="cls-3" d="M231.87,114.48a9.08,9.08,0,0,1-2.6-.37,12.07,12.07,0,0,1-2-.79V110.7h.13c.2.16.43.33.7.52a7,7,0,0,0,1.07.6,9.81,9.81,0,0,0,1.3.48,5.24,5.24,0,0,0,1.48.21,5.69,5.69,0,0,0,1.19-.13,3,3,0,0,0,.94-.33,2,2,0,0,0,.63-.6,2.05,2.05,0,0,0,.19-1,1.63,1.63,0,0,0-.45-1.25,3.63,3.63,0,0,0-1.61-.7c-.29-.08-.68-.17-1.16-.27a12.8,12.8,0,0,1-1.32-.32,4.2,4.2,0,0,1-2.31-1.41,3.83,3.83,0,0,1-.71-2.32,3.78,3.78,0,0,1,1.41-3A5.69,5.69,0,0,1,232.5,100a9.68,9.68,0,0,1,2.31.29,8.06,8.06,0,0,1,2,.72v2.48h-.13a7.38,7.38,0,0,0-2-1.11,6.35,6.35,0,0,0-2.21-.41,3.62,3.62,0,0,0-1.95.49,1.6,1.6,0,0,0-.79,1.46,1.68,1.68,0,0,0,.47,1.29,3.73,3.73,0,0,0,1.51.7c.35.09.73.18,1.16.26s.87.19,1.34.31a4.3,4.3,0,0,1,2.31,1.27,3.58,3.58,0,0,1,.78,2.43,4.07,4.07,0,0,1-.36,1.69,3.73,3.73,0,0,1-1,1.37,5.55,5.55,0,0,1-1.68.94A7.38,7.38,0,0,1,231.87,114.48Z"></path><path class="cls-3" d="M255.14,114.14v-8c0-.64,0-1.23-.08-1.77a3.4,3.4,0,0,0-.31-1.26,1.55,1.55,0,0,0-.7-.73,2.71,2.71,0,0,0-1.24-.24,3.33,3.33,0,0,0-1.54.44,7.89,7.89,0,0,0-1.7,1.27,4.9,4.9,0,0,0,0,.5c0,.19,0,.42,0,.69v9.09h-2.33v-8c0-.64,0-1.23-.08-1.77a3.4,3.4,0,0,0-.31-1.26,1.55,1.55,0,0,0-.7-.73,2.71,2.71,0,0,0-1.24-.24,3.24,3.24,0,0,0-1.58.47,8.41,8.41,0,0,0-1.61,1.2v10.32h-2.33V100.32h2.33v1.53a8.18,8.18,0,0,1,1.81-1.41,3.94,3.94,0,0,1,2-.51,4.24,4.24,0,0,1,2.18.56,3.48,3.48,0,0,1,1.44,1.83,9.7,9.7,0,0,1,2.05-1.78,4.2,4.2,0,0,1,2.18-.61,4.58,4.58,0,0,1,1.62.28,3.25,3.25,0,0,1,1.28.9,4.4,4.4,0,0,1,.86,1.57,8,8,0,0,1,.3,2.37v9.09Z"></path><path class="cls-3" d="M272.11,107.24a7.89,7.89,0,0,1-1.69,5.39,6.22,6.22,0,0,1-9-.06,8,8,0,0,1-1.66-5.33,7.88,7.88,0,0,1,1.7-5.39,5.72,5.72,0,0,1,4.49-1.92,5.65,5.65,0,0,1,4.48,1.92A7.89,7.89,0,0,1,272.11,107.24Zm-2.41,0a6.66,6.66,0,0,0-1-4,3.64,3.64,0,0,0-5.59,0,8.43,8.43,0,0,0,0,7.93,3.24,3.24,0,0,0,2.8,1.34,3.28,3.28,0,0,0,2.78-1.31A6.6,6.6,0,0,0,269.7,107.24Z"></path><path class="cls-3" d="M295.64,97.83a8.59,8.59,0,0,1,1.63,3,13.22,13.22,0,0,1,.58,4.1,13.37,13.37,0,0,1-.57,4,8.44,8.44,0,0,1-1.64,3,7.07,7.07,0,0,1-2.63,1.9,8.9,8.9,0,0,1-3.31.61,8.61,8.61,0,0,1-3.37-.63,6.94,6.94,0,0,1-2.58-1.88,8.5,8.5,0,0,1-1.63-3,13.41,13.41,0,0,1-.57-4.06,12.94,12.94,0,0,1,.58-4.09,8.87,8.87,0,0,1,1.64-3A6.85,6.85,0,0,1,286.33,96a8.51,8.51,0,0,1,3.37-.64,8.4,8.4,0,0,1,3.39.66A7.14,7.14,0,0,1,295.64,97.83Zm-.34,7.11a12.21,12.21,0,0,0-.39-3.25,6.89,6.89,0,0,0-1.12-2.34A4.74,4.74,0,0,0,292,97.92a5.59,5.59,0,0,0-2.32-.47,5.52,5.52,0,0,0-2.34.46,4.88,4.88,0,0,0-1.76,1.44,6.69,6.69,0,0,0-1.12,2.37,12.19,12.19,0,0,0-.39,3.22,8.84,8.84,0,0,0,1.52,5.55,5.31,5.31,0,0,0,8.17,0A8.84,8.84,0,0,0,295.3,104.94Z"></path><path class="cls-3" d="M302.89,98h-2.65V95.59h2.65Zm-.16,16.14H300.4V100.32h2.33Z"></path><path class="cls-3" d="M308.55,114.14h-2.33V94.88h2.33Z"></path><path class="cls-3" d="M32.76,129.56h-.13a6,6,0,0,0-.89-.22,5.86,5.86,0,0,0-1-.1,2.81,2.81,0,0,0-2.1.66,3.55,3.55,0,0,0-.62,2.4v.47h3.85v1.93H28.05v11.89H25.72V134.7H24.15v-1.93h1.57v-.46a5.42,5.42,0,0,1,1.21-3.8,4.43,4.43,0,0,1,3.44-1.3,10.41,10.41,0,0,1,1.26.07c.41,0,.79.09,1.13.15Z"></path><path class="cls-3" d="M44.68,139.69A7.89,7.89,0,0,1,43,145.08a5.7,5.7,0,0,1-4.48,1.9A5.6,5.6,0,0,1,34,145a9.37,9.37,0,0,1,0-10.71,5.73,5.73,0,0,1,4.49-1.92A5.65,5.65,0,0,1,43,134.3,7.89,7.89,0,0,1,44.68,139.69Zm-2.41,0a6.7,6.7,0,0,0-1-4,3.65,3.65,0,0,0-5.59,0,8.45,8.45,0,0,0,0,7.94,3.59,3.59,0,0,0,5.58,0A6.57,6.57,0,0,0,42.27,139.69Z"></path><path class="cls-3" d="M54.39,135.27h-.12a3.33,3.33,0,0,0-.55-.1H53a4.63,4.63,0,0,0-1.87.4,6.07,6.07,0,0,0-1.76,1.22v9.81H47.06V132.77h2.33v2a10.71,10.71,0,0,1,2.22-1.59,4.17,4.17,0,0,1,1.84-.46,3.88,3.88,0,0,1,.54,0l.4.05Z"></path><path class="cls-3" d="M75,132.77l-7.44,18.92H65.06l2.48-5.77-5-13.15H65L68.8,143l3.76-10.23Z"></path><path class="cls-3" d="M87.92,139.69a7.89,7.89,0,0,1-1.68,5.39,5.72,5.72,0,0,1-4.48,1.9,5.64,5.64,0,0,1-4.54-2,8,8,0,0,1-1.65-5.32,7.88,7.88,0,0,1,1.7-5.39,6.2,6.2,0,0,1,9,0A7.89,7.89,0,0,1,87.92,139.69Zm-2.4,0a6.62,6.62,0,0,0-1-4,3.64,3.64,0,0,0-5.58,0,8.45,8.45,0,0,0,0,7.94,3.59,3.59,0,0,0,5.58,0A6.64,6.64,0,0,0,85.52,139.69Z"></path><path class="cls-3" d="M101.08,146.59H98.75v-1.53a9.79,9.79,0,0,1-2,1.43,5,5,0,0,1-3.85.19,3.57,3.57,0,0,1-1.4-.94,4.55,4.55,0,0,1-.92-1.62,7.51,7.51,0,0,1-.33-2.38v-9h2.33v7.87a18,18,0,0,0,.08,1.82,3.44,3.44,0,0,0,.37,1.27,1.71,1.71,0,0,0,.77.78,3.07,3.07,0,0,0,1.4.25,4.09,4.09,0,0,0,1.82-.48,8,8,0,0,0,1.77-1.19V132.77h2.33Z"></path><path class="cls-3" d="M111.78,135.27h-.13a3.15,3.15,0,0,0-.55-.1h-.7a4.63,4.63,0,0,0-1.87.4,6,6,0,0,0-1.75,1.22v9.81h-2.33V132.77h2.33v2a10.71,10.71,0,0,1,2.22-1.59,4.13,4.13,0,0,1,1.83-.46,3.88,3.88,0,0,1,.54,0l.41.05Z"></path><path class="cls-3" d="M133.1,139.31a8.54,8.54,0,0,1-1.65,5.51,5.16,5.16,0,0,1-4.18,2.05,6.32,6.32,0,0,1-1.82-.24,7.19,7.19,0,0,1-1.62-.73v5.79H121.5V132.77h2.33v1.44a8.83,8.83,0,0,1,1.93-1.3,5.08,5.08,0,0,1,2.3-.53,4.3,4.3,0,0,1,3.71,1.88A8.58,8.58,0,0,1,133.1,139.31Zm-2.4.26a7.47,7.47,0,0,0-.75-3.67,2.62,2.62,0,0,0-2.45-1.3,4.46,4.46,0,0,0-1.92.44,8.28,8.28,0,0,0-1.75,1.13V144a8,8,0,0,0,1.57.6,6.08,6.08,0,0,0,1.49.16,3.33,3.33,0,0,0,2.81-1.32A6.35,6.35,0,0,0,130.7,139.57Z"></path><path class="cls-3" d="M142.84,135.27h-.12a3.15,3.15,0,0,0-.55-.1h-.7a4.63,4.63,0,0,0-1.87.4,6.21,6.21,0,0,0-1.76,1.22v9.81h-2.32V132.77h2.32v2a10.48,10.48,0,0,1,2.23-1.59,4.13,4.13,0,0,1,1.83-.46,3.88,3.88,0,0,1,.54,0l.4.05Z"></path><path class="cls-3" d="M155.9,139.69a7.89,7.89,0,0,1-1.68,5.39,5.72,5.72,0,0,1-4.48,1.9,5.62,5.62,0,0,1-4.54-2,8,8,0,0,1-1.65-5.32,7.88,7.88,0,0,1,1.7-5.39,6.2,6.2,0,0,1,9,0A7.89,7.89,0,0,1,155.9,139.69Zm-2.4,0a6.69,6.69,0,0,0-1-4,3.26,3.26,0,0,0-2.78-1.3,3.32,3.32,0,0,0-2.81,1.3,8.53,8.53,0,0,0,0,7.94,3.6,3.6,0,0,0,5.59,0A6.64,6.64,0,0,0,153.5,139.69Z"></path><path class="cls-3" d="M162.07,147a4.37,4.37,0,0,1-4.77,4.84c-.25,0-.54,0-.86,0s-.63-.06-.95-.11V149.6h.14l.6.12a3.48,3.48,0,0,0,.63.05,4.4,4.4,0,0,0,1.52-.22,1.74,1.74,0,0,0,.9-.73,3.07,3.07,0,0,0,.37-1.13,12.77,12.77,0,0,0,.09-1.65V134.7h-2.5v-1.93h4.83Zm0-16.54h-2.65V128h2.65Z"></path><path class="cls-3" d="M171.44,146.92a6.84,6.84,0,0,1-5.13-1.87,7.22,7.22,0,0,1-1.83-5.29,7.82,7.82,0,0,1,1.77-5.38,5.89,5.89,0,0,1,4.63-2,6.65,6.65,0,0,1,2.28.37,4.58,4.58,0,0,1,1.73,1.17,5.48,5.48,0,0,1,1.14,1.94,8.71,8.71,0,0,1,.39,2.8v1.26h-9.58a5.15,5.15,0,0,0,1.22,3.69,4.39,4.39,0,0,0,3.35,1.27,6.42,6.42,0,0,0,1.51-.17,6.92,6.92,0,0,0,1.33-.44,9.19,9.19,0,0,0,1.06-.56,5.23,5.23,0,0,0,.72-.5h.14v2.54l-1,.4a11.13,11.13,0,0,1-1.09.38c-.45.12-.86.22-1.23.29A8.74,8.74,0,0,1,171.44,146.92Zm2.72-8.78a6.68,6.68,0,0,0-.22-1.62,3.35,3.35,0,0,0-.57-1.15,2.63,2.63,0,0,0-1.05-.8,4,4,0,0,0-1.58-.27,3.63,3.63,0,0,0-2.76,1.09,4,4,0,0,0-.79,1.21,5.21,5.21,0,0,0-.35,1.54Z"></path><path class="cls-3" d="M184.27,146.9a7.3,7.3,0,0,1-2.61-.44,5.28,5.28,0,0,1-2-1.33,6.12,6.12,0,0,1-1.33-2.24,9.88,9.88,0,0,1-.47-3.19,9.3,9.3,0,0,1,.49-3.15,6.73,6.73,0,0,1,1.31-2.22,5.31,5.31,0,0,1,2-1.4,7,7,0,0,1,2.61-.48,7.37,7.37,0,0,1,2.2.32,11.46,11.46,0,0,1,1.89.74v2.61h-.14a7.55,7.55,0,0,0-.64-.48,8.33,8.33,0,0,0-.94-.56,6.2,6.2,0,0,0-1.14-.43,4.43,4.43,0,0,0-1.26-.19,3.55,3.55,0,0,0-2.91,1.37,7.41,7.41,0,0,0,0,7.69,3.49,3.49,0,0,0,2.94,1.36,5,5,0,0,0,2.16-.47,6.5,6.5,0,0,0,1.82-1.21h.14v2.61l-.87.39a5.46,5.46,0,0,1-.94.34c-.4.12-.75.21-1.06.27A6.76,6.76,0,0,1,184.27,146.9Z"></path><path class="cls-3" d="M194.66,146.87a4,4,0,0,1-3-1.09,4.72,4.72,0,0,1-1.07-3.42V134.7h-1.57v-1.93h1.57v-4H193v4h4.28v1.93H193v6.57c0,.7,0,1.24,0,1.62a2.78,2.78,0,0,0,.28,1.07,1.39,1.39,0,0,0,.68.65,3.22,3.22,0,0,0,1.28.21,3.71,3.71,0,0,0,1.1-.16c.35-.12.61-.21.77-.28h.13v2.09a12.12,12.12,0,0,1-1.33.29A8.12,8.12,0,0,1,194.66,146.87Z"></path><g class="cls-4"><path class="cls-3" d="M407.91,150.15,373.5,114.36a58.54,58.54,0,1,0-11.24,10.28l34.68,36.07a7.61,7.61,0,1,0,11-10.56ZM328.81,33.67a43.16,43.16,0,1,1-43.16,43.15A43.2,43.2,0,0,1,328.81,33.67Z"></path></g><path class="cls-3" d="M322.65,153.13a4.18,4.18,0,0,0,5.9-.12l19-19.76A31.63,31.63,0,0,0,365.87,139a32,32,0,1,0-24.48-11.43l-18.86,19.62A4.18,4.18,0,0,0,322.65,153.13Zm66.87-46.08A23.65,23.65,0,1,1,365.87,83.4,23.67,23.67,0,0,1,389.52,107.05Z"></path></g></g></svg> 