<?xml version="1.0" encoding="UTF-8"?> <svg xmlns="http://www.w3.org/2000/svg" viewBox="0 0 360.52 147.65"><defs><style>.cls-1{fill:#fff;}.cls-2{fill:#97c93c;}</style></defs><title>Asset 2</title><g id="Layer_2" data-name="Layer 2"><g id="Layer_1-2" data-name="Layer 1"><rect y="28.92" width="360.52" height="118.73"></rect><path class="cls-1" d="M55.06,97.89a26,26,0,0,1-9.52,1.54c-11,0-18.11-6.72-18.11-17.49,0-10,6.85-18.18,19.58-18.18a24.84,24.84,0,0,1,8.11,1.32L53.45,73a14.56,14.56,0,0,0-6-1c-5.59,0-9.23,4-9.16,9.58,0,6.3,4.19,9.58,9.37,9.58a16.32,16.32,0,0,0,6.08-1Z"></path><path class="cls-1" d="M94,81.24c0,12.52-8.89,18.26-18,18.26-10,0-17.69-6.58-17.69-17.63s7.27-18.11,18.25-18.11C87,63.76,94,71,94,81.24m-24.76.35c0,5.88,2.45,10.28,7,10.28,4.13,0,6.79-4.13,6.79-10.28,0-5.1-2-10.28-6.79-10.28-5.1,0-7,5.24-7,10.28"></path><path class="cls-1" d="M100.53,75.44c0-4.27-.14-7.91-.28-10.92h9.23l.49,4.69h.21a12.51,12.51,0,0,1,10.56-5.45c7,0,12.24,4.61,12.24,14.68V98.73H122.35v-19c0-4.4-1.54-7.41-5.39-7.41a5.67,5.67,0,0,0-5.38,4,7.25,7.25,0,0,0-.42,2.65V98.73H100.53Z"></path><path class="cls-1" d="M167.19,97.89a25.93,25.93,0,0,1-9.51,1.54c-11.05,0-18.12-6.72-18.12-17.49,0-10,6.85-18.18,19.58-18.18a25,25,0,0,1,8.12,1.32L165.58,73a14.56,14.56,0,0,0-6-1c-5.59,0-9.23,4-9.16,9.58,0,6.3,4.2,9.58,9.37,9.58a16.41,16.41,0,0,0,6.09-1Z"></path><path class="cls-1" d="M173.07,75.78c0-5-.14-8.32-.28-11.26H182l.35,6.3h.28a10,10,0,0,1,9.23-7.07,11,11,0,0,1,2.24.14v10a14.36,14.36,0,0,0-2.87-.29c-3.91,0-6.57,2.11-7.27,5.39a12.55,12.55,0,0,0-.21,2.38V98.73H173.07Z"></path><path class="cls-1" d="M207.27,85c.35,4.4,4.69,6.5,9.65,6.5a30.15,30.15,0,0,0,9.45-1.4l1.4,7.21a33.77,33.77,0,0,1-12.38,2.1c-11.61,0-18.26-6.72-18.26-17.42,0-8.67,5.39-18.26,17.28-18.26,11.05,0,15.24,8.61,15.24,17.07a25.54,25.54,0,0,1-.34,4.2Zm12.53-7.28c0-2.58-1.13-6.92-6-6.92-4.48,0-6.3,4.06-6.58,6.92Z"></path><path class="cls-2" d="M255.47,98.72l-.63-3.42h-.21a12.32,12.32,0,0,1-9.79,4.2c-6.93,0-11.06-5-11.06-10.49,0-8.89,8-13.16,20.08-13.09v-.48c0-1.83-1-4.41-6.23-4.41a19.35,19.35,0,0,0-9.44,2.58l-2-6.85a28.26,28.26,0,0,1,13.29-3c11.4,0,15,6.71,15,14.75V90.4a52.81,52.81,0,0,0,.49,8.32Zm-1.26-16.15c-5.6-.07-9.93,1.26-9.93,5.38,0,2.73,1.82,4.06,4.19,4.06A5.82,5.82,0,0,0,254,88.1a7.69,7.69,0,0,0,.21-1.82Z"></path><path class="cls-1" d="M284.29,54.73v9.79h7.62v7.84h-7.62V84.74c0,4.12,1,6,4.2,6a17.16,17.16,0,0,0,3.14-.28l.07,8a21,21,0,0,1-6.92.91,11.07,11.07,0,0,1-8-2.94c-2-2-2.94-5.32-2.94-10.14v-14h-4.55V64.52h4.55V57.11Z"></path><path class="cls-1" d="M305.91,85c.34,4.4,4.68,6.5,9.65,6.5a30.08,30.08,0,0,0,9.44-1.4l1.4,7.21A33.73,33.73,0,0,1,314,99.43c-11.61,0-18.26-6.72-18.26-17.42,0-8.67,5.39-18.26,17.28-18.26,11,0,15.25,8.61,15.25,17.07a25.28,25.28,0,0,1-.35,4.2Zm12.52-7.28c0-2.58-1.13-6.92-6-6.92-4.48,0-6.3,4.06-6.58,6.92Z"></path><polygon class="cls-2" points="124.53 0.01 124.55 0.02 124.55 0 124.53 0.01"></polygon><path class="cls-2" d="M336.63,66.2a4.34,4.34,0,1,1-4.3-4.22,4.26,4.26,0,0,1,4.3,4.22m-7.6,0a3.3,3.3,0,0,0,3.3,3.38,3.25,3.25,0,0,0,3.22-3.35,3.26,3.26,0,1,0-6.52,0m2.6,2.19h-1V64.17a11.75,11.75,0,0,1,1.63-.13,2.22,2.22,0,0,1,1.44.34,1,1,0,0,1,.43.9,1.08,1.08,0,0,1-.87,1v0c.41.13.62.46.75,1a3.24,3.24,0,0,0,.31,1h-1a3.21,3.21,0,0,1-.34-1c-.08-.44-.33-.64-.87-.64h-.47Zm0-2.37h.46c.54,0,1-.18,1-.61s-.28-.65-.9-.65a2.7,2.7,0,0,0-.54,0Z"></path><path class="cls-1" d="M36.68,120.15a7.45,7.45,0,0,1-2.88.52,4.88,4.88,0,0,1-5.23-5.18,5.25,5.25,0,0,1,5.65-5.42,6.39,6.39,0,0,1,2.48.48l-.46,1.92a4.48,4.48,0,0,0-1.94-.4,3.29,3.29,0,0,0,0,6.57,5.07,5.07,0,0,0,2-.39Z"></path><path class="cls-1" d="M54.68,115.29a5,5,0,0,1-5.21,5.4,4.91,4.91,0,0,1-5.09-5.24,5,5,0,0,1,5.25-5.38A4.88,4.88,0,0,1,54.68,115.29Zm-7.66.1c0,2,1,3.44,2.53,3.44S52,117.39,52,115.35c0-1.59-.71-3.4-2.46-3.4S47,113.7,47,115.39Z"></path><path class="cls-1" d="M63.4,113.33c0-1.17,0-2.15-.09-3h2.26l.12,1.52h.07A3.65,3.65,0,0,1,69,110.07c1.77,0,3.61,1.15,3.61,4.36v6H70v-5.74c0-1.46-.54-2.56-1.94-2.56a2.15,2.15,0,0,0-2,1.5,2.69,2.69,0,0,0-.11.83v6H63.4Z"></path><path class="cls-1" d="M89.43,120.15a7.45,7.45,0,0,1-2.88.52,4.89,4.89,0,0,1-5.24-5.18c0-3,2.09-5.42,5.66-5.42a6.39,6.39,0,0,1,2.48.48L89,112.47a4.48,4.48,0,0,0-1.94-.4,3.29,3.29,0,0,0,0,6.57,5,5,0,0,0,2-.39Z"></path><path class="cls-1" d="M98,113.58c0-1.38,0-2.36-.08-3.28h2.23l.08,1.94h.08a3,3,0,0,1,2.78-2.17,2.71,2.71,0,0,1,.6.06v2.42a3.57,3.57,0,0,0-.75-.08,2.26,2.26,0,0,0-2.29,1.94,4.58,4.58,0,0,0-.08.79v5.26H98Z"></path><path class="cls-1" d="M113.64,116.1c.07,1.83,1.51,2.63,3.13,2.63a7.69,7.69,0,0,0,2.82-.46L120,120a9.39,9.39,0,0,1-3.54.63c-3.3,0-5.24-2-5.24-5.13,0-2.82,1.71-5.47,5-5.47s4.38,2.71,4.38,4.94a5.52,5.52,0,0,1-.09,1.09Zm4.47-1.79a2.19,2.19,0,0,0-2.11-2.49,2.52,2.52,0,0,0-2.36,2.49Z"></path><path class="cls-1" d="M132.17,107.4v2.9h2.44v1.92h-2.44v4.48c0,1.23.33,1.88,1.31,1.88a3.92,3.92,0,0,0,1-.12l0,2a5.75,5.75,0,0,1-1.85.25,3,3,0,0,1-2.21-.84,4,4,0,0,1-.8-2.83v-4.78H128.2V110.3h1.46V108Z"></path><path class="cls-1" d="M144.85,116.1c.06,1.83,1.5,2.63,3.13,2.63a7.63,7.63,0,0,0,2.81-.46l.38,1.77a9.49,9.49,0,0,1-3.55.63c-3.29,0-5.23-2-5.23-5.13,0-2.82,1.71-5.47,5-5.47s4.38,2.71,4.38,4.94a6.66,6.66,0,0,1-.08,1.09Zm4.46-1.79a2.19,2.19,0,0,0-2.11-2.49,2.51,2.51,0,0,0-2.35,2.49Z"></path><path class="cls-1" d="M174.11,107.46a1.44,1.44,0,1,1-1.44-1.39A1.36,1.36,0,0,1,174.11,107.46Zm-2.73,13V110.3H174v10.16Z"></path><path class="cls-1" d="M183.33,113.33c0-1.17,0-2.15-.08-3h2.25l.12,1.52h.07a3.65,3.65,0,0,1,3.23-1.75c1.77,0,3.61,1.15,3.61,4.36v6H190v-5.74c0-1.46-.54-2.56-1.94-2.56a2.15,2.15,0,0,0-2,1.5,2.69,2.69,0,0,0-.11.83v6h-2.58Z"></path><path class="cls-1" d="M201.89,113.33c0-1.17,0-2.15-.08-3h2.25l.13,1.52h.06a3.66,3.66,0,0,1,3.23-1.75c1.78,0,3.61,1.15,3.61,4.36v6h-2.56v-5.74c0-1.46-.55-2.56-1.94-2.56a2.15,2.15,0,0,0-2,1.5,2.7,2.7,0,0,0-.1.83v6h-2.59Z"></path><path class="cls-1" d="M230.11,115.29a5,5,0,0,1-5.21,5.4,4.91,4.91,0,0,1-5.09-5.24,5,5,0,0,1,5.26-5.38A4.87,4.87,0,0,1,230.11,115.29Zm-7.65.1c0,2,1,3.44,2.52,3.44s2.48-1.44,2.48-3.48c0-1.59-.71-3.4-2.46-3.4S222.46,113.7,222.46,115.39Z"></path><path class="cls-1" d="M240.29,110.3l1.65,5.15c.29.9.5,1.71.69,2.55h.06c.19-.84.42-1.63.69-2.55L245,110.3h2.71l-3.88,10.16h-2.53l-3.77-10.16Z"></path><path class="cls-1" d="M261.48,120.46l-.16-1.13h-.07a3.77,3.77,0,0,1-3,1.36,3,3,0,0,1-3.19-3c0-2.56,2.27-3.86,6-3.83v-.17c0-.67-.27-1.77-2.07-1.77a5.36,5.36,0,0,0-2.73.75l-.5-1.67a7.28,7.28,0,0,1,3.67-.9c3.25,0,4.19,2.07,4.19,4.28V118a15.52,15.52,0,0,0,.15,2.44Zm-.33-5c-1.82,0-3.55.36-3.55,1.9a1.35,1.35,0,0,0,1.46,1.46,2.08,2.08,0,0,0,2-1.39,2,2,0,0,0,.08-.57Z"></path><path class="cls-1" d="M275.81,107.4v2.9h2.44v1.92h-2.44v4.48c0,1.23.34,1.88,1.32,1.88a3.92,3.92,0,0,0,1-.12l0,2a5.82,5.82,0,0,1-1.86.25,3,3,0,0,1-2.21-.84,4,4,0,0,1-.79-2.83v-4.78h-1.46V110.3h1.46V108Z"></path><path class="cls-1" d="M289.54,107.46a1.36,1.36,0,0,1-1.46,1.38,1.34,1.34,0,0,1-1.42-1.38,1.44,1.44,0,0,1,2.88,0Zm-2.74,13V110.3h2.59v10.16Z"></path><path class="cls-1" d="M308.41,115.29a5,5,0,0,1-5.21,5.4,4.91,4.91,0,0,1-5.09-5.24,5,5,0,0,1,5.26-5.38A4.87,4.87,0,0,1,308.41,115.29Zm-7.65.1c0,2,1,3.44,2.52,3.44s2.48-1.44,2.48-3.48c0-1.59-.7-3.4-2.46-3.4S300.76,113.7,300.76,115.39Z"></path><path class="cls-1" d="M317.28,113.33c0-1.17,0-2.15-.08-3h2.25l.13,1.52h.06a3.66,3.66,0,0,1,3.23-1.75c1.77,0,3.61,1.15,3.61,4.36v6h-2.57v-5.74c0-1.46-.54-2.56-1.94-2.56a2.15,2.15,0,0,0-2,1.5,2.7,2.7,0,0,0-.1.83v6h-2.59Z"></path></g></g></svg> 