<?xml version="1.0" encoding="UTF-8"?> <svg xmlns="http://www.w3.org/2000/svg" viewBox="0 0 452.76 554.79"><defs><style>.cls-1{fill:#fff;}.cls-2{fill:#020202;}.cls-3{fill:#5f5d5e;}.cls-4{fill:#c4c4c4;}.cls-5{fill:#d4d3d5;}.cls-6{fill:#4a494a;}.cls-7{fill:#e6e7e8;}</style></defs><title>Asset 1-5</title><g id="Layer_2" data-name="Layer 2"><g id="Layer_1-2" data-name="Layer 1"><path class="cls-1" d="M218.32,546.89c-37.68-23-71.23-54.56-99.81-94-22,3.45-44.35,8-66.49,13.52l-14.69,3.67L3.15,345.15l15.3-3.87c12.17-3.07,24.53-5.92,36.93-8.5C26.89,256.93,17.59,187.63,14.84,160l-.9-9,7.35-5.2C60,118.46,109.19,99.92,164.12,92A87.27,87.27,0,0,1,175.94,72a61.91,61.91,0,0,1,15.74-14.75l-14.9-42.76L204.3,5.77a75.92,75.92,0,0,1,44.15,0L276,14.52l-14.9,42.76A62.09,62.09,0,0,1,276.82,72,87.27,87.27,0,0,1,288.64,92c54.92,8,104.13,26.49,142.82,53.88l7.35,5.2-.89,9c-2.75,27.61-12.06,96.91-40.55,172.76,12.4,2.58,24.76,5.43,36.93,8.5l15.3,3.87L415.43,470.08l-14.69-3.67c-22.15-5.53-44.47-10.07-66.49-13.52-28.59,39.44-62.13,71-99.82,94l-8.05,4.91Z"></path><path d="M226.38,554.79,217,549.07c-37.54-22.87-71.05-54.29-99.63-93.41-21.42,3.4-43.19,7.85-64.72,13.23l-17.12,4.27L0,343.31l17.83-4.51C29,336,40.49,333.32,52,330.89,24,255.4,14.92,186.58,12.29,160.27l-1-10.44,8.57-6.07c38.56-27.29,87.82-46,142.52-54.11a89.83,89.83,0,0,1,11.59-19.2,65.6,65.6,0,0,1,14.68-14.21L173.5,12.88l30-9.55a80.06,80.06,0,0,1,45.7,0l30,9.55L264.15,56.24a65.83,65.83,0,0,1,14.68,14.21,90.07,90.07,0,0,1,11.59,19.2c54.7,8.12,104,26.82,142.52,54.11l8.57,6.07-1.05,10.44c-2.62,26.31-11.71,95.13-39.66,170.62,11.46,2.43,22.93,5.08,34.13,7.91l17.83,4.51L417.23,473.16l-17.11-4.27c-21.52-5.38-43.29-9.83-64.73-13.23-28.57,39.12-62.09,70.54-99.63,93.41ZM119.66,450.13l.92,1.26C149,490.55,182.29,522,219.65,544.71l6.73,4.1,6.72-4.1c37.37-22.77,70.7-54.16,99.08-93.32l.92-1.26,1.54.24c22.09,3.46,44.54,8,66.72,13.56L413.62,467l32.83-120-12.78-3.23c-12.07-3.05-24.46-5.9-36.82-8.47l-2.92-.61,1.05-2.79c28.55-76,37.76-145.7,40.4-172.12l.74-7.49L430,147.94c-38.24-27.07-87.25-45.55-141.72-53.44l-1.43-.21L286.28,93A84.51,84.51,0,0,0,274.81,73.6a59.67,59.67,0,0,0-15.09-14.15L258,58.37l14.71-42.22-25-7.95a74.78,74.78,0,0,0-42.6,0l-25,8,14.71,42.21L193,59.45A59.76,59.76,0,0,0,178,73.6,85.07,85.07,0,0,0,166.47,93l-.56,1.34-1.43.21C110,102.39,61,120.87,22.77,147.94l-6.14,4.34.75,7.49c2.63,26.42,11.85,96.1,40.4,172.12l1,2.79-2.92.61c-12.35,2.57-24.74,5.42-36.82,8.47L6.3,347,39.13,467l12.27-3.07c22.2-5.55,44.64-10.11,66.71-13.56Z"></path><path class="cls-2" d="M46.61,166.66C52,212,71.34,326.3,134,420.72c25.9,39,56.51,70.35,91.09,93.22,34.59-22.87,65.2-54.19,91.1-93.22,62.66-94.42,82-208.71,87.39-254.06-46.4-29.86-110-46.85-176.25-46.85h-4.47C156.59,119.81,93,136.8,46.61,166.66Z"></path><path class="cls-3" d="M227.33,103.15h-4.47C146.08,103.15,77,124.48,29,158.48,32.5,194,49.8,324,120.12,429.93c26.65,40.17,60.93,76.91,105,103.74,44-26.83,78.33-63.57,105-103.74C400.39,324,417.69,194,421.24,158.48,373.19,124.48,304.11,103.15,227.33,103.15Zm88.86,317.57c-25.9,39-56.51,70.35-91.1,93.22-34.58-22.87-65.19-54.19-91.09-93.22C71.34,326.3,52,212,46.61,166.66c46.4-29.86,110-46.85,176.25-46.85h4.47c66.27,0,129.85,17,176.25,46.85C398.15,212,378.85,326.3,316.19,420.72Z"></path><path class="cls-1" d="M366.12,242.22c2.08-6.88,4.3-22-4.66-45.18-8.25-21.35-26.75-29.16-40.2-32a62.71,62.71,0,0,0-7.33-1.17,67.56,67.56,0,0,0-7.11-.42H306a106.61,106.61,0,0,0-17.08,1.47c-2.1-1.2-4.44-2.46-7-3.72l-2.81-10.1,6.58-6.35V123.34c0-.81,0-1.62,0-2.42A70.25,70.25,0,0,0,285,108c-.15-.93-.33-1.86-.53-2.75-2.25-9.84-7.22-19.86-14.37-29-5.26-6.71-13.77-15.9-26.83-18.21a39.15,39.15,0,0,0-6.93-.62,35,35,0,0,0-11.26,1.8,35.1,35.1,0,0,0-11.27-1.8,39,39,0,0,0-6.92.62c-13.07,2.31-21.58,11.5-26.84,18.21a74.76,74.76,0,0,0-14.37,29c-.21.92-.39,1.84-.53,2.71a70,70,0,0,0-.67,12.91c0,.81,0,1.61,0,2.42v21.42l6.58,6.35-2.81,10.09c-2.4,1.21-4.62,2.4-6.64,3.55a136.84,136.84,0,0,0-15.79-1.22l-1.5-.06h-1A68.56,68.56,0,0,0,135,164a58.68,58.68,0,0,0-7.38,1.32c-13.32,3-30.91,11-38.9,31.7-9,23.19-6.74,38.3-4.66,45.18-2.17,6.09-5.74,19.36-3.83,37.24,1.94,18.18,8.57,27.89,13.65,32.79-1.14,7.11-1.43,19.05,6.06,29.57,8.62,12.11,24.56,18.42,47.37,18.8v.24c0,3.93.09,8.31.17,13.19-4.78,16.18-12.07,67-12.92,72.9l-.64,4.5,94.24,86.07,87.43-94-.35-3.82c-.47-5.18-4.63-49.67-9.26-65.64.08-4.89.13-9.26.17-13.2,0-.12,0-.22,0-.33,21.05-.92,35.87-7.2,44.06-18.71,7.49-10.52,7.2-22.46,6.06-29.57,5.08-4.9,11.71-14.61,13.65-32.79C371.86,261.58,368.3,248.31,366.12,242.22Z"></path><path class="cls-3" d="M398.47,201.14c-9.69,55.48-32.06,143.91-82.28,219.58q-4.89,7.38-10,14.38c-1.34-13.5-5.08-48.63-8.8-59.82.16-9.46.2-17,.31-23.26,64.5,1.42,49-43.25,49-43.25s12.05-5.37,14.7-30.22c2.37-22.26-4.5-36.22-4.5-36.22s7.44-14-3.46-42.19c-6.4-16.56-20.62-23.37-31.8-26.16a54.36,54.36,0,0,0-11.34-1.79c-2.41-.17-3.92-.13-4.11-.13A100.56,100.56,0,0,0,287.25,174a140.54,140.54,0,0,0-12.59-6.69l-5.23-18.77,7.64-7.38V123.34c0-.85,0-1.71,0-2.56a63.33,63.33,0,0,0-.56-11.39c-.13-.75-.27-1.49-.44-2.22-2-8.62-6.37-17.46-12.75-25.59C259,76,252,68.32,241.79,66.52c-.52-.09-1-.13-1.53-.2l14.59-41.87-12.37-3.93a60.54,60.54,0,0,0-34.77,0l-12.36,3.93,14.59,41.87c-.51.07-1,.11-1.54.2-10.16,1.8-17.17,9.46-21.56,15.06a66.26,66.26,0,0,0-12.76,25.61c-.16.74-.31,1.49-.43,2.21a63.18,63.18,0,0,0-.56,11.38c0,.86,0,1.71,0,2.56v17.77l7.64,7.38-5.23,18.76c-4.7,2.2-8.82,4.46-12.14,6.43a130.29,130.29,0,0,0-19.32-1.56l0-.06a52.2,52.2,0,0,0-6.81.37A47.38,47.38,0,0,0,128.5,174c-11.18,2.8-25.36,9.62-31.74,26.15-10.91,28.23-3.47,42.19-3.47,42.19s-6.87,14-4.5,36.22c2.65,24.85,14.7,30.22,14.7,30.22s-16,46.17,52.32,43.14c.1,6.25.15,13.86.31,23.37-3.32,10-8.55,43-11.26,61q-5.56-7.55-10.86-15.51c-50.22-75.67-72.59-164.1-82.28-219.58H34.83c9.67,56.52,32.59,149.38,85.29,228.79,26.65,40.17,60.93,76.91,105,103.74,44-26.83,78.33-63.57,105-103.74,52.7-79.41,75.62-172.27,85.29-228.79Z"></path><path class="cls-4" d="M300.38,337.26S319,329,324.27,319.43s9.45-11.92,10.39-11.92,4.25,9.56-1.18,16.05S316.05,335.13,300.38,337.26Z"></path><path class="cls-5" d="M259.53,281.46c13.39-1.41,23.92-7.42,27.87-17.46,3-7.5,5.41-20.28,7.49-34.13a28.16,28.16,0,0,0,15.16,12.06c-2.45-10-.71-25.43.89-35.42a58.62,58.62,0,0,1,4.66-4.8c4.08,11.39,4.35,35.85,4.35,35.85,6-5,7.2-26.75,7.2-26.75,5.53,1.93,11.45,17.36,11.45,17.36s-.69-26.21-8.75-36.91a14.14,14.14,0,0,0-1.52-1.73l0,0a15.78,15.78,0,0,0-1.67-1.41h0c-14.61-11.27-44.35,2.95-44.35,2.95-1.74,8.65-2.73,14.21-2.73,14.21l-1.14-4.09a42.88,42.88,0,0,0-12.61,9.3,52,52,0,0,1-27.52,15.23l1.37-5.47s-5.47-1.77-7.91,13.67-4.29,35.73-2,42.16S246.14,282.88,259.53,281.46Z"></path><path class="cls-5" d="M230.34,293.81c12-1.06,15.52-3.75,16.25-6-6.58-.77-13-1.91-13-1.91S231.15,287.75,230.34,293.81Z"></path><path class="cls-5" d="M219,285.89s-10.46,1.85-18.34,2.44c-.82.06-1.64.07-2.46.05,4.44,2.36,11.88,4.83,24.07,5.62C221.51,287.79,219,285.89,219,285.89Z"></path><path class="cls-5" d="M270.37,323.36c16.52,2.56,30,4.25,30,4.25l-23.87-8.19Q273.69,321.35,270.37,323.36Z"></path><path class="cls-5" d="M276.54,313.8c5.86.37,11.71.68,17,.77,20.27.35,24.16-5.81,24.16-5.81s-24.36-.4-33-3.09A69.61,69.61,0,0,1,276.54,313.8Z"></path><path class="cls-5" d="M324.85,257.47c5.7-2.71,16.74,1.42,16.74,1.42s-9.34-11.94-15.71-12-16.95,6.44-16.95,6.44-3.87-9.88-13.26,3.24,2.5,28.75,2.5,28.75c-4.63-.13-15.91,5.67-21.63,8.74l5.27,6.86a9.35,9.35,0,0,1,1.41-.84l.44-.2c14.06-6.3,57.83-3,57.83-3C350.64,257.76,324.85,257.47,324.85,257.47Z"></path><path class="cls-5" d="M123,210.81s1.16,21.73,7.2,26.75c0,0,.28-24.46,4.35-35.85a57,57,0,0,1,4.66,4.8c1.6,10,3.34,25.47.9,35.42a28.16,28.16,0,0,0,15.15-12.06c2.08,13.85,4.53,26.63,7.49,34.13,4,10,14.48,16.05,27.87,17.46s27.52,1,29.79-5.41.41-26.72-2-42.16-7.91-13.67-7.91-13.67l1.37,5.47a52,52,0,0,1-27.51-15.23,43,43,0,0,0-12.62-9.3l-1.14,4.09s-1-5.56-2.72-14.21c0,0-29.75-14.22-44.36-2.95h0a15.78,15.78,0,0,0-1.67,1.41l0,0a14.14,14.14,0,0,0-1.52,1.73c-8.06,10.7-8.75,36.91-8.75,36.91S117.51,212.74,123,210.81Z"></path><path class="cls-4" d="M346.82,253.78s6.26,9.09,6.62,20.19-4.14,13.58-6,11S348.12,259.45,346.82,253.78Z"></path><path class="cls-4" d="M149.81,337.26s-18.58-8.27-23.89-17.83-9.45-11.92-10.39-11.92-4.25,9.56,1.18,16.05S134.14,335.13,149.81,337.26Z"></path><path class="cls-4" d="M103.37,253.78s-6.26,9.09-6.61,20.19,4.13,13.58,6,11S102.07,259.45,103.37,253.78Z"></path><path class="cls-1" d="M276.14,322.15l3.47.52-2.8-1C276.59,321.86,276.37,322,276.14,322.15Z"></path><path d="M228.8,40.75l2.85,11.89,7-20.09a45.24,45.24,0,0,0-13.56-2,49.63,49.63,0,0,0-7.59.58l1.67,17-4.46-16.52c-1.11.25-2.17.54-3.18.86L225.1,71.46l4.87-14Z"></path><path class="cls-4" d="M184.28,180.76c-5.62,3.4-6.37,7.67-6.37,7.67l9.78-4.29Z"></path><path class="cls-4" d="M266.77,179.91l-3.53,3.49,11.47,5S273.81,183.4,266.77,179.91Z"></path><path class="cls-4" d="M237.54,213.51a15.58,15.58,0,0,1,4.22-5.57,21.37,21.37,0,0,1,6-3.68,18.84,18.84,0,0,1,13.73-.68c-2.2.94-4.27,1.52-6.26,2.3s-3.93,1.47-5.85,2.27C245.46,209.72,241.81,211.58,237.54,213.51Z"></path><path class="cls-4" d="M215.07,213.51c-4.26-1.93-7.92-3.79-11.79-5.36-1.92-.8-3.85-1.57-5.85-2.27s-4.06-1.36-6.26-2.3a18.87,18.87,0,0,1,13.74.68,21.32,21.32,0,0,1,5.94,3.68A15.47,15.47,0,0,1,215.07,213.51Z"></path><path class="cls-3" d="M403.21,451.39c-119.85-29.94-236.44-29.93-356.23,0q-13-47.55-26-95.1c136.62-34.52,271.65-34.52,408.27,0Q416.21,403.84,403.21,451.39Z"></path><path d="M294,432.34c-20.69,25.33-43.74,46.47-68.92,63.13-25.19-16.66-48.25-37.8-68.93-63.13q-6.55.65-13.12,1.42c23.89,33,51.4,59.92,82,80.18,30.64-20.26,58.15-47.17,82-80.18Q300.57,433,294,432.34Z"></path><path d="M177.89,374.42c-1.51-2.56-2.27-3.84-3.81-6.4a6.56,6.56,0,0,0-4-3.11c3.72-.6,6.12-1.57,7.15-2.93s1.48-3.67,1.28-6.9c-.23-3.66-.46-5.54-1.6-7.36a5.1,5.1,0,0,0-1.93-1.93c-1.5-.76-4.94-1.21-8.53-1.12-1.8.05-4.22.17-7.28.44-7.5.65-11.25,1-18.73,1.87.31,2.72.46,4.08.76,6.81l4-.22c1,9.4,1.51,14.1,2.51,23.5l-3.77.63c.3,2.72.45,4.09.76,6.81,7.11-.8,10.67-1.15,17.8-1.77l-.6-6.83L158,376c-.29-3.16-.44-4.74-.73-7.9l1.16-.11c3.21-.29,3.95.09,5,1.79,2.68,4.91,4,7.37,6.61,12.3,5.14-.4,7.71-.57,12.86-.87l-.4-6.84ZM165.77,360a59.32,59.32,0,0,1-7.84,1.1l-1.3.12c-.32-3.5-.48-5.25-.81-8.76l3-.43c8.46-.74,8.88-.15,9,3.75C167.92,358.22,168.13,359.15,165.77,360Zm-39,15c0,1.89.06,2.83.11,4.72l-6.37.89-3.82.35c-.48-3.22-.72-4.83-1.21-8.06,3.81-.57,5.71-.84,9.52-1.36-.37-2.72-.56-4.08-.93-6.79-3.85.52-5.77.8-9.6,1.38-.52-3.42-.77-5.13-1.29-8.54l3.88-.79c2.39-.35,3.59-.52,6-.84l1.17,4.63c3.25-.44,4.88-.66,8.13-1.06-.57-4.61-.86-6.91-1.43-11.51-13.42,1.67-20.12,2.66-33.47,4.93.46,2.7.69,4.05,1.16,6.76l3.93-.44c1.54,9.32,2.31,14,3.84,23.31l-3.74.85,1.15,6.76c12.92-2.2,19.39-3.16,32.37-4.76-.56-4.59-.85-6.88-1.42-11.46C131.58,374.44,130,374.65,126.8,375.08Zm-36,10.33-4.35-23.23,3.85-.93c-.49-2.7-.74-4-1.23-6.74-7.43,1.35-11.13,2.07-18.53,3.61.55,2.68.83,4,1.39,6.71l3.92-.59c.63,3.09.94,4.64,1.56,7.73-4.91,1-7.36,1.5-12.26,2.58-.67-3.08-1-4.62-1.69-7.69,1.53-.43,2.3-.64,3.83-1.05-.57-2.69-.86-4-1.43-6.71-7.4,1.59-11.09,2.43-18.45,4.2.64,2.66,1,4,1.61,6.66l3.9-.71c2.16,9.2,3.25,13.81,5.41,23-1.48.43-2.22.65-3.69,1.1l1.6,6.66c7-1.68,10.5-2.48,17.53-4-.58-2.68-.87-4-1.44-6.7-1.52.23-2.28.35-3.79.6l-1.93-8.75c4.86-1.07,7.29-1.58,12.15-2.56l1.78,8.78-3.72,1c.56,2.68.84,4,1.39,6.71,7-1.46,10.56-2.15,17.62-3.43-.49-2.7-.74-4.05-1.23-6.74Zm233.57-29.74,3.88.74c-1.29,9.37-1.94,14-3.23,23.41l-3.82-.3-.9,6.8c13,1.72,19.43,2.73,32.33,5,.82-4.54,1.22-6.82,2-11.36-3.17-.57-4.76-.85-7.94-1.38-.52,1.82-.78,2.72-1.29,4.54-2.54-.42-3.81-.63-6.35-1l-3.75-.8,1.23-8.06c3.8.58,5.7.89,9.5,1.52.45-2.71.67-4.06,1.12-6.76-3.83-.64-5.75-.94-9.58-1.53l1.3-8.54,3.94.4c2.39.38,3.58.57,6,1l-.25,4.77c3.24.54,4.86.82,8.09,1.4.82-4.57,1.23-6.85,2-11.42-13.33-2.38-20-3.42-33.43-5.2Zm-18.74,21.95c-2.58-.28-3.87-.42-6.45-.68l-3.78-.6c.91-9.41,1.37-14.11,2.28-23.52l3.95.18c.27-2.73.41-4.09.69-6.82-7.49-.77-11.24-1.1-18.74-1.68-.21,2.73-.31,4.1-.52,6.83l3.91.53c-.78,9.42-1.17,14.13-1.94,23.55l-3.83-.09c-.21,2.74-.31,4.1-.52,6.84,13,1,19.49,1.65,32.45,3.24l1.7-13.82c-3.11-.38-4.67-.56-7.78-.91C306.5,373.45,306.21,374.84,305.65,377.62Zm93.64-4c.9-3.78,1.37-5.45.94-7.55a4.43,4.43,0,0,0-1.05-2.41c-.93-1.05-3.81-2.47-6.9-3.25-1.52-.38-3.65-.93-6.43-1.53-5.45-1.18-8.56-1.69-11.36-1.59a11.47,11.47,0,0,0-3.12.48c-1.38.44-2.69,2.31-3.17,4-.23.82-.52,2-.82,3.63-.65,3.34-.89,4.61-.56,6.65a5.6,5.6,0,0,0,1,2.29,20.73,20.73,0,0,0,6.16,4q2.24,1,5.82,2.38c7.24,3.26,7.26,3.51,6.64,6.66s-1.17,3.58-7.25,2.26a20.16,20.16,0,0,1-4.43-1.22,4.69,4.69,0,0,1-1.11-.67,3.88,3.88,0,0,1-.38-2.45l.43-2.11c-4-.59-6.05-.87-10.09-1.41a27.24,27.24,0,0,0-.82,6.44,5.28,5.28,0,0,0,1.36,3.89c1.08,1.15,2.25,1.66,4.62,2.46a78.19,78.19,0,0,0,8.87,2.24,76.72,76.72,0,0,0,9,1.61c2.49.25,3.66.3,5.19-.39s2-1.39,2.89-3.14a29.68,29.68,0,0,0,2-6.4c.67-2.78,1-4.25.51-5.92a6,6,0,0,0-.82-1.92c-.67-1-3.07-2.49-5.1-3.41-1-.44-2.48-1.12-4.49-1.95-9.7-4.26-9.75-4.47-9.32-7.36.21-1.46.83-2.4,1.45-2.56s2.45,0,5.38.65c2.76.59,4.35,1.17,4.78,1.71s.44,1.92-.05,4.08C393.14,372.53,395.19,372.88,399.29,373.62ZM256.67,349.76l4,.39c-.28,6.13-.43,9.19-.72,15.31-.17,3.72-.69,6.07-1.49,7s-2.66,1.28-5.66,1.17-4.9-.66-5.62-1.6-1-3.32-.9-7c.17-6.13.26-9.19.44-15.32l4-.09c.1-2.74.14-4.11.23-6.85-7.53-.25-11.31-.33-18.85-.4l-.06,6.85,3.94.26c-.09,6.15-.14,9.23-.22,15.38,0,4.48.24,7.12,1.13,9.67a8.47,8.47,0,0,0,1.79,3c2.42,2.37,6.57,3.36,13.83,3.63s11.53-.39,14-2.57c1.63-1.37,2.75-4,3.24-6.89.25-1.43.5-3.32.69-5.52l.95-15.35,3.94,0c.19-2.73.28-4.1.46-6.83-7.53-.51-11.3-.71-18.83-1C256.84,345.65,256.78,347,256.67,349.76ZM212,372.47c-.56.47-2.35.74-5.41.82-2.32.06-3.24.14-4.41-.47a3.51,3.51,0,0,1-1.2-1,17.38,17.38,0,0,1-1.05-5.36c-.07-2-.1-2.94-.17-4.91s-.1-2.91-.16-4.85a27.88,27.88,0,0,1,.18-3.24,9.26,9.26,0,0,1,.52-2.18,4.09,4.09,0,0,1,2.93-1.71c.65-.06,1.55-.1,2.75-.13,2.56-.07,3.4-.19,4.6.17a3.94,3.94,0,0,1,1.2.41,4.42,4.42,0,0,1,.81,2.35c0,.89,0,1.33,0,2.22,4.24-.29,6.36-.42,10.61-.64,0-2.11-.07-3.73-.13-4.86a10.24,10.24,0,0,0-.85-3.29,4.5,4.5,0,0,0-1.63-2.2c-1.21-.86-4.5-1.67-7.85-1.7-1.68,0-4,0-7,0s-5.19.2-6.87.37a16.24,16.24,0,0,0-4.72,1.15,7.49,7.49,0,0,0-3,2.07c-1.19,1.51-2.22,5.19-2.22,8.86,0,1.86.1,4.42.26,7.6s.3,5.74.48,7.59a22.17,22.17,0,0,0,1.12,5.19,10.55,10.55,0,0,0,1.83,3.48c1.27,1.4,4.41,2.46,7.62,2.56,1.61.05,3.78,0,6.53,0s5-.17,6.63-.25a20.32,20.32,0,0,0,4.45-.7,8.08,8.08,0,0,0,3-1.32c1.2-.93,2.2-3.6,2.34-6,.07-1.23.11-3,.1-5.34-4.17.24-6.25.38-10.42.69C212.86,370.4,212.57,372,212,372.47Z"></path><path class="cls-6" d="M70.29,389.66l.06.28,2.06-.33c0-.1,0-.17-.06-.27Zm10.29-11-1.73.35c.66,3.27,1,5,1.71,8.43l-3.72,1c.56,2.68.84,4,1.39,6.71l1.73-.36c-.51-2.43-.79-3.8-1.32-6.35l3.71-1C81.64,383.9,81.29,382.14,80.58,378.63Zm-2.91-14.39-1.75.26c.59,2.91.91,4.47,1.51,7.47-4.3.86-6.71,1.37-10.54,2.21,0,.12,0,.24.08.37,4.9-1.08,7.35-1.59,12.26-2.58C78.61,368.88,78.29,367.33,77.67,364.24Zm-22.93,5-1.72.31c2.11,9,3.19,13.6,5.33,22.7-1.48.43-2.22.65-3.69,1.1l1.6,6.66,1.7-.41-1.5-6.25c1.47-.45,2.21-.67,3.68-1.1Zm-7.31-5.95c.64,2.66,1,4,1.61,6.66l1.72-.32c-.59-2.44-.92-3.8-1.53-6.34,6.76-1.63,10.45-2.48,16.72-3.83,0-.13,0-.23-.07-.37C58.48,360.69,54.79,361.53,47.43,363.3Zm83.54-15a1.8,1.8,0,0,1,0-.22c-13.42,1.67-20.12,2.66-33.47,4.93.46,2.7.69,4.05,1.16,6.76l1.76-.2c-.44-2.56-.67-3.93-1.12-6.56C112,350.86,118.72,349.86,131,348.32Zm-38.4,36.86,0,.23,2-.26a1.7,1.7,0,0,0,0-.22Zm-22-27.06c.55,2.68.83,4,1.39,6.71l1.74-.27c-.52-2.49-.8-3.86-1.34-6.44,6.79-1.41,10.5-2.14,16.8-3.29,0-.12,0-.2-.06-.32C81.66,355.86,78,356.58,70.56,358.12Zm231.09-5.21-2.15-.09a.22.22,0,0,0,0,.08l2.16.1Zm44.48,21.59c-2.72-.45-4.58-.74-7.74-1.23,0,.1,0,.18,0,.27,2.72.42,4.58.72,7.74,1.25C346.1,374.68,346.12,374.6,346.13,374.5Zm1.13,8.66c.48-1.71.74-2.64,1.21-4.25l-1.72-.29c-.49,1.71-.75,2.64-1.21,4.26Zm-22.2-3.48,1.77.14c1.3-9.36,1.94-14,3.24-23.41l-3.88-.74c.35-2.63.53-4,.87-6.56l-1.77-.23-.9,6.79,3.88.74C327,365.73,326.34,370.42,325.06,379.68Zm42.76-5.34a20.73,20.73,0,0,0,6.16,4q2.24,1,5.82,2.38c7.24,3.26,7.26,3.51,6.64,6.66-.35,1.75-.72,2.64-2.05,2.87,2.92.33,3.37-.5,3.84-2.87.63-3.15.6-3.4-6.64-6.66q-3.57-1.42-5.81-2.38a20.81,20.81,0,0,1-6.17-4,5.88,5.88,0,0,1-1-2.29c-.32-2-.08-3.31.56-6.65.31-1.59.59-2.81.83-3.63.48-1.69,1.79-3.56,3.17-4a11.66,11.66,0,0,1,2.94-.47c-.56,0-1.1,0-1.62,0a11.47,11.47,0,0,0-3.12.48c-1.38.44-2.69,2.31-3.17,4-.23.82-.52,2-.82,3.63-.65,3.34-.89,4.61-.56,6.65A5.6,5.6,0,0,0,367.82,374.34Zm-59-3.47-1.75-.2c-.56,2.71-.85,4.12-1.38,6.76l1.75.19C308,374.91,308.28,373.5,308.82,370.87Zm-23.77,4.5,1.79,0,2-23.55-3.92-.53c.21-2.68.32-4.06.52-6.69l-1.79-.14c-.21,2.73-.31,4.1-.52,6.83l3.91.53C286.21,361.27,285.83,366,285.05,375.37Zm-180.68-16-1.77.19c1.52,9.19,2.29,13.87,3.81,23.12l-3.74.85,1.15,6.76,1.75-.3c-.42-2.49-.66-3.87-1.1-6.46l3.74-.85C106.67,373.34,105.9,368.67,104.37,359.35Zm105-10a5.14,5.14,0,0,1,1.21.22,3.94,3.94,0,0,1,1.2.41,4.42,4.42,0,0,1,.81,2.35c0,.89,0,1.33,0,2.22l1.8-.12c0-.8,0-1.25,0-2.1a4.42,4.42,0,0,0-.81-2.35,4.15,4.15,0,0,0-1.21-.41A8.43,8.43,0,0,0,209.33,349.4Zm-85.08,11.27,1.74-.24L124.87,356l-1.73.24C123.56,358,123.8,358.9,124.25,360.67Zm148.93-9.92,2.15,0v0h-2.15ZM258.75,343l-1.79-.08c-.12,2.74-.18,4.11-.29,6.85l4,.39c-.28,6.13-.43,9.19-.72,15.31-.17,3.72-.69,6.07-1.49,7-.63.7-2,1.08-4,1.16h.1c3,.11,4.88-.29,5.67-1.17s1.31-3.23,1.49-7c.29-6.12.43-9.18.72-15.31l-4-.39C258.58,347.05,258.64,345.67,258.75,343ZM283,375.36l-1.8,0c-.21,2.74-.31,4.1-.52,6.84,13,1,19.49,1.65,32.45,3.24l0-.22c-11.8-1.43-18.3-2.07-30.69-3C282.7,379.44,282.81,378.07,283,375.36Zm-42.57,2.08a8.62,8.62,0,0,1-1.79-3c-.88-2.55-1.13-5.19-1.13-9.67.09-6.15.13-9.23.22-15.38l-3.93-.26c0-2.74,0-4.11.06-6.84h-1.8l-.06,6.85,3.94.26c-.09,6.15-.14,9.23-.22,15.38,0,4.48.24,7.12,1.13,9.67a8.47,8.47,0,0,0,1.79,3c2.42,2.37,6.57,3.36,13.83,3.63,1.32.05,2.51.06,3.64.05-.6,0-1.2,0-1.84-.05C247,380.8,242.88,379.81,240.45,377.44Zm110.19-18.11c-2.39-.4-3.59-.59-6-1l-3.93-.4c0,.07,0,.12,0,.18l2.17.22c2.39.38,3.58.57,6,1l-.25,4.77c3.24.54,4.86.82,8.09,1.4l.06-.31c-2.19-.39-3.76-.65-6.36-1.09C350.49,362.19,350.54,361.24,350.64,359.33ZM323,379.66l-1.78-.14-.9,6.8c13,1.72,19.43,2.73,32.33,5l.06-.31C341,389,334.48,388,322.11,386.32,322.47,383.65,322.65,382.28,323,379.66Zm67.83-7.81c.48-2.16.48-3.54.05-4.08s-2-1.12-4.79-1.71c-2.93-.64-4.74-.82-5.38-.65l0,0a35.8,35.8,0,0,1,3.62.63c2.76.59,4.35,1.17,4.78,1.71s.44,1.92-.05,4.08c4.11.68,6.16,1,10.26,1.77,0-.11,0-.2.07-.31C396.33,372.77,394.31,372.43,390.83,371.85Zm-11.39,25a78.45,78.45,0,0,1-8.88-2.24c-2.36-.8-3.53-1.31-4.61-2.46a5.24,5.24,0,0,1-1.36-3.89,26.1,26.1,0,0,1,.78-6.21l-1.76-.23a27.24,27.24,0,0,0-.82,6.44,5.28,5.28,0,0,0,1.36,3.89c1.08,1.15,2.25,1.66,4.62,2.46a78.19,78.19,0,0,0,8.87,2.24,76.72,76.72,0,0,0,9,1.61,16.76,16.76,0,0,0,3.19.12c-.42,0-.86-.06-1.39-.12A76,76,0,0,1,379.44,396.85ZM212,372.47c-.56.47-2.35.74-5.41.82l-.74,0c.65,0,1.43,0,2.53,0,3.06-.08,4.85-.35,5.42-.82s.89-2.07.85-4.6c3.52-.26,5.56-.4,8.62-.59v-.1c-4.17.24-6.25.38-10.42.69C212.86,370.4,212.57,372,212,372.47Zm-51-27.36c3-.26,5.43-.39,7.22-.43-.57,0-1.15,0-1.73,0-1.8.05-4.22.17-7.28.44-7.5.65-11.25,1-18.73,1.87.31,2.72.46,4.08.76,6.81l1.79-.1c-.3-2.66-.45-4-.75-6.71C149.69,346.14,153.44,345.76,160.93,345.11Zm33.46,33.15a10.36,10.36,0,0,1-1.83-3.48,21.2,21.2,0,0,1-1.12-5.19c-.18-1.85-.33-4.41-.49-7.59s-.25-5.74-.25-7.6c0-3.67,1-7.35,2.22-8.86a7.35,7.35,0,0,1,3-2.07,16.24,16.24,0,0,1,4.72-1.15c1.68-.17,4-.3,6.86-.37,1.29,0,2.43,0,3.49-.05-1.46,0-3.22,0-5.28.05-2.9.07-5.19.2-6.87.37a16.24,16.24,0,0,0-4.72,1.15,7.49,7.49,0,0,0-3,2.07c-1.19,1.51-2.22,5.19-2.22,8.86,0,1.86.1,4.42.26,7.6s.3,5.74.48,7.59a22.17,22.17,0,0,0,1.12,5.19,10.55,10.55,0,0,0,1.83,3.48c1.27,1.4,4.41,2.46,7.62,2.56.86,0,1.89,0,3.08,0l-1.28,0C198.8,380.72,195.66,379.66,194.39,378.26Zm-47.47-24.69-1.79.1c1,9.33,1.5,14,2.5,23.4l-3.77.63c.3,2.72.45,4.09.76,6.81l1.77-.2c-.29-2.58-.44-4-.74-6.61l3.78-.63C148.42,367.67,147.92,363,146.92,353.57Zm22.7,2.25c-.14-3.21-.46-4.18-5.29-4,3.12.15,3.38,1.25,3.49,4,.1,2.4.31,3.33-2,4.22a57.69,57.69,0,0,1-7.36,1.06l0,.16,1.29-.12a59.28,59.28,0,0,0,7.85-1.1C169.93,359.15,169.71,358.22,169.62,355.82Zm-34.85,18.23c-3.19.39-4.79.6-8,1,0,1.89.06,2.83.11,4.72l-6.37.89-2,.19,0,.16,3.82-.35,6.36-.89c0-1.89-.06-2.83-.11-4.72,2.54-.34,4.08-.55,6.21-.81Zm-10.67-9.22c-3.21.44-5.09.7-7.85,1.11a2.19,2.19,0,0,1,0,.27c3.2-.48,5.08-.76,7.84-1.14C124.12,365,124.11,364.92,124.1,364.83ZM159.79,376V376l2-.07a.13.13,0,0,1,0-.06Zm19.9-1.56h0ZM160.83,368a3,3,0,0,1,2.57,1.83c2.68,4.91,4,7.37,6.61,12.3l1.73-.13c-2.56-4.84-3.89-7.31-6.55-12.17C164.24,368.24,163.51,367.81,160.83,368Z"></path><path class="cls-1" d="M82,425.21c-1.12-5.32-1.69-8-2.81-13.31l2.06-.56-.8-3.86c-4,.83-6,1.26-9.93,2.14.34,1.54.51,2.31.86,3.85l2.11-.34c.39,1.77.58,2.66,1,4.43-2.65.58-4,.88-6.62,1.49l-1-4.42,2.06-.6c-.35-1.54-.52-2.31-.87-3.84-4,.9-6,1.36-9.9,2.32.37,1.53.55,2.3.92,3.83l2.11-.38c1.27,5.29,1.9,7.94,3.16,13.23l-2,.61c.37,1.54.56,2.3.93,3.84,3.83-.93,5.75-1.38,9.6-2.25-.35-1.54-.53-2.31-.87-3.85l-2.08.35-1.15-5c2.63-.6,4-.9,6.58-1.48.45,2,.67,3,1.11,5l-2,.58c.35,1.54.52,2.31.86,3.85,3.85-.86,5.77-1.27,9.63-2.08l-.8-3.86Zm15.85-21.13c.29,1.56.43,2.33.71,3.88l1.74-.19c-.81,2-1.22,3-2,5-.26.69-.39,1-.66,1.73a17.39,17.39,0,0,0-1.2-1.39c-1.44-1.57-2.17-2.36-3.63-3.93l1.6-.39c-.29-1.55-.43-2.33-.73-3.88-3.81.72-5.71,1.09-9.51,1.86.31,1.55.47,2.32.78,3.87l1.71-.22c3.51,3.45,5.25,5.19,8.69,8.68.26,1.34.38,2,.64,3.36l-2,.51c.3,1.55.45,2.33.74,3.88,3.87-.75,5.8-1.11,9.67-1.8-.27-1.55-.41-2.33-.69-3.88l-2.08.25c-.24-1.35-.37-2-.61-3.36,2-4.51,3-6.76,5-11.26l1.58-.36c-.26-1.56-.4-2.34-.66-3.89C103.26,403.11,101.45,403.43,97.84,404.08ZM131.35,411a4.13,4.13,0,0,0-3-1.25c1.9-.92,2.2-2.12,1.82-4.92a7.83,7.83,0,0,0-1-3.62,2.49,2.49,0,0,0-1-.92,8.84,8.84,0,0,0-4.11-.33c-.87.08-2,.22-3.42.4-4,.6-6,.91-10,1.57.25,1.55.38,2.33.63,3.89l2.13-.22L115.47,419l-2,.46c.25,1.56.38,2.33.63,3.89,3.88-.63,5.82-.94,9.71-1.51a33.34,33.34,0,0,0,6.25-1.25,5.5,5.5,0,0,0,1.63-.82,3.62,3.62,0,0,0,1.08-2.81,20.47,20.47,0,0,0-.21-2.29A8.19,8.19,0,0,0,131.35,411Zm-12.29-6.3,1.58-.33c3.59-.5,3.72-.34,4,1.55.21,1.34.12,2.18-.25,2.51a9.7,9.7,0,0,1-3.53.9l-1.08.16C119.5,407.54,119.35,406.58,119.06,404.66ZM126.67,417a9.39,9.39,0,0,1-3.49.88l-.5.08-1.57.14c-.31-2-.47-3-.77-5.06l2.14-.33a15.5,15.5,0,0,1,2.79-.28,2.22,2.22,0,0,1,.79.1c.49.28.73.84.87,2S127,416.68,126.67,417Zm29.27-3.32-2.21-3.62a3.69,3.69,0,0,0-2.26-1.73c2-.4,3.29-1,3.82-1.8a6.34,6.34,0,0,0,.54-4c-.21-2.1-.38-3.18-1-4.21a2.7,2.7,0,0,0-1.08-1.07,11,11,0,0,0-4.61-.52c-1,.05-2.27.15-3.91.34-4,.45-6,.69-10.05,1.21l.5,3.91,2.13-.14c.67,5.4,1,8.1,1.68,13.5l-2.06.38.5,3.91c3.89-.49,5.84-.73,9.74-1.17l-.44-3.92-2.09.11c-.21-1.81-.31-2.72-.53-4.53l.64-.07c1.74-.2,2.14,0,2.73,1,1.55,2.79,2.32,4.18,3.85,7,2.81-.3,4.22-.44,7-.72-.15-1.57-.22-2.35-.37-3.92Zm-6.89-8.09a29.14,29.14,0,0,1-4.23.73l-.7.08c-.24-2-.36-3-.59-5l1.59-.27c4.55-.52,4.79-.21,5,2C150.18,404.53,150.31,405.06,149.05,405.6Zm21.19,6.83c-.43-5.42-.64-8.13-1.08-13.56l2.12-.29c-.12-1.57-.19-2.36-.31-3.93-4,.31-6,.48-10.07.84l.35,3.93,2.13-.06c.48,5.42.72,8.13,1.19,13.55l-2.06.31.35,3.92c3.91-.35,5.86-.51,9.77-.81l-.3-3.93ZM196,399.87a11.83,11.83,0,0,0-.64-2.9,5.27,5.27,0,0,0-1.08-1.94,7.47,7.47,0,0,0-4.64-1.43c-1,0-2.33,0-4,.08-4,.23-6.06.36-10.09.64.11,1.57.17,2.36.28,3.93l2.13,0,.9,13.57-2.07.27c.11,1.57.17,2.36.28,3.93,3.91-.27,5.86-.39,9.78-.61a26.37,26.37,0,0,0,5.25-.61,4.87,4.87,0,0,0,2.92-1.6,5.74,5.74,0,0,0,1.15-3.31,35.47,35.47,0,0,0,.08-5.82C196.15,402.28,196.06,400.89,196,399.87ZM190.5,409a3.4,3.4,0,0,1-.35,1.26,3.13,3.13,0,0,1-2,1c-.44,0-1.07.09-1.92.13h-1.68l-.8-13.58,1.6-.19h.1c1.71-.1,2.38-.17,3.2.2a2.19,2.19,0,0,1,.91.57,6.81,6.81,0,0,1,.79,3.07c.05.61.11,1.55.17,2.79s.1,2.25.11,2.83A11.13,11.13,0,0,1,190.5,409ZM210,392.75c0,1.57,0,2.36.08,3.94l2.13.08.25,13.6-2.08.17c0,1.58,0,2.36.08,3.94,4.78-.1,7.18-.13,12-.15,0-1.59,0-2.38,0-4l-4.26-.15c0-1.68,0-2.52,0-4.19,2.37,0,3.56,0,5.94,0V402c-2.39,0-3.58,0-6,0l-.06-5.37,2.13-.14,3.25,0,.3,3.08h4.42c0-2.81,0-4.21,0-7C220.84,392.56,217.21,392.59,210,392.75Zm35.8,17.94-3.54-.1-2.08-.17.3-13.6,2.12-.07.1-3.95c-4-.1-6.06-.13-10.1-.18,0,1.58,0,2.37,0,3.95l2.12.15c-.07,5.44-.11,8.16-.18,13.6l-2.09.1c0,1.58,0,2.37,0,3.94,7.14.08,10.72.16,17.86.42.12-3.2.17-4.8.29-8l-4.25-.14C246,408.26,245.94,409.07,245.76,410.69Zm28.06-15a6.78,6.78,0,0,0-4.32-2c-.93-.12-2.22-.23-3.84-.33s-3-.13-3.89-.12a9.6,9.6,0,0,0-2.71.43,4.52,4.52,0,0,0-1.86,1c-.79.81-1.46,2.83-1.68,5-.11,1.09-.2,2.54-.28,4.37s-.11,3.3-.1,4.38a14.24,14.24,0,0,0,.35,3,5.87,5.87,0,0,0,.85,2.09,7,7,0,0,0,4.28,1.86c.91.11,2.16.21,3.76.3s2.82.13,3.73.13a9.14,9.14,0,0,0,2.61-.39,4.5,4.5,0,0,0,1.8-1,9.62,9.62,0,0,0,1.8-4.92c.14-1.08.28-2.56.41-4.39s.2-3.29.21-4.38a12.7,12.7,0,0,0-.3-3A5,5,0,0,0,273.82,395.72Zm-4.68,6.95-.14,2.16c-.06.89-.08,1.33-.14,2.21a17.28,17.28,0,0,1-.43,2.83,2.72,2.72,0,0,1-.84,1.32,4.72,4.72,0,0,1-1.7.33l-2.56-.14a5.24,5.24,0,0,1-1.65-.53,2.7,2.7,0,0,1-.74-1.41,17.28,17.28,0,0,1-.08-2.86c.05-.88.07-1.32.11-2.2s.07-1.31.11-2.17a18.44,18.44,0,0,1,.38-2.88,2.67,2.67,0,0,1,.9-1.32,4.87,4.87,0,0,1,1.73-.31c.63,0,2,.1,2.61.15a4.46,4.46,0,0,1,1.67.51,2.6,2.6,0,0,1,.69,1.41A17.8,17.8,0,0,1,269.14,402.67Zm30-4.74a6.83,6.83,0,0,0-4.25-2.12c-.93-.15-2.22-.31-3.83-.46s-2.94-.24-3.88-.26a9.09,9.09,0,0,0-2.73.33,4.51,4.51,0,0,0-1.9,1c-.81.78-1.55,2.77-1.85,4.9-.15,1.08-.3,2.53-.44,4.36s-.23,3.28-.25,4.37a13.41,13.41,0,0,0,.23,3,6.05,6.05,0,0,0,.78,2.12,7,7,0,0,0,4.22,2c.9.14,2.15.28,3.74.43s2.82.24,3.73.27a8.64,8.64,0,0,0,2.62-.3,4.57,4.57,0,0,0,1.84-.9,9.58,9.58,0,0,0,2-4.85c.18-1.08.37-2.56.57-4.38s.32-3.27.37-4.36a13.51,13.51,0,0,0-.19-3A5.12,5.12,0,0,0,299.18,397.93Zm-4.93,6.77c-.09.86-.13,1.3-.22,2.16s-.13,1.32-.21,2.2a17.49,17.49,0,0,1-.54,2.82,2.64,2.64,0,0,1-.89,1.28,4.73,4.73,0,0,1-1.71.27l-2.55-.24a4.92,4.92,0,0,1-1.63-.58,2.71,2.71,0,0,1-.7-1.43,18.67,18.67,0,0,1,0-2.87c.08-.88.12-1.32.19-2.2s.12-1.29.19-2.16a18.24,18.24,0,0,1,.48-2.86,2.7,2.7,0,0,1,.95-1.29,5.12,5.12,0,0,1,1.74-.24c.63,0,2,.17,2.6.24a4.7,4.7,0,0,1,1.66.56,2.68,2.68,0,0,1,.64,1.44A17.83,17.83,0,0,1,294.25,404.7ZM324,400.6a11.19,11.19,0,0,0-4.37-1.6c-.95-.18-2.24-.39-3.88-.61-4-.51-6-.76-10.05-1.22-.18,1.57-.27,2.36-.44,3.92l2.1.37L305.75,415l-2.09-.12c-.18,1.57-.27,2.36-.44,3.92,3.89.45,5.84.69,9.74,1.19l.5-3.92-2.06-.38.57-4.53.64.08c1.73.22,2.08.52,2.42,1.59.84,3.08,1.26,4.62,2.07,7.7,2.81.38,4.21.58,7,1,.22-1.57.34-2.35.56-3.91l-2.45-.51c-.51-1.61-.77-2.42-1.29-4a3.69,3.69,0,0,0-1.79-2.22c2.05.09,3.44-.18,4.15-.83a6.28,6.28,0,0,0,1.47-3.74c.3-2.09.39-3.18,0-4.33A2.91,2.91,0,0,0,324,400.6ZM319,405.44c-.23,1.36-.23,1.91-1.58,2.14a30.6,30.6,0,0,1-4.29-.31l-.7-.09c.25-2,.38-3,.63-5l1.61.11C319.26,402.85,319.41,403.22,319,405.44Zm11.76-.95,2.09.44c-.83,5.38-1.25,8.07-2.08,13.45l-2.09-.2c-.23,1.56-.35,2.34-.59,3.9,3.89.59,5.83.9,9.71,1.54.26-1.55.39-2.33.64-3.89l-2-.46c.88-5.37,1.31-8.06,2.19-13.43l2.12.23.65-3.89c-4-.67-6-1-10-1.59C331.15,402.15,331,402.93,330.8,404.49Zm28.5,4.91,2.1.57c-.66,3.33-1,5-1.64,8.32-1.81-5.48-2.74-8.23-4.66-13.7-3.67-.68-5.51-1-9.18-1.65-.27,1.56-.41,2.33-.68,3.89l2.08.49L345,420.68l-2.11-.21-.67,3.89c3.62.63,5.43.95,9.05,1.63.29-1.56.44-2.33.73-3.88l-2.07-.54c.75-4.05,1.12-6.07,1.86-10.11,2.16,6.24,3.21,9.37,5.24,15.62,2.35.46,3.53.7,5.88,1.18L366.41,411l2.16.28.8-3.86c-3.72-.77-5.59-1.15-9.32-1.87Zm31,9.44c.55-2.27.84-3.31.6-4.55a2.86,2.86,0,0,0-.52-1.44,8.87,8.87,0,0,0-3.8-1.92c-.84-.24-2-.53-3.55-.88a20.32,20.32,0,0,0-5-.78,9.42,9.42,0,0,0-1.76.12,4.39,4.39,0,0,0-2.4,1.87,11.74,11.74,0,0,0-.83,1.85,38.82,38.82,0,0,0-1.54,5.83c-.3,1.37-.54,2.47-.69,3.35a23.11,23.11,0,0,0-.32,4.66,4.76,4.76,0,0,0,.49,1.51,4.31,4.31,0,0,0,2.37,2,12.35,12.35,0,0,0,2,.7c.7.19,1.61.43,2.72.68s2,.43,2.72.56a12.34,12.34,0,0,0,2.15.25,4.26,4.26,0,0,0,3-.69,4,4,0,0,0,1-1.09,16.09,16.09,0,0,0,1.65-4.11c.22-.8.51-1.86.83-3.15l.45-1.88c-3.6-.87-5.41-1.29-9-2.11-.34,1.52-.52,2.28-.87,3.81l3.37.78c-.52,2.08-.79,3-1.52,3.44s-1.23.35-2.84,0-2.46-.62-2.7-1.6a5.15,5.15,0,0,1,0-2.09c.14-1.13.37-2,.78-3.78l.6-2.72c.18-.63.35-1.23.57-1.79a5.37,5.37,0,0,1,.58-1.14,2.12,2.12,0,0,1,1.79-.55c.31,0,.79.14,1.42.29,1.58.36,2.5.71,2.72,1s.23,1.17-.09,2.53C386.9,418.22,388,418.42,390.26,418.84Z"></path><path class="cls-7" d="M122.37,400.32c1.41-.18,2.55-.32,3.42-.4.22,0,.43,0,.65,0a13.57,13.57,0,0,0-2.45,0c-.87.08-2,.22-3.42.4-4,.6-6,.91-10,1.57.25,1.55.38,2.33.63,3.89l1.77-.18c-.23-1.43-.36-2.22-.61-3.71C116.36,401.23,118.36,400.92,122.37,400.32Zm-7.25,5.24-1.77.18L115.47,419l-2,.46c.25,1.56.38,2.33.63,3.89l1.76-.28c-.23-1.36-.36-2.16-.59-3.61l2-.46Zm11.33.32c-.25-1.63-.4-2-2.74-1.71.65.17.78.68.94,1.71.21,1.34.12,2.18-.25,2.51a7.71,7.71,0,0,1-2.86.79c0,.09,0,.17,0,.27l1.07-.16a9.7,9.7,0,0,0,3.53-.9C126.57,408.06,126.65,407.22,126.45,405.88ZM147,410.29l-.17,0a1.78,1.78,0,0,1,1.11.95c1.55,2.79,2.32,4.18,3.85,7l1.7-.18c-1.46-2.67-2.24-4.08-3.75-6.8C149.15,410.29,148.74,410.09,147,410.29Zm-43.67,10.87a1.91,1.91,0,0,0,0,.21l.32,0,0-.21Zm54.37-7.54,0,.07.71,0v-.06Zm-59.86-9.54c.29,1.56.43,2.33.71,3.88l1.74-.19c-.81,2-1.22,3-2,5,0,.12-.07.19-.11.29l0,.05a17.39,17.39,0,0,1,1.2,1.39l.66-1.73c.8-2,1.2-3,2-5l-1.74.19c-.29-1.55-.43-2.32-.71-3.88,3-.54,4.73-.85,7.28-1.28l0-.3C103.26,403.11,101.45,403.43,97.84,404.08Zm54-.93c-.14-1.91-.36-2.42-3.2-2.21,1.17.17,1.3.82,1.41,2.21s.23,1.91-1,2.45a25,25,0,0,1-3.16.59c0,.08,0,.14,0,.22l.7-.08a29.09,29.09,0,0,0,4.24-.73C152.11,405.06,152,404.53,151.87,403.15Zm-5,11.65a.28.28,0,0,0,0,.09h.3v-.1Zm-53.17-9.61c0-.12,0-.21-.07-.33-3.81.72-5.71,1.09-9.51,1.86.31,1.55.47,2.32.78,3.87l1.71-.22.06.06-.75-3.71C89.11,406.08,91,405.71,93.72,405.19Zm34.14,7.35a2.22,2.22,0,0,0-.79-.1,8.18,8.18,0,0,0-1.18.06.71.71,0,0,1,.17,0c.49.28.73.84.87,2s.11,2.13-.26,2.46a9.39,9.39,0,0,1-3.49.88l-.3.05c0,.06,0,.11,0,.17l1.58-.14.5-.08a9.46,9.46,0,0,0,3.49-.88c.37-.33.41-1.16.26-2.46S128.35,412.82,127.86,412.54Zm9.07-14.23c4-.52,6-.76,10-1.21,1.63-.19,2.92-.29,3.88-.34a17.22,17.22,0,0,0-1.76,0c-1,.05-2.27.15-3.91.34-4,.45-6,.69-10.05,1.21l.5,3.91,1.78-.12C137.23,400.62,137.13,399.83,136.93,398.31Zm2.63,3.77-1.78.12c.66,5.31,1,8,1.67,13.38l-2.06.38.5,3.91,1.77-.22c-.18-1.41-.28-2.21-.47-3.69l2.05-.38C140.57,410.18,140.23,407.48,139.56,402.08Zm-42.44,17c-3.44-3.49-5.18-5.23-8.7-8.68l-1.59.2c3.38,3.31,5.12,5.06,8.49,8.48.26,1.34.38,2,.64,3.36l-2,.51c.3,1.55.45,2.33.74,3.88l1.74-.34c-.26-1.32-.41-2.11-.69-3.54l2-.51C97.5,421.07,97.37,420.39,97.12,419.05Zm208.64-4.18,1.79.1,1.58-13.51-2.1-.37c.17-1.49.26-2.29.43-3.71l-1.78-.21c-.18,1.57-.27,2.36-.44,3.92l2.1.37ZM83.73,425l.06.26.33,0c0-.09,0-.16-.05-.26ZM248,406.69l-1.79-.06c-.19,1.61-.28,2.42-.47,4l1.79.05C247.74,409.09,247.83,408.27,248,406.69ZM62.93,416l-1.72.31c1.21,5.08,1.84,7.74,3.08,12.92l-2,.61c.37,1.54.56,2.3.93,3.84l1.7-.41c-.31-1.26-.5-2-.83-3.43l2-.61C64.82,423.9,64.19,421.25,62.93,416Zm267.9,2.25,1.78.17c.83-5.38,1.24-8.07,2.07-13.45l-2.09-.44c.23-1.46.35-2.26.56-3.64l-1.76-.26c-.24,1.56-.36,2.34-.59,3.9l2.09.44C332.07,410.25,331.65,413,330.83,418.21Zm15.94,2.47,2.35-13.36-2.08-.49c.25-1.44.39-2.24.62-3.59l-1.74-.3c-.27,1.56-.41,2.33-.68,3.89l2.08.49c-.92,5.28-1.4,8-2.31,13.19ZM319,405.44c-.22,1.3-.26,1.85-1.44,2.09.69.05,1.2.05,1.65.05,1.36-.23,1.35-.78,1.58-2.14.38-2.22.22-2.59-4.32-3.17l-1.61-.11,0,.14C319.24,402.86,319.41,403.25,319,405.44ZM70.51,409.62c.34,1.54.51,2.31.86,3.85l1.73-.28c-.3-1.34-.48-2.13-.8-3.57,3.35-.75,5.3-1.17,8.22-1.78,0-.12,0-.23-.08-.36C76.46,408.31,74.48,408.74,70.51,409.62ZM58.1,412.51c.37,1.53.55,2.3.92,3.83l1.72-.31c-.31-1.32-.51-2.1-.85-3.52,3.34-.81,5.29-1.27,8.2-1.93l-.09-.39C64,411.09,62.05,411.55,58.1,412.51Zm19,8.87-1.71.38c.38,1.75.61,2.78,1,4.65l-2,.58c.35,1.54.52,2.31.86,3.85l1.71-.38c-.28-1.28-.46-2.07-.77-3.47l2-.58C77.76,424.4,77.53,423.39,77.09,421.38Zm-5.5,6.22a2.46,2.46,0,0,1,.07.29l.34-.06c0-.1,0-.18-.06-.29Zm3.69-14.47-1.74.28c.35,1.57.55,2.48.91,4.15-2,.44-3.27.72-4.91,1.1,0,.13,0,.24.09.39,2.64-.61,4-.91,6.62-1.49C75.86,415.79,75.67,414.9,75.28,413.13Zm292.88-1.92.41.05c0-.09,0-.15,0-.23l-.4,0C368.19,411.06,368.18,411.13,368.16,411.21Zm-37.66,7.14-1.78-.17c-.23,1.56-.35,2.34-.59,3.9,3.89.59,5.83.9,9.71,1.54,0-.1,0-.19.05-.29-2.81-.46-4.71-.76-8-1.25ZM340.39,406l.36,0,0-.19-.36,0Zm-23.56,6.77c-.34-1.07-.69-1.37-2.43-1.59l-.63-.08c0,.11,0,.19,0,.3a1.68,1.68,0,0,1,1.3,1.37c.84,3.08,1.26,4.62,2.07,7.7,2.81.38,4.21.58,7,1,0-.1,0-.17,0-.26l-5.25-.73C318.08,417.42,317.67,415.88,316.83,412.8Zm27.79,7.85-1.76-.18-.67,3.89c3.62.63,5.43.95,9.05,1.63,0-.12,0-.22.06-.33-2.56-.47-4.32-.78-7.32-1.3C344.24,422.87,344.38,422.08,344.62,420.65ZM305.45,415l-1.79-.1c-.18,1.57-.27,2.36-.44,3.92,3.89.45,5.84.69,9.74,1.19l0-.23c-2.81-.36-4.72-.58-8-1C305.19,417.24,305.28,416.45,305.45,415Zm-10-14.59a4.77,4.77,0,0,0-1.66-.56c-.6-.07-2-.2-2.6-.24a4.88,4.88,0,0,0-1,.06l1.8.18a4.7,4.7,0,0,1,1.66.56,2.68,2.68,0,0,1,.64,1.44,17.83,17.83,0,0,1,0,2.9c-.09.86-.13,1.3-.22,2.16s-.13,1.32-.21,2.2a17.49,17.49,0,0,1-.54,2.82,2.64,2.64,0,0,1-.89,1.28,4.42,4.42,0,0,1-.73.2l.82.07a4.73,4.73,0,0,0,1.71-.27,2.71,2.71,0,0,0,.89-1.28,18.86,18.86,0,0,0,.53-2.82c.09-.88.13-1.32.22-2.2s.13-1.3.21-2.16a16.75,16.75,0,0,0,0-2.9A2.67,2.67,0,0,0,295.44,400.36Zm66.34,5.51-1.73-.34-.75,3.87,2.1.57c-.39,2-.67,3.4-1,4.92.35,1,.71,2.14,1.13,3.4.65-3.33,1-5,1.64-8.32l-2.1-.57C361.37,408,361.53,407.19,361.78,405.87ZM382.55,420l-1.71-.39c-.34,1.52-.52,2.28-.87,3.81l3.37.78c-.52,2.08-.79,3-1.52,3.44a1.66,1.66,0,0,1-.31.14c1,.22,1.5.24,2.1-.14s1-1.36,1.52-3.44l-3.36-.78C382.08,422.06,382.26,421.28,382.55,420Zm3.91-2.19c.32-1.36.33-2.19.09-2.53s-1.14-.68-2.72-1c-.63-.15-1.12-.25-1.43-.29a2.22,2.22,0,0,0-1.1.13c.22,0,.46.09.73.16,1.58.36,2.5.71,2.72,1s.23,1.17-.09,2.53c2.24.39,3.36.59,5.6,1l.08-.32Zm-6.64,14c-1.11-.25-2-.49-2.73-.68a12.57,12.57,0,0,1-2-.7,4.28,4.28,0,0,1-2.37-2,4.76,4.76,0,0,1-.49-1.51,23.11,23.11,0,0,1,.32-4.66c.15-.88.39-2,.68-3.35a38.65,38.65,0,0,1,1.55-5.83,11.74,11.74,0,0,1,.83-1.85,4.35,4.35,0,0,1,2.4-1.87,6.92,6.92,0,0,1,.76-.09c-.27,0-.53,0-.8,0a9.42,9.42,0,0,0-1.76.12,4.39,4.39,0,0,0-2.4,1.87,11.74,11.74,0,0,0-.83,1.85,38.82,38.82,0,0,0-1.54,5.83c-.3,1.37-.54,2.47-.69,3.35a23.11,23.11,0,0,0-.32,4.66,4.76,4.76,0,0,0,.49,1.51,4.31,4.31,0,0,0,2.37,2,12.35,12.35,0,0,0,2,.7c.7.19,1.61.43,2.72.68s2,.43,2.72.56a12.34,12.34,0,0,0,2.15.25,9,9,0,0,0,1.34-.05,13.9,13.9,0,0,1-1.69-.2C381.83,432.28,380.93,432.1,379.82,431.85Zm-92.75-14.67a7,7,0,0,1-4.21-2,6.05,6.05,0,0,1-.78-2.12,14,14,0,0,1-.24-3c0-1.09.11-2.55.25-4.37s.3-3.28.45-4.36c.29-2.13,1-4.12,1.85-4.9a4.52,4.52,0,0,1,1.89-1,9.17,9.17,0,0,1,1.91-.29l-1,0a9.09,9.09,0,0,0-2.73.33,4.51,4.51,0,0,0-1.9,1c-.81.78-1.55,2.77-1.85,4.9-.15,1.08-.3,2.53-.44,4.36s-.23,3.28-.25,4.37a13.41,13.41,0,0,0,.23,3,6.05,6.05,0,0,0,.78,2.12,7,7,0,0,0,4.22,2c.9.14,2.15.28,3.74.43s2.82.24,3.73.27c.36,0,.7,0,1.05,0-.82,0-1.78-.12-3-.23C289.22,417.46,288,417.32,287.07,417.18Zm66.48-5.72c-.23,1.3-.43,2.38-.62,3.4,1.44,4.2,2.45,7.22,4.07,12.22,2.35.46,3.53.7,5.88,1.18,0-.12.05-.23.07-.35l-4.15-.83C356.77,420.83,355.72,417.7,353.55,411.46ZM179.73,398.23l-1.79,0c.36,5.41.54,8.13.9,13.55l-2.07.27c.11,1.57.17,2.36.28,3.93l1.78-.12c-.1-1.48-.15-2.28-.26-3.81l2.07-.27C180.28,406.37,180.1,403.66,179.73,398.23Zm-2.4-3.91c4-.28,6-.41,10.08-.64.81,0,1.54-.07,2.2-.08h0c-1,0-2.33,0-4,.08-4,.23-6.06.36-10.09.64.11,1.57.17,2.36.28,3.93l1.79,0C177.49,396.67,177.44,395.88,177.33,394.32Zm-12.15,5-1.79.05c.47,5.38.71,8.1,1.18,13.5l-2.06.31.35,3.92,1.78-.16c-.13-1.45-.2-2.25-.34-3.76l2.07-.31C165.89,407.49,165.66,404.78,165.18,399.36Zm26.94,2.16a6.92,6.92,0,0,0-.8-3.07,2.08,2.08,0,0,0-.9-.57,5.36,5.36,0,0,0-2.68-.23,3,3,0,0,1,.88.23,2.19,2.19,0,0,1,.91.57,6.81,6.81,0,0,1,.79,3.07c.05.61.11,1.55.17,2.79s.1,2.25.11,2.83a11.13,11.13,0,0,1-.1,1.87,3.4,3.4,0,0,1-.35,1.26,3.13,3.13,0,0,1-2,1c-.41,0-1,.08-1.8.13H188c.85,0,1.49-.09,1.92-.13a3.13,3.13,0,0,0,2-1,3.4,3.4,0,0,0,.35-1.26,12.3,12.3,0,0,0,.1-1.87c0-.58-.05-1.56-.11-2.83S192.16,402.13,192.12,401.52ZM214,396.77l-2.12-.08c0-1.58-.05-2.37-.09-3.94,5.24-.12,8.6-.16,12.8-.17-5.09,0-8.63,0-14.59.17,0,1.57,0,2.36.08,3.94l2.13.08.25,13.6-2.08.17c0,1.58,0,2.36.08,3.94l1.8,0c0-1.55-.05-2.34-.09-3.9l2.08-.17Zm-53.06-1.28.35,3.93,1.79-.05c-.13-1.53-.21-2.33-.35-3.88,3.39-.3,5.36-.47,8.3-.7l0-.14C166.94,395,164.93,395.13,160.9,395.49ZM172,412.4v0h.29v0Zm98.13-14a4.52,4.52,0,0,0-1.68-.51c-.59-.05-2-.13-2.6-.15a4.23,4.23,0,0,0-.69.05l1.5.1a4.46,4.46,0,0,1,1.67.51,2.6,2.6,0,0,1,.69,1.41,17.8,17.8,0,0,1,.08,2.9l-.14,2.16c-.06.89-.08,1.33-.14,2.21a17.28,17.28,0,0,1-.43,2.83,2.72,2.72,0,0,1-.84,1.32,4.53,4.53,0,0,1-1,.27l1.1.06a4.63,4.63,0,0,0,1.7-.33,2.59,2.59,0,0,0,.84-1.32,17.11,17.11,0,0,0,.44-2.83c0-.88.08-1.32.14-2.21l.13-2.16a16.91,16.91,0,0,0-.07-2.9A2.6,2.6,0,0,0,270.17,398.36Zm-50.36,3.7,4.18,0h0c-1.71,0-2.81,0-4.18,0Zm14.36,8.36,2.08-.1c.08-5.44.11-8.16.19-13.6l-2.13-.15.05-3.93-1.8,0c0,1.58,0,2.37,0,3.95l2.12.15c-.07,5.44-.11,8.16-.18,13.6l-2.09.1c0,1.58,0,2.37,0,3.94,7.14.08,10.72.16,17.86.42v-.06c-6-.21-9.55-.29-16.06-.36C234.14,412.79,234.15,412,234.17,410.42Zm28.25,5a7,7,0,0,1-4.28-1.86,6,6,0,0,1-.86-2.09,14.26,14.26,0,0,1-.34-3c0-1.08,0-2.54.1-4.38s.17-3.28.28-4.37c.22-2.13.89-4.15,1.67-5a4.58,4.58,0,0,1,1.86-1,9.42,9.42,0,0,1,2.51-.41c-.61,0-1.14,0-1.59,0a9.6,9.6,0,0,0-2.71.43,4.52,4.52,0,0,0-1.86,1c-.79.81-1.46,2.83-1.68,5-.11,1.09-.2,2.54-.28,4.37s-.11,3.3-.1,4.38a14.24,14.24,0,0,0,.35,3,5.87,5.87,0,0,0,.85,2.09,7,7,0,0,0,4.28,1.86c.91.11,2.16.21,3.76.3s2.82.13,3.73.13l.36,0c-.68,0-1.43-.05-2.29-.1C264.58,415.67,263.33,415.57,262.42,415.46Zm-39.08-18.92.3,3.07h1.79c-.12-1.22-.18-1.84-.29-3.07Zm4.72,3.07h0Z"></path><rect class="cls-4" x="215.33" y="168.89" width="19.53" height="5.09" rx="2.54"></rect><path class="cls-5" d="M264.66,111.34c-.07-.5-.17-1-.28-1.49-1.73-7.59-5.72-14.76-10.49-20.85-3.54-4.52-8.27-9.58-14.19-10.63-9.27-1.63-13.55,3.8-14.6,5.4-1-1.6-5.33-7-14.6-5.4-5.92,1-10.65,6.11-14.19,10.63-4.76,6.09-8.75,13.26-10.49,20.85-.11.49-.21,1-.28,1.49-.65,4-.38,8-.38,12V136l12.44,12-4-.81L188,167.48l10.34,10c8-26.94-6.9-45.15-6.9-45.15V119.92c12.11,4.58,28.32,4.2,28.32,4.2v31.44l5.37,5.28,5.37-5.28V124.12s16.22.38,28.32-4.2v12.39l0,0s-14.87,18.21-6.9,45.14l10.32-10-5.66-20.3-4,.81L265,136V123.33C265,119.34,265.31,115.3,264.66,111.34Z"></path><path class="cls-4" d="M190.67,166.74,195.34,150l1.56.32a50.6,50.6,0,0,1,.11,22.53Zm62.54,6.09a50.6,50.6,0,0,1,.08-22.52l1.57-.32,4.67,16.75Zm-31.07-18.28V121.66l-2.46,0h-.87c-3.72,0-16.61-.29-26.55-4L189,116.44v16.71l.54.66a37.34,37.34,0,0,1,4.09,7L187.57,135V123.33c0-.92,0-1.85,0-2.78a50.1,50.1,0,0,1,.38-8.82c.07-.51.17-1,.26-1.4,1.48-6.49,5-13.37,10-19.84,2.92-3.74,7.42-8.81,12.71-9.75a17.44,17.44,0,0,1,2.9-.26,10.82,10.82,0,0,1,9.27,4.61l2,3.07,2-3.07a10.66,10.66,0,0,1,9.27-4.61,17.44,17.44,0,0,1,2.9.26c5.29.94,9.79,6,12.72,9.75a52,52,0,0,1,10,19.89c.08.4.17.85.23,1.29a50.07,50.07,0,0,1,.39,8.88c0,.93,0,1.86,0,2.78V135l-6.07,5.85a37.65,37.65,0,0,1,4.06-7l.56-.5,0-1.09V116.44l-3.26,1.23c-9.94,3.76-22.83,4-26.55,4h-.87l-2.46,0v32.89l-3,2.91Z"></path><path class="cls-4" d="M336.27,266.47a16,16,0,0,0-11.46-6.07l-1.22-5.57a14.65,14.65,0,0,1,6.22-1.2,24.78,24.78,0,0,1,3,.18c-2.59-2.27-5.2-4-7-4-4.54,0-12.6,4.33-15.32,6l-3,1.83-1.28-3.26s-.77-1.7-1.82-1.7-3.39,1.46-6.33,5.59c-8,11.17,2,24.7,2.44,25.26l3.71,4.87-6.3-.17c-3.37,0-13.22,4.92-16.92,6.8l1.62,2.11c4.67-2.05,16.79-5.71,26.69-5.71a243.17,243.17,0,0,1,29.92,2.2C341.66,281.49,340.65,272.13,336.27,266.47Z"></path><path class="cls-1" d="M235.48,288.71a21.83,21.83,0,0,0-.9,4.61c5.4-.79,8.5-2,10.22-3.26C241.17,289.6,237.73,289.07,235.48,288.71Z"></path><path class="cls-4" d="M127,204.94l.3,5.64c.07,1.28.17,2.6.31,3.93a72,72,0,0,1,3-14.23l2.14-6,4.7,4.27a62.38,62.38,0,0,1,5,5.14l.8.92.2,1.21c1.35,8.42,2.59,19.31,2,28.62a21.75,21.75,0,0,0,6.17-6.72l6.07-10.49,1.79,12c2.42,16.12,4.79,27,7.24,33.2,3.19,8.11,12.08,13.5,24.38,14.81a106.05,106.05,0,0,0,11.1.64c10.35,0,13.62-2.23,14.24-3.26,2.24-3.72,1.93-20-2.22-40.08-.34-1.64-.55-3.05-.85-4.22l-2.36-.49a56.53,56.53,0,0,1-29.7-16.43,43.29,43.29,0,0,0-8.94-7.13l-5.94-.29c0-.05-.84-4.69-2.28-12-4.35-1.83-15.44-6-25.56-6-4.76,0-8.62.93-11.52,2.78l-1,.76a10.7,10.7,0,0,0-1.21,1l-.1.1a12.62,12.62,0,0,0-1,1.16c-2.61,3.48-4.42,9.27-5.64,15.24a10.63,10.63,0,0,1,3.56-2.25Z"></path><path class="cls-1" d="M203.27,290.56a65.58,65.58,0,0,0,14.8,3.08,22.63,22.63,0,0,0-.94-4.93C213.94,289.23,208.39,290.07,203.27,290.56Z"></path><path class="cls-1" d="M281.56,312c4.72.27,8.62.42,12,.48h1.59c7.3,0,12.16-.89,15.34-1.92-7.43-.31-18.78-1-25.06-2.59C284.61,309,283.33,310.34,281.56,312Z"></path><path class="cls-4" d="M292.5,217.25l6.06,10.49a21.75,21.75,0,0,0,6.17,6.72c-.57-9.31.67-20.2,2-28.62l.19-1.21.8-.92a64.09,64.09,0,0,1,5-5.14l4.71-4.27,2.13,6a72,72,0,0,1,3,14.23c.14-1.33.24-2.65.31-3.93l.3-5.64,5.33,1.86a10.77,10.77,0,0,1,3.57,2.25c-1.22-6-3-11.76-5.65-15.24a11.19,11.19,0,0,0-1-1.16l-.11-.1a9.89,9.89,0,0,0-1.21-1l-1-.76c-2.89-1.85-6.76-2.78-11.52-2.78-10.11,0-21.2,4.21-25.56,6-1.44,7.27-2.27,11.91-2.28,12l-5.94.29a43.29,43.29,0,0,0-8.94,7.13,56.53,56.53,0,0,1-29.7,16.43l-2.36.49c-.3,1.17-.59,2.56-.85,4.22-2.89,18.24-3.84,35.47-2.22,40.08.4,1.13,3.89,3.26,14.24,3.26a106.05,106.05,0,0,0,11.1-.64c12.3-1.31,21.19-6.7,24.38-14.81,2.45-6.22,4.82-17.08,7.24-33.2Z"></path><rect class="cls-1" x="202.03" y="133.05" width="9.94" height="2.28" rx="0.9" transform="translate(383.73 306.3) rotate(-168.71)"></rect><rect class="cls-1" x="237.83" y="133.15" width="9.94" height="2.28" rx="0.9" transform="translate(507.18 218.47) rotate(168.71)"></rect><path class="cls-5" d="M267.73,302.78c3,.34,5.21-2.33,3.56-4.91s-8.91-4-16.92-4.68-14.06,1.44-17.21,3.3c-10.37,6.12-20.7,8.49-32.72,6.56-8.8-1.41-19.06-3.36-27.17-7.21-6.13-2.91-18-10.76-25.25-10.56,0,0,11.89-15.62,2.5-28.74s-13.25-3.25-13.25-3.25-10.59-6.5-17-6.43-15.71,12-15.71,12,11-4.13,16.74-1.42c0,0-25.79.29-16.64,39.43,0,0,39-6,53.1.34l.44.2c13.67,6.64-33.46,7.41-33.46,7.41s3.88,6.15,24.16,5.81,48.84-3.9,54-2l-50.49,17.32c8.69-1.09,17.37-2.33,26-3.64,7.1-1.07,14.52-2.31,21.77-3.28,4.32-.58,8.68-.88,13-1.22v.1a2.19,2.19,0,0,1,.5-.14l1.72-.15a61.25,61.25,0,0,1,12.22,1.25c2.55.74,9.64,8.07,13,8.83s10.11,1.42,14.73-1.92,4.87-5.29,4.91-5.87-.11-1-1.26-.59-4.1,1-4.23.7.39-.71,1.85-1.2,5.06-2.16,6.26-3.83a3.18,3.18,0,0,0,.19-3.61c-.25-.19-4.61,1.06-4.95,1s-.7-.51.64-1.15,3.48-1.3,4.88-1.77a3.1,3.1,0,0,0,2.24-3.46c-.37-1.6-1.45-1.59-2.86-1.8s-4.56-.54-4.41-1.17S264.73,302.44,267.73,302.78Z"></path><path class="cls-4" d="M250.22,325.21a22.47,22.47,0,0,1-4.86-.54c-1.12-.26-4.43-2.94-6.21-4.38-3.08-2.48-4.9-3.92-6.57-4.4A64.18,64.18,0,0,0,220,314.51h-.71l-2,.16-.08,0H217l-2.15.17c-3.61.28-7.35.57-11,1.07-4.91.66-9.93,1.44-14.79,2.2l-.67.11,27.84-9.55-5.29-1.93,1.47,0c9,0,17.62-2.5,26.33-7.65a24.89,24.89,0,0,1,12.49-3c.95,0,1.91.05,2.87.13,12.75,1.16,14.54,3.21,14.61,3.29a.31.31,0,0,1,.05.1h0a3.23,3.23,0,0,1-.47.06,37.66,37.66,0,0,0-3.85-.27c-3.35,0-4.43,1.55-4.74,2.85l-.33,1.34.81,1.3c.92,1.35,2.52,1.76,5,2.12a36.25,36.25,0,0,0-3.63,1.37c-2.77,1.3-2.81,3.3-2.7,4.1a3.41,3.41,0,0,0,2.33,2.77,13.69,13.69,0,0,1-1.43.59c-1.48.49-3.08,1.21-3.73,2.75a3.32,3.32,0,0,0,.08,2.74A3.17,3.17,0,0,0,258,323l-.36.26A12.91,12.91,0,0,1,250.22,325.21Zm-98.91-17.66c-2.38,0-4.49-.09-6.36-.26,21.61-1.47,22.37-4.93,22.78-6.76.51-2.33-.88-4.31-4.14-5.89l-.53-.25c-4.67-2.09-12.13-3.16-22.15-3.16a242.4,242.4,0,0,0-29.8,2.19c-2.4-12.07-1.37-21.35,3-26.94a15.8,15.8,0,0,1,11.26-5.93l1.29-5.9a14.62,14.62,0,0,0-6.28-1.22c-.81,0-1.63,0-2.44.12,2.41-2.06,4.78-3.58,6.39-3.6,4.57,0,12.6,4.32,15.31,6l3.15,1.94,1.35-3.45h0s.73-1.6,1.66-1.6c.38,0,2.44.27,6.2,5.52,8,11.14-2.34,24.93-2.45,25.07l-3.92,5.14,6.66-.18c4.64,0,12.41,4.24,18.07,7.34,2,1.12,4,2.18,5.57,2.93,6.51,3.09,14.31,5,21.77,6.39-5,.16-11.4.61-18.11,1.08-8.67.6-18.5,1.29-26.72,1.43Z"></path></g></g></svg> 