<?xml version="1.0" encoding="UTF-8"?> <svg xmlns="http://www.w3.org/2000/svg" viewBox="0 0 118.23 118.23"><title>Asset 2-3</title><g id="Layer_2" data-name="Layer 2"><g id="Layer_1-2" data-name="Layer 1"><path d="M118.23,118.23H72.42a7.64,7.64,0,1,1,0-15.27H103V72.42a7.64,7.64,0,1,1,15.27,0Z"></path><path d="M45.82,118.23H0V72.42a7.64,7.64,0,1,1,15.27,0V103H45.82a7.64,7.64,0,0,1,0,15.27"></path><path d="M7.64,53.45A7.64,7.64,0,0,1,0,45.82V0H45.82a7.64,7.64,0,0,1,0,15.27H15.27V45.82a7.64,7.64,0,0,1-7.63,7.63"></path><path d="M110.6,53.45A7.64,7.64,0,0,1,103,45.82V15.27H72.42A7.64,7.64,0,1,1,72.42,0h45.81V45.82a7.64,7.64,0,0,1-7.63,7.63"></path><path d="M71.77,46.8l-17,39.59H53.13l-17-39.59C32.29,38,30.9,36.61,24.77,36.61V34.29H50.82v2.32c-8.46,0-9.27,2.08-6.37,8.8L56.26,72.73l11.8-27.32c3-6.83,3-8.8-6.25-8.8V34.29H83.69v2.32c-7.06,0-8.1,1.39-11.92,10.19"></path><path d="M83,54.89,75.11,65.48H83Zm8.69,18.93V75H78.47V73.82c3.88,0,4.57-1,4.57-6.2H71.87V66.47L85.65,48.23h1.5V65.48c2.55,0,3.88-.75,4.81-4.4l.29-1.16h1.21l-.52,7.7H87.15c0,5.22.76,6.2,4.58,6.2"></path></g></g></svg> 