<?xml version="1.0" encoding="UTF-8"?> <svg xmlns="http://www.w3.org/2000/svg" viewBox="0 0 410.75 186.19"><defs><style>.cls-1{opacity:0.6;}.cls-2{fill:#fff;}.cls-3{opacity:0.77;}.cls-4{fill:#4c8cca;}.cls-5{opacity:0.18;}</style></defs><g id="Layer_2" data-name="Layer 2"><g id="Layer_1-2" data-name="Layer 1"><g class="cls-1"><path class="cls-2" d="M9.67,161.26V151.5h6.09v1.16H11v2.67h4.48v1.15H11v3.63h4.8v1.15Z"></path><path class="cls-2" d="M22.78,161.26H21.27l-1.78-2.77-1.83,2.77H16.27l2.54-3.63-2.52-3.69h1.52l1.76,2.74,1.81-2.74h1.4l-2.53,3.6Z"></path><path class="cls-2" d="M26.53,161.42a4.14,4.14,0,0,1-1.39-.23,2.88,2.88,0,0,1-1.08-.7,3.4,3.4,0,0,1-.7-1.19,5.41,5.41,0,0,1-.25-1.69,4.93,4.93,0,0,1,.26-1.66,3.43,3.43,0,0,1,.69-1.18,2.86,2.86,0,0,1,1.08-.74,3.85,3.85,0,0,1,1.39-.26,4.17,4.17,0,0,1,1.16.17,7.19,7.19,0,0,1,1,.4v1.38h-.07c-.11-.09-.22-.18-.34-.26s-.31-.19-.5-.29a2.57,2.57,0,0,0-.6-.23,2.18,2.18,0,0,0-.67-.1,1.88,1.88,0,0,0-1.54.72,3.19,3.19,0,0,0-.58,2.05,3.24,3.24,0,0,0,.56,2,1.85,1.85,0,0,0,1.56.72,2.81,2.81,0,0,0,1.14-.24,3.52,3.52,0,0,0,1-.65h.07v1.39l-.46.2a4.24,4.24,0,0,1-.5.18l-.56.14A3,3,0,0,1,26.53,161.42Z"></path><path class="cls-2" d="M31.07,161.26H29.83V151.07h1.24Z"></path><path class="cls-2" d="M38.57,161.26H37.34v-.81a5.35,5.35,0,0,1-1.08.75,2.36,2.36,0,0,1-1.14.26,2.51,2.51,0,0,1-.9-.16,1.92,1.92,0,0,1-.74-.49A2.56,2.56,0,0,1,33,160a4.12,4.12,0,0,1-.17-1.26V154h1.23v4.17a8.37,8.37,0,0,0,0,1,1.77,1.77,0,0,0,.19.68,1,1,0,0,0,.41.41,1.7,1.7,0,0,0,.74.13,2.07,2.07,0,0,0,1-.26,4.5,4.5,0,0,0,.94-.62V154h1.23Z"></path><path class="cls-2" d="M42.33,161.44a4.88,4.88,0,0,1-1.37-.2,6.5,6.5,0,0,1-1.06-.42v-1.38H40l.37.27a4,4,0,0,0,.57.32,5.13,5.13,0,0,0,.69.25,2.58,2.58,0,0,0,.78.11,3.36,3.36,0,0,0,.63-.06,1.5,1.5,0,0,0,.5-.18.82.82,0,0,0,.43-.83.86.86,0,0,0-.24-.66,1.91,1.91,0,0,0-.85-.37l-.62-.14-.7-.17a2.21,2.21,0,0,1-1.21-.75,2.15,2.15,0,0,1,.36-2.84,3,3,0,0,1,2-.63,5,5,0,0,1,1.22.16,3.9,3.9,0,0,1,1,.38v1.31h-.07a3.88,3.88,0,0,0-1-.59,3.32,3.32,0,0,0-1.17-.21,1.93,1.93,0,0,0-1,.25.83.83,0,0,0-.42.78.9.9,0,0,0,.25.68,2,2,0,0,0,.8.37l.61.14.71.16a2.29,2.29,0,0,1,1.23.68,1.91,1.91,0,0,1,.41,1.28A2.3,2.3,0,0,1,45,160a1.88,1.88,0,0,1-.55.73,2.8,2.8,0,0,1-.89.5A4.29,4.29,0,0,1,42.33,161.44Z"></path><path class="cls-2" d="M47.68,152.72h-1.4v-1.28h1.4Zm-.08,8.54H46.37v-7.32H47.6Z"></path><path class="cls-2" d="M55.43,157.6a4.16,4.16,0,0,1-.89,2.86,3,3,0,0,1-2.37,1,2.93,2.93,0,0,1-2.4-1,5,5,0,0,1,0-5.67,3.3,3.3,0,0,1,4.67-.08l.08.08A4.2,4.2,0,0,1,55.43,157.6Zm-1.27,0a3.56,3.56,0,0,0-.52-2.11,1.93,1.93,0,0,0-2.71-.29,2,2,0,0,0-.29.29,4.52,4.52,0,0,0,0,4.2,1.75,1.75,0,0,0,1.49.71,1.7,1.7,0,0,0,1.47-.7A3.54,3.54,0,0,0,54.16,157.6Z"></path><path class="cls-2" d="M62.44,161.26H61.21v-4.17a7.4,7.4,0,0,0-.05-.94,2.07,2.07,0,0,0-.18-.69.88.88,0,0,0-.42-.41,1.71,1.71,0,0,0-.74-.14,1.94,1.94,0,0,0-.94.25,4.36,4.36,0,0,0-1,.64v5.46H56.69v-7.32h1.23v.81A5.35,5.35,0,0,1,59,154a2.6,2.6,0,0,1,1.13-.26,2.13,2.13,0,0,1,1.69.71,3,3,0,0,1,.61,2.06Z"></path><path class="cls-2" d="M66.15,161.44a4.88,4.88,0,0,1-1.37-.2,6.5,6.5,0,0,1-1.06-.42v-1.38h.07l.37.27a3.86,3.86,0,0,0,.56.32,5.13,5.13,0,0,0,.69.25,2.65,2.65,0,0,0,.79.11,3.36,3.36,0,0,0,.63-.06,1.45,1.45,0,0,0,.49-.18.92.92,0,0,0,.33-.32,1,1,0,0,0,.11-.51.86.86,0,0,0-.24-.66,2,2,0,0,0-.85-.37l-.62-.14-.7-.17a2.2,2.2,0,0,1-1.22-.75,2,2,0,0,1-.38-1.23,2,2,0,0,1,.75-1.61,3,3,0,0,1,2-.63,5.12,5.12,0,0,1,1.23.16,3.9,3.9,0,0,1,1,.38v1.31h-.06a3.88,3.88,0,0,0-1-.59,3.32,3.32,0,0,0-1.17-.21,1.93,1.93,0,0,0-1,.25.83.83,0,0,0-.42.78.87.87,0,0,0,.25.68,2,2,0,0,0,.8.37l.61.14.71.16a2.26,2.26,0,0,1,1.22.68,1.86,1.86,0,0,1,.41,1.28,2.25,2.25,0,0,1-.18.89,2,2,0,0,1-.55.73,2.8,2.8,0,0,1-.89.5A4.12,4.12,0,0,1,66.15,161.44Z"></path><path class="cls-2" d="M73.4,161.26l3.28-9.76h1.6l3.29,9.76H80.2l-.88-2.73H75.59l-.88,2.73Zm5.6-3.83-1.51-4.6-1.5,4.6Z"></path><path class="cls-2" d="M88.53,157.41a4.47,4.47,0,0,1-.87,2.91,2.72,2.72,0,0,1-2.21,1.08,3.38,3.38,0,0,1-1-.12,3.5,3.5,0,0,1-.86-.39V164H82.4V154h1.23v.77a4.05,4.05,0,0,1,1-.69,2.6,2.6,0,0,1,1.22-.28,2.27,2.27,0,0,1,2,1A4.6,4.6,0,0,1,88.53,157.41Zm-1.27.13a3.83,3.83,0,0,0-.4-1.94,1.36,1.36,0,0,0-1.29-.69,2.44,2.44,0,0,0-1,.23,4.69,4.69,0,0,0-.92.6v4.15a4,4,0,0,0,.83.32,3.48,3.48,0,0,0,.79.09,1.75,1.75,0,0,0,1.48-.71,3.3,3.3,0,0,0,.51-2.05Z"></path><path class="cls-2" d="M96,157.41a4.42,4.42,0,0,1-.88,2.91,2.72,2.72,0,0,1-2.21,1.08,3.38,3.38,0,0,1-1-.12,3.5,3.5,0,0,1-.86-.39V164H89.81V154H91v.77a4.25,4.25,0,0,1,1-.69,2.73,2.73,0,0,1,1.22-.28,2.27,2.27,0,0,1,2,1A4.57,4.57,0,0,1,96,157.41Zm-1.27.13a3.83,3.83,0,0,0-.4-1.94,1.39,1.39,0,0,0-1.3-.69,2.29,2.29,0,0,0-1,.23,5.09,5.09,0,0,0-.93.6v4.15a4.91,4.91,0,0,0,.83.32,3.48,3.48,0,0,0,.79.09,1.78,1.78,0,0,0,1.49-.71,3.35,3.35,0,0,0,.47-2.05Z"></path><path class="cls-2" d="M98.48,161.26H97.25V151.07h1.23Z"></path><path class="cls-2" d="M106,153.94l-3.93,10h-1.32l1.31-3.05-2.66-7h1.33l2,5.42,2-5.42Z"></path></g><g class="cls-3"><rect class="cls-4" width="410.41" height="184.78"></rect></g><g class="cls-5"><path class="cls-2" d="M361.17,136.34a25.07,25.07,0,0,0-17.71,7.32,24.61,24.61,0,0,0-.42,34.8l.42.42a24.8,24.8,0,1,0,17.71-42.54Zm0,38.78a13.85,13.85,0,1,1,0-27.7h0a13.85,13.85,0,0,1,0,27.7Zm6.42-121.8a5.43,5.43,0,0,0-3.71-1.44H335.49A5.55,5.55,0,0,0,330,57.42v45.42a5.55,5.55,0,0,0,5.53,5.53h45.05a5.55,5.55,0,0,0,5.53-5.53V72.43a5.54,5.54,0,0,0-1.83-4.1Zm7.41,44H341V62.9h20.7L375,74.9Zm-149,39a25.07,25.07,0,0,0-17.71,7.32,24.61,24.61,0,0,0-.42,34.8l.42.42A24.8,24.8,0,1,0,226,136.34Zm0,38.78a13.85,13.85,0,1,1,0-27.7h0a13.85,13.85,0,0,1,0,27.7Zm-36.91-32H178V128.42a5.53,5.53,0,0,0-11.06,0V148.7a5.55,5.55,0,0,0,5.53,5.53h16.66a5.54,5.54,0,0,0,0-11.07Zm28-30.19a5.56,5.56,0,0,0-5.53-5.54H144.51a5.54,5.54,0,1,0,0,11.08h67.13a5.51,5.51,0,0,0,5.53-5.45ZM155.75,93l67.12.39a5.59,5.59,0,0,0,5.59-5.49,5.47,5.47,0,0,0-5.33-5.61H223l-67.13-.39h-.06a5.55,5.55,0,1,0-.06,11.1ZM167,67.83h67.12a5.54,5.54,0,1,0,.47-11.07H167a5.54,5.54,0,0,0-.47,11.07A3.69,3.69,0,0,0,167,67.83Zm241.7-7.47h0L369.08,27.51a5.45,5.45,0,0,0-3.54-1.27h-46.6V6.3A5.56,5.56,0,0,0,313.41.76h-141a5.56,5.56,0,0,0-5.53,5.54V46.84a5.53,5.53,0,0,0,11.06,0h0v-35h130V143.16H262.55a5.54,5.54,0,0,0,0,11.07h67.57a5.54,5.54,0,1,0,.47-11.07H319V37.31h44.6l36.08,29.91-.38,75.83h-5.76a5.54,5.54,0,0,0,0,11.07h11.23a5.5,5.5,0,0,0,5.54-5.46v0l.44-84A5.81,5.81,0,0,0,408.7,60.36Z"></path></g><path class="cls-2" d="M45.66,37.7H33.37v5.53h11.3v5.59H33.37V61.41H26.05V32.11H45.66Z"></path><path class="cls-2" d="M63.89,45.83h-.58a5.46,5.46,0,0,0-1.14-.21c-.49,0-1.05-.07-1.65-.07a9.14,9.14,0,0,0-2.27.32,23.92,23.92,0,0,0-2.31.75V61.41H49.06V39.31h6.88v3.17c.32-.29.75-.65,1.31-1.09a12.85,12.85,0,0,1,1.52-1,9.07,9.07,0,0,1,1.74-.78,5.76,5.76,0,0,1,1.88-.32h.75l.75.06Z"></path><path class="cls-2" d="M77.83,62q-6.26,0-9.59-3t-3.33-8.52A11.93,11.93,0,0,1,68,41.85c2.07-2.15,5-3.23,8.69-3.23,3.38,0,5.92.92,7.63,2.74s2.55,4.44,2.55,7.83v2.48H71.81a6.22,6.22,0,0,0,.65,2.57,4.49,4.49,0,0,0,1.45,1.64,6,6,0,0,0,2.07.88,11.11,11.11,0,0,0,2.57.27,10.42,10.42,0,0,0,2.36-.27,11.54,11.54,0,0,0,2.13-.7c.53-.24,1-.51,1.56-.8s.87-.55,1.17-.77h.73v5.69L85,60.8a14,14,0,0,1-1.91.58,19.07,19.07,0,0,1-5.21.63Zm2.28-14.49a5.3,5.3,0,0,0-1-3.33A3.57,3.57,0,0,0,76.19,43,4.09,4.09,0,0,0,73,44.25a5,5,0,0,0-1.25,3.27Z"></path><path class="cls-2" d="M101.74,62q-6.26,0-9.59-3t-3.33-8.52a11.91,11.91,0,0,1,3.11-8.64c2.07-2.15,5-3.23,8.69-3.23,3.38,0,5.92.92,7.63,2.74s2.55,4.44,2.55,7.83v2.48H95.72a6.22,6.22,0,0,0,.65,2.57,4.35,4.35,0,0,0,1.46,1.64,5.9,5.9,0,0,0,2.06.88,11.2,11.2,0,0,0,2.58.27,10.42,10.42,0,0,0,2.36-.27,11.21,11.21,0,0,0,2.12-.7c.53-.24,1-.51,1.56-.8s.87-.55,1.17-.77h.73v5.69l-1.54.62a14.6,14.6,0,0,1-1.92.58A19.07,19.07,0,0,1,101.74,62ZM104,47.52a5.36,5.36,0,0,0-1-3.33,3.57,3.57,0,0,0-2.92-1.14A4.11,4.11,0,0,0,97,44.25a5,5,0,0,0-1.25,3.27Z"></path><path class="cls-2" d="M152.69,46.79a14.87,14.87,0,0,1-1.79,7.33,13.26,13.26,0,0,1-4.52,5,12.7,12.7,0,0,1-5,1.9,36.4,36.4,0,0,1-5.71.42H126.5V32.11h9.09a39.9,39.9,0,0,1,5.78.39,12.71,12.71,0,0,1,5,1.91,13.24,13.24,0,0,1,4.57,5A15.64,15.64,0,0,1,152.69,46.79Zm-7.55-.06a11.12,11.12,0,0,0-1-4.95,7.17,7.17,0,0,0-3-3.21,7,7,0,0,0-3.14-.91c-1.1,0-2.4-.08-3.92-.08h-.14V55.92H134c1.65,0,3,0,4.18-.08a6.56,6.56,0,0,0,3.23-1.06,7.24,7.24,0,0,0,2.75-3.15A11.46,11.46,0,0,0,145.14,46.73Z"></path><path class="cls-2" d="M168,62q-6.25,0-9.59-3c-2.23-2-3.36-4.84-3.41-8.51a11.94,11.94,0,0,1,3.1-8.64c2.08-2.15,5-3.23,8.7-3.23,3.38,0,5.92.92,7.63,2.74S177,45.8,177,49.19v2.48H161.93a6.22,6.22,0,0,0,.65,2.57A4.41,4.41,0,0,0,164,55.88a6,6,0,0,0,2.07.88,11.11,11.11,0,0,0,2.57.27,10.42,10.42,0,0,0,2.36-.27,11.54,11.54,0,0,0,2.13-.7c.53-.24,1.05-.51,1.56-.8s.87-.55,1.17-.77h.73v5.69L175,60.8a14,14,0,0,1-1.91.58A18.87,18.87,0,0,1,168,62Zm2.28-14.49a5.3,5.3,0,0,0-1-3.33A3.57,3.57,0,0,0,166.36,43a4.06,4.06,0,0,0-3.13,1.2A5,5,0,0,0,162,47.51Z"></path><path class="cls-2" d="M187.43,61.41h-6.88V30.79h6.88Z"></path><path class="cls-2" d="M199.78,36.17h-7.27V30.79h7.27Zm-.19,25.24H192.7V39.31h6.89Z"></path><path class="cls-2" d="M225.52,39.31l-7.92,22.1h-7.51l-7.87-22.1h7.24L214,53.94l4.46-14.63Z"></path><path class="cls-2" d="M239.46,62q-6.26,0-9.58-3c-2.22-2-3.34-4.83-3.34-8.52a11.91,11.91,0,0,1,3.11-8.64c2.07-2.15,5-3.23,8.69-3.23,3.38,0,5.93.92,7.63,2.74s2.56,4.44,2.56,7.83v2.48H233.45a6.22,6.22,0,0,0,.65,2.57,4.41,4.41,0,0,0,1.45,1.64,6,6,0,0,0,2.07.88,11.11,11.11,0,0,0,2.57.27,10.42,10.42,0,0,0,2.36-.27,11.21,11.21,0,0,0,2.12-.7,15.44,15.44,0,0,0,1.57-.8c.48-.29.87-.55,1.17-.77h.73v5.69l-1.55.62a14.6,14.6,0,0,1-1.92.58,20.08,20.08,0,0,1-2.31.46A21.6,21.6,0,0,1,239.46,62Zm2.28-14.49a5.22,5.22,0,0,0-1-3.33A3.57,3.57,0,0,0,237.82,43a4.06,4.06,0,0,0-3.13,1.2,5,5,0,0,0-1.25,3.27Z"></path><path class="cls-2" d="M266.9,45.83h-.58a5.46,5.46,0,0,0-1.14-.21c-.49,0-1.05-.07-1.65-.07a9.14,9.14,0,0,0-2.27.32,23.92,23.92,0,0,0-2.31.75V61.41h-6.88V39.31H259v3.17c.32-.29.75-.65,1.31-1.09a12.85,12.85,0,0,1,1.52-1,9.07,9.07,0,0,1,1.74-.78,5.76,5.76,0,0,1,1.88-.32h.75l.75.06Z"></path><path class="cls-2" d="M290.14,39.31,279,69.52h-7.4L275,60.88l-8.1-21.57h7.23l4.64,13.86,4.35-13.86Z"></path><path class="cls-2" d="M47.22,89.55l-5,19.8h-3l-4-16.44-3.93,16.44h-2.9l-5.06-19.8H26L30,106l4-16.46H36.7l4,16.62,4-16.62Z"></path><path class="cls-2" d="M61,109.35H58.5v-8.46A17.33,17.33,0,0,0,58.4,99,4.16,4.16,0,0,0,58,97.56a2,2,0,0,0-.85-.83,3.46,3.46,0,0,0-1.49-.27,4.28,4.28,0,0,0-1.92.5,9.61,9.61,0,0,0-1.93,1.3v11.09h-2.5V88.66h2.5v7.48A10.19,10.19,0,0,1,54,94.61a5.24,5.24,0,0,1,2.3-.53,4.27,4.27,0,0,1,3.43,1.44A6.29,6.29,0,0,1,61,99.71Z"></path><path class="cls-2" d="M71,109.69a7.35,7.35,0,0,1-5.51-2,7.75,7.75,0,0,1-2-5.68,8.41,8.41,0,0,1,1.9-5.78,6.35,6.35,0,0,1,5-2.15,6.76,6.76,0,0,1,2.44.4,5,5,0,0,1,1.87,1.25,5.83,5.83,0,0,1,1.22,2.08,9.51,9.51,0,0,1,.42,3v1.36H66.06a5.51,5.51,0,0,0,1.3,4,4.7,4.7,0,0,0,3.6,1.37,7.31,7.31,0,0,0,1.62-.18,8.79,8.79,0,0,0,1.42-.48,10.4,10.4,0,0,0,1.15-.59c.31-.2.56-.38.77-.54h.14v2.72L75,108.9a9.53,9.53,0,0,1-1.17.41c-.48.13-.92.23-1.32.31A9.17,9.17,0,0,1,71,109.69Zm2.92-9.43a7.3,7.3,0,0,0-.24-1.74,3.3,3.3,0,0,0-.61-1.23A2.79,2.79,0,0,0,72,96.43a5,5,0,0,0-3.39,0,4.1,4.1,0,0,0-1.27.87,4.3,4.3,0,0,0-.85,1.3,5.49,5.49,0,0,0-.37,1.65Z"></path><path class="cls-2" d="M90.53,109.35H88v-8.46A17.33,17.33,0,0,0,87.9,99a4.14,4.14,0,0,0-.37-1.42,2.12,2.12,0,0,0-.85-.83,3.46,3.46,0,0,0-1.49-.27,4.28,4.28,0,0,0-1.92.5,9.4,9.4,0,0,0-1.94,1.3v11.09H78.87V94.49h2.49v1.65a10.5,10.5,0,0,1,2.21-1.53,5.24,5.24,0,0,1,2.3-.53,4.27,4.27,0,0,1,3.43,1.44,6.3,6.3,0,0,1,1.23,4.19Z"></path><path class="cls-2" d="M114.21,94.49l-8,20.34h-2.67l2.66-6.2-5.39-14.14h2.69l4.06,11,4-11Z"></path><path class="cls-2" d="M128.09,101.93a8.46,8.46,0,0,1-1.8,5.79,6.14,6.14,0,0,1-4.81,2,6,6,0,0,1-4.87-2.11,8.55,8.55,0,0,1-1.78-5.72,8.43,8.43,0,0,1,1.83-5.79,6.66,6.66,0,0,1,9.42-.21l.21.21A8.51,8.51,0,0,1,128.09,101.93Zm-2.57,0a7.1,7.1,0,0,0-1-4.29,3.9,3.9,0,0,0-5.51-.49,3.78,3.78,0,0,0-.49.49,9.09,9.09,0,0,0,0,8.52,3.86,3.86,0,0,0,6,0A7.2,7.2,0,0,0,125.52,101.93Z"></path><path class="cls-2" d="M142.22,109.35h-2.5V107.7a11,11,0,0,1-2.19,1.53,5.06,5.06,0,0,1-2.32.53,5.37,5.37,0,0,1-1.82-.32,3.81,3.81,0,0,1-1.5-1,4.88,4.88,0,0,1-1-1.74,8.2,8.2,0,0,1-.35-2.56V94.49H133V103a14.89,14.89,0,0,0,.08,2,3.86,3.86,0,0,0,.4,1.37,1.85,1.85,0,0,0,.83.83,3.36,3.36,0,0,0,1.5.27,4.35,4.35,0,0,0,2-.52,8.68,8.68,0,0,0,1.9-1.28V94.49h2.5Z"></path><path class="cls-2" d="M158.35,109.71a9.8,9.8,0,0,1-2.79-.4,12.72,12.72,0,0,1-2.14-.85v-2.81h.13c.21.17.46.35.75.56a7.18,7.18,0,0,0,1.15.64,13.82,13.82,0,0,0,1.4.52,5.7,5.7,0,0,0,1.59.22,6,6,0,0,0,1.27-.14,3,3,0,0,0,1-.35,2.22,2.22,0,0,0,.68-.65,2.16,2.16,0,0,0,.2-1,1.76,1.76,0,0,0-.48-1.34,3.88,3.88,0,0,0-1.72-.76l-1.25-.28c-.52-.11-1-.22-1.42-.35a4.52,4.52,0,0,1-2.48-1.52,4.33,4.33,0,0,1,.76-5.8,6.14,6.14,0,0,1,4-1.27,10.42,10.42,0,0,1,2.49.31,8.27,8.27,0,0,1,2.1.77v2.67h-.14a7.56,7.56,0,0,0-2.13-1.19,6.64,6.64,0,0,0-2.37-.44,4,4,0,0,0-2.09.52,1.73,1.73,0,0,0-.85,1.57,1.79,1.79,0,0,0,.51,1.39,4.07,4.07,0,0,0,1.62.75c.37.1.79.19,1.24.28s.94.2,1.44.33a4.61,4.61,0,0,1,2.48,1.37,3.81,3.81,0,0,1,.83,2.6,4.22,4.22,0,0,1-.38,1.82,4,4,0,0,1-1.11,1.47,5.58,5.58,0,0,1-1.8,1A7.78,7.78,0,0,1,158.35,109.71Z"></path><path class="cls-2" d="M178.93,101.53a9.15,9.15,0,0,1-1.78,5.91,5.49,5.49,0,0,1-4.48,2.2,7.15,7.15,0,0,1-1.95-.25,7.64,7.64,0,0,1-1.75-.79v6.23h-2.49V94.49H169v1.56a9.09,9.09,0,0,1,2.07-1.4,5.47,5.47,0,0,1,2.48-.57,4.63,4.63,0,0,1,4,2A9.25,9.25,0,0,1,178.93,101.53Zm-2.58.28a8,8,0,0,0-.81-4,2.83,2.83,0,0,0-2.63-1.4,4.74,4.74,0,0,0-2.06.47A9.06,9.06,0,0,0,169,98.15v8.42a9.36,9.36,0,0,0,1.69.65,6.59,6.59,0,0,0,1.6.17,3.56,3.56,0,0,0,3-1.42,6.87,6.87,0,0,0,1.06-4.16Z"></path><path class="cls-2" d="M188,109.69a7.35,7.35,0,0,1-5.51-2,7.81,7.81,0,0,1-2-5.68,8.41,8.41,0,0,1,1.9-5.78,6.35,6.35,0,0,1,5-2.15,6.85,6.85,0,0,1,2.45.4,4.82,4.82,0,0,1,1.86,1.25,5.69,5.69,0,0,1,1.22,2.08,9.24,9.24,0,0,1,.43,3v1.36H183a5.55,5.55,0,0,0,1.3,4,4.7,4.7,0,0,0,3.6,1.37,7.31,7.31,0,0,0,1.62-.18,8.9,8.9,0,0,0,1.43-.48,12.29,12.29,0,0,0,1.14-.59c.31-.2.57-.38.77-.54H193v2.72l-1.09.43a11.56,11.56,0,0,1-1.17.41c-.49.13-.93.23-1.32.31A9.65,9.65,0,0,1,188,109.69Zm2.92-9.43a6.41,6.41,0,0,0-.24-1.74,3.3,3.3,0,0,0-.61-1.23,2.71,2.71,0,0,0-1.12-.86,4.43,4.43,0,0,0-1.69-.29,4.3,4.3,0,0,0-1.7.3,4.1,4.1,0,0,0-1.27.87,4.3,4.3,0,0,0-.85,1.3,5.89,5.89,0,0,0-.37,1.65Z"></path><path class="cls-2" d="M207.5,109.35H205v-8.46a17.33,17.33,0,0,0-.1-1.91,4.16,4.16,0,0,0-.38-1.42,2,2,0,0,0-.85-.83,3.46,3.46,0,0,0-1.49-.27,4.28,4.28,0,0,0-1.92.5,9.61,9.61,0,0,0-1.93,1.3v11.09h-2.5V94.49h2.5v1.65a10.19,10.19,0,0,1,2.2-1.53,5.24,5.24,0,0,1,2.3-.53,4.27,4.27,0,0,1,3.43,1.44,6.3,6.3,0,0,1,1.23,4.19Z"></path><path class="cls-2" d="M222.44,109.35h-2.5v-1.52c-.39.33-.72.6-1,.81a6,6,0,0,1-2.11,1,5.42,5.42,0,0,1-1.33.14,5,5,0,0,1-2.24-.51,4.76,4.76,0,0,1-1.74-1.47,7.1,7.1,0,0,1-1.13-2.43A12.59,12.59,0,0,1,210,102a10.2,10.2,0,0,1,.51-3.38,7.93,7.93,0,0,1,1.39-2.49,5.87,5.87,0,0,1,2-1.53,5.59,5.59,0,0,1,2.41-.55,6.67,6.67,0,0,1,1.94.25,8.42,8.42,0,0,1,1.74.76v-6.4h2.5Zm-2.5-3.62V97.17a8.2,8.2,0,0,0-1.67-.63,7.19,7.19,0,0,0-1.6-.17,3.54,3.54,0,0,0-3,1.44,6.77,6.77,0,0,0-1.09,4.17,7.93,7.93,0,0,0,.83,4,2.89,2.89,0,0,0,2.69,1.39,4.79,4.79,0,0,0,2-.45A7.44,7.44,0,0,0,219.94,105.73Z"></path><path class="cls-2" d="M246.77,101.93a8.46,8.46,0,0,1-1.81,5.79,6.14,6.14,0,0,1-4.81,2,6,6,0,0,1-4.87-2.11,8.59,8.59,0,0,1-1.77-5.72,8.47,8.47,0,0,1,1.82-5.79,6.66,6.66,0,0,1,9.42-.21l.21.21A8.52,8.52,0,0,1,246.77,101.93Zm-2.58,0a7.1,7.1,0,0,0-1.05-4.29,3.9,3.9,0,0,0-5.51-.49,3.78,3.78,0,0,0-.49.49,9.11,9.11,0,0,0,0,8.52,3.86,3.86,0,0,0,6,0A7.06,7.06,0,0,0,244.19,101.93Z"></path><path class="cls-2" d="M260.84,94.49l-5.6,14.86H253l-5.56-14.86h2.7L254.21,106l4-11.47Z"></path><path class="cls-2" d="M269,109.69a7.31,7.31,0,0,1-5.5-2,7.75,7.75,0,0,1-2-5.68,8.41,8.41,0,0,1,1.9-5.78,6.28,6.28,0,0,1,5-2.15,6.76,6.76,0,0,1,2.44.4,4.82,4.82,0,0,1,1.86,1.25,5.69,5.69,0,0,1,1.22,2.08,9,9,0,0,1,.43,3v1.36H264a5.51,5.51,0,0,0,1.3,4,4.7,4.7,0,0,0,3.6,1.37,7.29,7.29,0,0,0,1.61-.18,8.9,8.9,0,0,0,1.43-.48,12.29,12.29,0,0,0,1.14-.59c.31-.2.57-.38.77-.54H274v2.72l-1.09.43a9.53,9.53,0,0,1-1.17.41c-.49.13-.93.23-1.32.31A9.65,9.65,0,0,1,269,109.69Zm2.93-9.43a7.3,7.3,0,0,0-.24-1.74,3.55,3.55,0,0,0-.61-1.23,2.89,2.89,0,0,0-1.13-.86,5,5,0,0,0-3.38,0,4,4,0,0,0-1.27.87,4.18,4.18,0,0,0-.85,1.3,5.2,5.2,0,0,0-.37,1.65Z"></path><path class="cls-2" d="M284.7,97.18h-.13a3.13,3.13,0,0,0-.6-.1h-.75a5.11,5.11,0,0,0-2,.44,6.64,6.64,0,0,0-1.89,1.3v10.55h-2.5V94.49h2.5V96.7a11.16,11.16,0,0,1,2.39-1.7,4.49,4.49,0,0,1,2-.5h.58l.43.06Z"></path><g class="cls-1"><path class="cls-2" d="M163.41,175.33v-9.19h5.75v1.08h-4.53v2.51h4.22v1.08h-4.22v3.42h4.53v1.08Z"></path><path class="cls-2" d="M175.77,175.33h-1.42l-1.68-2.61L171,175.33h-1.32l2.4-3.42-2.38-3.48h1.43l1.66,2.59,1.7-2.59h1.33l-2.38,3.4Z"></path><path class="cls-2" d="M179.3,175.48a3.64,3.64,0,0,1-1.31-.21,2.75,2.75,0,0,1-1-.67,3,3,0,0,1-.66-1.08,4.76,4.76,0,0,1-.24-1.59,4.69,4.69,0,0,1,.25-1.57,3.5,3.5,0,0,1,.65-1.08,2.72,2.72,0,0,1,1-.69,3.67,3.67,0,0,1,1.31-.25,3.91,3.91,0,0,1,1.07.16,5.93,5.93,0,0,1,.94.37v1.31h0l-.32-.24a4.48,4.48,0,0,0-.47-.28,3.54,3.54,0,0,0-.57-.22,2.16,2.16,0,0,0-.62-.09,1.77,1.77,0,0,0-1.46.69,3.73,3.73,0,0,0,0,3.84,1.75,1.75,0,0,0,1.47.67,2.39,2.39,0,0,0,1.08-.23,3.27,3.27,0,0,0,.89-.63h0V175l-.43.19a4.28,4.28,0,0,1-.46.17l-.54.13A2.7,2.7,0,0,1,179.3,175.48Z"></path><path class="cls-2" d="M183.58,175.33h-1.2v-9.62h1.16Z"></path><path class="cls-2" d="M190.65,175.33H189.5v-.76a5.71,5.71,0,0,1-1,.71,2.48,2.48,0,0,1-1.08.25,2.72,2.72,0,0,1-.84-.16,1.77,1.77,0,0,1-.7-.47,2.09,2.09,0,0,1-.45-.81,3.65,3.65,0,0,1-.17-1.19v-4.47h1.16v3.92a7.06,7.06,0,0,0,0,.92,1.8,1.8,0,0,0,.18.64,1,1,0,0,0,.38.39,2.08,2.08,0,0,0,1.62-.12,4,4,0,0,0,.88-.6v-5.15h1.16Z"></path><path class="cls-2" d="M194.24,175.5a4,4,0,0,1-1.29-.19,6.2,6.2,0,0,1-1-.39v-1.3H192l.36.26a3.29,3.29,0,0,0,.52.29,5.07,5.07,0,0,0,.65.24,2.66,2.66,0,0,0,.75.1,3,3,0,0,0,.59-.06,1.28,1.28,0,0,0,.46-.17.75.75,0,0,0,.31-.3.89.89,0,0,0,.1-.48.8.8,0,0,0-.22-.62,1.85,1.85,0,0,0-.8-.35l-.59-.13-.65-.16a2.12,2.12,0,0,1-1.15-.72,1.75,1.75,0,0,1-.36-1.15,1.85,1.85,0,0,1,.71-1.52,2.84,2.84,0,0,1,1.86-.59,4.56,4.56,0,0,1,1.16.15,3.82,3.82,0,0,1,1,.35V170h-.06a3.75,3.75,0,0,0-1-.55,3,3,0,0,0-1.08-.2,1.77,1.77,0,0,0-1,.24.77.77,0,0,0-.39.73.8.8,0,0,0,.23.64,1.89,1.89,0,0,0,.76.35l.57.13.67.15a2.17,2.17,0,0,1,1.15.64,1.79,1.79,0,0,1,.39,1.22,2.21,2.21,0,0,1-.17.84,2,2,0,0,1-.52.68,2.79,2.79,0,0,1-.84.47A3.46,3.46,0,0,1,194.24,175.5Z"></path><path class="cls-2" d="M199.25,167.28h-1.33v-1.21h1.33Zm-.09,8.05H198v-6.9h1.15Z"></path><path class="cls-2" d="M206.54,171.88a4,4,0,0,1-.85,2.7,2.85,2.85,0,0,1-2.23.95,2.81,2.81,0,0,1-2.26-1,4,4,0,0,1-.82-2.66,3.91,3.91,0,0,1,.85-2.69,3.08,3.08,0,0,1,4.35-.11l.11.11A3.93,3.93,0,0,1,206.54,171.88Zm-1.2,0a3.28,3.28,0,0,0-.49-2,1.8,1.8,0,0,0-2.53-.25,2,2,0,0,0-.25.25,3.21,3.21,0,0,0-.49,2,3.26,3.26,0,0,0,.49,2,1.79,1.79,0,0,0,2.52.27,1.66,1.66,0,0,0,.26-.27A3.26,3.26,0,0,0,205.34,171.88Z"></path><path class="cls-2" d="M213.16,175.33H212v-3.92a6.76,6.76,0,0,0,0-.9,1.91,1.91,0,0,0-.18-.66.78.78,0,0,0-.39-.37,1.49,1.49,0,0,0-.69-.13,2,2,0,0,0-.89.22,4.6,4.6,0,0,0-.9.61v5.15h-1.16v-6.9h1.16v.76a4.39,4.39,0,0,1,1-.71,2.33,2.33,0,0,1,1.07-.24,2,2,0,0,1,1.59.66,2.93,2.93,0,0,1,.58,2Z"></path><path class="cls-2" d="M216.65,175.5a4,4,0,0,1-1.29-.19,6.2,6.2,0,0,1-1-.39v-1.3h.07l.34.26a3.5,3.5,0,0,0,.54.29,3.91,3.91,0,0,0,.65.24,2.64,2.64,0,0,0,.74.1,3.05,3.05,0,0,0,.6-.06,1.28,1.28,0,0,0,.46-.17.78.78,0,0,0,.41-.78.8.8,0,0,0-.23-.62,1.77,1.77,0,0,0-.79-.35l-.59-.13-.65-.16a2.1,2.1,0,0,1-1.17-.71,1.82,1.82,0,0,1-.35-1.15,1.87,1.87,0,0,1,.7-1.52,2.86,2.86,0,0,1,1.87-.59,4.56,4.56,0,0,1,1.16.15,3.76,3.76,0,0,1,1,.35V170h0a3.85,3.85,0,0,0-1-.55,3.08,3.08,0,0,0-1.08-.2,1.82,1.82,0,0,0-1,.24.76.76,0,0,0-.4.73.81.81,0,0,0,.24.64,1.68,1.68,0,0,0,.75.35l.57.13.67.15a2.13,2.13,0,0,1,1.15.64,1.74,1.74,0,0,1,.39,1.22,2.21,2.21,0,0,1-.17.84,2,2,0,0,1-.52.68,2.49,2.49,0,0,1-.84.47A3.65,3.65,0,0,1,216.65,175.5Z"></path><path class="cls-2" d="M223.48,175.33l3.11-9.19h1.51l3.1,9.2h-1.28l-.85-2.56h-3.55l-.84,2.56Zm5.24-3.61-1.42-4.32-1.42,4.32Z"></path><path class="cls-2" d="M237.75,171.7a4.31,4.31,0,0,1-.82,2.75,2.64,2.64,0,0,1-2.1,1.08,3.42,3.42,0,0,1-.9-.12,3.73,3.73,0,0,1-.81-.37v2.89H232v-9.45h1.15v.73a4.16,4.16,0,0,1,1-.65,2.43,2.43,0,0,1,1.15-.27,2.16,2.16,0,0,1,1.86.94A4.3,4.3,0,0,1,237.75,171.7Zm-1.2.13a3.76,3.76,0,0,0-.38-1.84,1.29,1.29,0,0,0-1.22-.64,2.28,2.28,0,0,0-1,.21,5,5,0,0,0-.87.57V174a3.58,3.58,0,0,0,.79.3,3.06,3.06,0,0,0,.74.09,1.67,1.67,0,0,0,1.4-.67,3.15,3.15,0,0,0,.5-1.93Z"></path><path class="cls-2" d="M244.73,171.7a4.2,4.2,0,0,1-.82,2.75,2.61,2.61,0,0,1-2.09,1.08,3.42,3.42,0,0,1-.9-.12,3.73,3.73,0,0,1-.81-.37v2.89H239v-9.45h1.16v.73a4.16,4.16,0,0,1,1-.65,2.41,2.41,0,0,1,1.15-.27,2.16,2.16,0,0,1,1.86.94A4.29,4.29,0,0,1,244.73,171.7Zm-1.19.13a3.76,3.76,0,0,0-.38-1.84,1.29,1.29,0,0,0-1.22-.64,2.28,2.28,0,0,0-1,.21,4.66,4.66,0,0,0-.87.57V174a5.24,5.24,0,0,0,.78.3,3.2,3.2,0,0,0,.75.09,1.67,1.67,0,0,0,1.4-.67,3.15,3.15,0,0,0,.5-1.93Z"></path><path class="cls-2" d="M247.08,175.33H246v-9.62h1.07Z"></path><path class="cls-2" d="M254.25,168.43l-3.71,9.45H249.3l1.24-2.88L248,168.43h1.22l1.89,5.11,1.88-5.11Z"></path></g><path class="cls-2" d="M377,112.29a9.39,9.39,0,0,0-6.64,2.75,9.24,9.24,0,0,0-.14,13.07l.14.14a9.36,9.36,0,0,0,16-6.61A9.34,9.34,0,0,0,377,112.3Zm0,14.55a5.2,5.2,0,0,1-.46-10.39,3.53,3.53,0,0,1,.46,0,5.2,5.2,0,0,1,0,10.39Zm2.41-45.69a2,2,0,0,0-1.39-.54H367.33a2.09,2.09,0,0,0-2.08,2.08v17a2.08,2.08,0,0,0,2.08,2.08h16.9a2.09,2.09,0,0,0,2.07-2.08V88.32a2.1,2.1,0,0,0-.68-1.54Zm2.78,16.5H369.4V84.75h7.77l5,4.48Zm-55.88,14.64a9.39,9.39,0,0,0-6.64,2.75,9.24,9.24,0,0,0-.14,13.07l.14.14a9.44,9.44,0,0,0,6.64,2.74,9.35,9.35,0,0,0,0-18.7Zm0,14.55a5.2,5.2,0,0,1-.46-10.39,3.53,3.53,0,0,1,.46,0,5.2,5.2,0,0,1,0,10.39Zm-13.84-12h-4.18v-5.53a2.08,2.08,0,1,0-4.15-.29,1.41,1.41,0,0,0,0,.29v7.61a2.09,2.09,0,0,0,2.08,2.07h6.25a2.08,2.08,0,0,0,0-4.15ZM323,103.53a2.08,2.08,0,0,0-2.08-2.08H295.7a2.08,2.08,0,1,0-.29,4.15,1.41,1.41,0,0,0,.29,0h25.17a2.06,2.06,0,0,0,2.13-2ZM300,96l25.18.14a2.09,2.09,0,0,0,2.09-2,2.05,2.05,0,0,0-2-2.1h0L300,91.87h0A2.08,2.08,0,1,0,300,96Zm4.23-9.44h25.18a2.08,2.08,0,1,0,.29-4.15H304.14a2.08,2.08,0,0,0,0,4.15Zm90.65-2.8h0L379.93,71.47A2.08,2.08,0,0,0,378.6,71H361.12V63.51a2.07,2.07,0,0,0-2.07-2.07H306.18a2.09,2.09,0,0,0-2.08,2.07V78.72a2.08,2.08,0,1,0,4.15.29,1.41,1.41,0,0,0,0-.29V65.59H357v49.26H340a2.08,2.08,0,1,0-.29,4.15,1.41,1.41,0,0,0,.29,0h25.35a2.08,2.08,0,0,0,0-4.15h-4.18V75.15H377.9l13.54,11.22-.15,28.44H389.1a2.08,2.08,0,0,0,0,4.15h4.22a2.05,2.05,0,0,0,2.07-2l.17-31.5a2.2,2.2,0,0,0-.77-1.67Z"></path><path class="cls-2" d="M23.91,145.4v-1.57a6.24,6.24,0,0,0,3.56-5.46,13.78,13.78,0,0,0-.15-2.18H24.1v-2H27a21.65,21.65,0,0,1-.34-3.37,5.76,5.76,0,0,1,6-6.09,6.52,6.52,0,0,1,3.41.78l-.63,2.06a5.69,5.69,0,0,0-2.78-.62c-2.43,0-3.43,1.68-3.43,3.9a17.35,17.35,0,0,0,.37,3.34h4.5v2H29.84a10.72,10.72,0,0,1-.12,3.49,6.47,6.47,0,0,1-2.15,3.37v.07h9.3v2.28Z"></path><path class="cls-2" d="M45.55,127.66h-.07L42,129.57l-.54-2.09,4.44-2.38H48.2v20.3H45.55Z"></path><path class="cls-2" d="M69.08,135c0,6.9-2.56,10.71-7,10.71-4,0-6.65-3.72-6.71-10.43s2.93-10.55,7-10.55C66.65,124.76,69.08,128.57,69.08,135Zm-11,.31c0,5.28,1.63,8.28,4.12,8.28,2.81,0,4.16-3.28,4.16-8.47,0-5-1.28-8.27-4.13-8.27C59.81,126.88,58.06,129.82,58.06,135.34Z"></path><path class="cls-2" d="M85.1,135c0,6.9-2.56,10.71-7.06,10.71-4,0-6.65-3.72-6.71-10.43s2.93-10.55,7.06-10.55S85.1,128.57,85.1,135Zm-11,.31c0,5.28,1.62,8.28,4.12,8.28,2.81,0,4.15-3.28,4.15-8.47,0-5-1.28-8.27-4.12-8.27C75.83,126.88,74.08,129.82,74.08,135.34Z"></path><path class="cls-2" d="M96.49,125.07l-3,3.9V129l4.72-.63v2.12L93.52,130V130l3,3.75-2,1.12-1.87-4.37h-.06l-2,4.41-1.78-1.13,3-3.81v-.06l-4.62.59v-2.12l4.59.59v-.06l-2.94-3.81,1.9-1.09,1.94,4.34h.06L94.62,124Z"></path></g></g></svg> 