<?xml version="1.0" encoding="UTF-8"?> <svg xmlns="http://www.w3.org/2000/svg" viewBox="0 0 410.75 184.78"><defs><style>.cls-1{opacity:0.93;}.cls-2{fill:#e6e7e8;}.cls-3{opacity:0.46;}.cls-4{fill:#fff;}.cls-5{fill:#3b6581;}.cls-6{fill:#231f20;}.cls-7{fill:#060606;}</style></defs><title>Asset 15-3</title><g id="Layer_2" data-name="Layer 2"><g id="Layer_3" data-name="Layer 3"><g class="cls-1"><rect class="cls-2" width="410.75" height="184.78"></rect></g><g class="cls-3"><path class="cls-4" d="M233.79,183c-20.83,0-41.65-.06-62.48,0-5.62,0-9.14-3.91-10.88-10.74a14.8,14.8,0,0,1-.43-3.64q0-51.28,0-102.56C160,63,160,63,157.64,63H69.79c-3,0-5.94-.11-8.9-.11-2.45,0-3.8-1.15-3.86-5.36a23.76,23.76,0,0,1,3.22-12.86,15.11,15.11,0,0,1,8-6.42c5.08-1.84,10.18-3.61,15.25-5.56,6.2-2.39,12.5-4.3,18.74-6.49,4.78-1.68,9.52-3.49,14.28-5.23,5.63-2.07,11.26-4.16,16.9-6.19,4.6-1.66,9.24-3.11,13.82-4.9,4.07-1.6,8.15-3.4,12.25-4.63,4.35-1.31,8.71-2.84,13.24-3.27,6.13-.57,12.24-1,18.37-1,31.21,0,62.42-.09,93.63.14a64.07,64.07,0,0,1,12.7,1.36c6.46,1.37,12.7,3.83,19,6s12.6,4.58,18.9,6.83c6,2.14,11.94,4.16,17.89,6.32,7,2.55,14,5.26,21,7.81,5.63,2.05,11.27,4,16.91,6,3.22,1.14,6.5,2.07,9.65,3.51,4.88,2.24,7.72,7.14,9,13.8a21.84,21.84,0,0,1,.41,4.36c0,4.79-1.79,6.36-4.53,6.06a95.68,95.68,0,0,0-10.3-.09c-28.64,0-57.29,0-85.93-.06-1.72,0-2.31.55-2.3,3,.06,34.5.16,69-.07,103.5,0,7-4,13.43-9.95,13.46C276,183.05,254.9,183,233.79,183Zm0-10.36H297c.87,0,2,0,2.08-1.35.07-1.73.53-3.32.53-5.07q0-52.45,0-104.92a9.38,9.38,0,0,0-.24-2.5c-.46-1.73,1.3-5,2.58-5.62,1.51-.75,2.93,0,4.38,0h93.46c.74,0,1.79.28,1.91-1a2.49,2.49,0,0,0-1.41-2.56c-1.57-.65-3.07-1.59-4.65-2.18-7.82-2.91-15.65-5.8-23.5-8.57-5.87-2.08-11.73-4.16-17.57-6.37-6.66-2.52-13.39-4.72-20.09-7.09q-7-2.46-14-5c-5-1.83-10.08-3.53-15.11-5.34A58.78,58.78,0,0,0,293.52,12a94.69,94.69,0,0,0-12.82-.66c-31.73-.05-63.46,0-95.2,0A113,113,0,0,0,172,12.38c-4.57.53-8.88,2.45-13.27,3.89-5.73,1.86-11.41,3.95-17.1,6q-7.58,2.68-15.13,5.45c-5.47,2-10.93,4-16.4,6q-8.59,3.13-17.22,6.18c-5.48,2-11,3.8-16.46,5.87C73.29,47,70,47.6,67.07,49.84a2.49,2.49,0,0,0-1.16,2.6c.26,1.4,1.16.74,1.75.74q46.55,0,93.1,0a3.51,3.51,0,0,0,1.71-.23c2-1.09,4.84.93,5.22,4.14a30.29,30.29,0,0,1-.06,3.82q0,41.33,0,82.66c0,7.73-.1,15.47,0,23.21.09,5.79,1.43,5.89,4.14,5.87C192.48,172.58,213.13,172.62,233.78,172.63Z"></path></g><path class="cls-5" d="M32.54,65.14V38.07H22.66V31.69H50.82v6.38H40.94V65.14Z"></path><path class="cls-5" d="M67.73,47.35h-.65a5.83,5.83,0,0,0-1.3-.24c-.57,0-1.2-.08-1.89-.08a10.09,10.09,0,0,0-2.59.36,24.69,24.69,0,0,0-2.64.86V65.14H50.8V39.91h7.86v3.62c.36-.33.85-.74,1.49-1.25a15.36,15.36,0,0,1,1.74-1.2,9.93,9.93,0,0,1,2-.89A7.14,7.14,0,0,1,66,39.82l.86,0c.31,0,.6,0,.85.06Z"></path><path class="cls-5" d="M75.79,36.32H67.48V30.19h8.31Zm-.22,28.82H67.71V39.91h7.86Z"></path><path class="cls-5" d="M108.69,65.14V52.54c0-1.25,0-2.29-.06-3.15a6.39,6.39,0,0,0-.41-2.09,2.24,2.24,0,0,0-1-1.18,4.49,4.49,0,0,0-2-.37,4.38,4.38,0,0,0-1.78.4,12,12,0,0,0-1.91,1.11V65.14H93.6V52.54c0-1.23,0-2.28-.08-3.14a6.37,6.37,0,0,0-.42-2.1,2.24,2.24,0,0,0-1-1.18,4.4,4.4,0,0,0-2-.37,4.22,4.22,0,0,0-1.88.45,13.24,13.24,0,0,0-1.8,1.06V65.14H78.55V39.91h7.86V42.7a21.51,21.51,0,0,1,3.64-2.56,7.9,7.9,0,0,1,3.84-.92A7.54,7.54,0,0,1,98,40.32a7,7,0,0,1,2.67,3.28,23.16,23.16,0,0,1,4.28-3.25A8.27,8.27,0,0,1,109,39.22a8.46,8.46,0,0,1,3.15.56,6.12,6.12,0,0,1,2.36,1.68,8,8,0,0,1,1.58,2.89,15,15,0,0,1,.53,4.37V65.14Z"></path><path class="cls-5" d="M127.06,65.83a22.45,22.45,0,0,1-5.27-.6,19.87,19.87,0,0,1-4.09-1.42V57.16h.65c.37.29.8.6,1.28,1a11.71,11.71,0,0,0,2,1.08,14.63,14.63,0,0,0,2.48.88,11.42,11.42,0,0,0,3,.37,7.82,7.82,0,0,0,2.93-.51,1.74,1.74,0,0,0,1.27-1.64,1.57,1.57,0,0,0-.59-1.33,6.58,6.58,0,0,0-2.26-.85c-.6-.15-1.36-.31-2.27-.48a20.56,20.56,0,0,1-2.43-.6,9.05,9.05,0,0,1-4.46-2.73,7.24,7.24,0,0,1-1.49-4.75,6.91,6.91,0,0,1,.77-3.18,8.25,8.25,0,0,1,2.28-2.66,12,12,0,0,1,3.72-1.82,17.14,17.14,0,0,1,5-.67,20.65,20.65,0,0,1,4.87.53A18.63,18.63,0,0,1,138.2,41v6.38h-.63a13,13,0,0,0-1.28-.84,19,19,0,0,0-1.7-.91,12.72,12.72,0,0,0-2.21-.74,11.11,11.11,0,0,0-2.51-.29,6.47,6.47,0,0,0-2.89.58,1.77,1.77,0,0,0-1.18,1.55,1.68,1.68,0,0,0,.59,1.35,7,7,0,0,0,2.54,1c.67.16,1.45.32,2.32.48a18.36,18.36,0,0,1,2.53.64,8.61,8.61,0,0,1,4.12,2.57,6.81,6.81,0,0,1,1.4,4.5,7.16,7.16,0,0,1-.83,3.38,7.48,7.48,0,0,1-2.36,2.71,11.89,11.89,0,0,1-3.8,1.84A18.36,18.36,0,0,1,127.06,65.83Z"></path><path class="cls-5" d="M150.91,65.14V31.69h22.62v6.38H159.26v5.86H172.4v6.38H159.26v8.45h14.27v6.38Z"></path><path class="cls-5" d="M200.61,65.14H191.4l-4.81-7.26-4.94,7.26h-9l9.28-12.6-9.12-12.63H182L186.71,47l4.74-7.12h9.05l-9.14,12.43Z"></path><path class="cls-5" d="M225.22,52.18q0,6-3.06,9.75a9.46,9.46,0,0,1-7.56,3.7,11.41,11.41,0,0,1-3.28-.42,14.77,14.77,0,0,1-3-1.33V74.39h-7.87V39.91h7.87v2.63a17.73,17.73,0,0,1,3.52-2.4,8.92,8.92,0,0,1,4.16-.92,7.76,7.76,0,0,1,6.78,3.48Q225.22,46.18,225.22,52.18Zm-8,.16q0-3.69-1.13-5.35a4,4,0,0,0-3.54-1.66,7,7,0,0,0-2.1.33,8.34,8.34,0,0,0-2,1V59.37a5.69,5.69,0,0,0,1.38.38,12.93,12.93,0,0,0,1.78.11A5,5,0,0,0,215.79,58,9.42,9.42,0,0,0,217.18,52.34Z"></path><path class="cls-5" d="M234.27,65.14h-7.86V30.19h7.86Z"></path><path class="cls-5" d="M251.16,62.47c-.54.44-1,.85-1.45,1.21A8.87,8.87,0,0,1,248,64.76a11.86,11.86,0,0,1-2.05.78,11.3,11.3,0,0,1-2.8.27,7.51,7.51,0,0,1-5.56-2.24,7.77,7.77,0,0,1-2.21-5.66,8.19,8.19,0,0,1,1.12-4.54,7.71,7.71,0,0,1,3.24-2.74,16.89,16.89,0,0,1,5.09-1.44q3-.4,6.38-.63v-.13a3,3,0,0,0-1.53-2.89,10.44,10.44,0,0,0-4.62-.8,12.63,12.63,0,0,0-3.26.51,26.71,26.71,0,0,0-3.64,1.29h-.67V40.45c.78-.22,2-.49,3.77-.79a29.9,29.9,0,0,1,5.26-.46q6.51,0,9.49,2.16c2,1.45,3,3.65,3,6.62V65.14h-7.81Zm0-3.91V53.3c-1.33.14-2.41.25-3.24.35a11.35,11.35,0,0,0-2.42.57,3.37,3.37,0,0,0-1.61,1.09,3.09,3.09,0,0,0-.57,1.94,2.78,2.78,0,0,0,1,2.44,5,5,0,0,0,2.82.66,5.11,5.11,0,0,0,2.11-.47A6.51,6.51,0,0,0,251.16,58.56Z"></path><path class="cls-5" d="M269.84,36.32h-8.31V30.19h8.31Zm-.22,28.82h-7.86V39.91h7.86Z"></path><path class="cls-5" d="M296.23,65.14h-7.91V52.63c0-1,0-2-.12-3.05a6.94,6.94,0,0,0-.46-2.23,2.51,2.51,0,0,0-1.17-1.23,4.83,4.83,0,0,0-2-.37,5.69,5.69,0,0,0-2,.36,9.3,9.3,0,0,0-2.11,1.15V65.14H272.6V39.91h7.86V42.7a19.31,19.31,0,0,1,3.76-2.56,8.87,8.87,0,0,1,4.06-.92,7.28,7.28,0,0,1,5.91,2.44q2,2.43,2,7.06Z"></path><path class="cls-5" d="M311.93,65.81q-7.14,0-10.95-3.41t-3.81-9.73q0-6.18,3.55-9.86c2.37-2.45,5.67-3.68,9.93-3.68,3.86,0,6.77,1,8.71,3.12s2.92,5.06,2.92,8.94V54H305.05a7.37,7.37,0,0,0,.74,2.93,5.16,5.16,0,0,0,1.67,1.88,6.9,6.9,0,0,0,2.36,1,13.42,13.42,0,0,0,2.94.3,12.12,12.12,0,0,0,2.69-.3,13.32,13.32,0,0,0,2.43-.8,16.43,16.43,0,0,0,1.78-.92,15,15,0,0,0,1.34-.88h.83v6.49l-1.76.71a14.89,14.89,0,0,1-2.19.66,22,22,0,0,1-2.64.53A23.93,23.93,0,0,1,311.93,65.81Zm2.6-16.53a6.07,6.07,0,0,0-1.15-3.8,4.14,4.14,0,0,0-3.34-1.3,4.69,4.69,0,0,0-3.58,1.37A5.75,5.75,0,0,0,305,49.28Z"></path><path class="cls-5" d="M346.22,65.14h-7.86V62.51q-.76.63-1.74,1.35a11.55,11.55,0,0,1-1.72,1.08,9.72,9.72,0,0,1-1.86.67,9.45,9.45,0,0,1-2.2.22A7.92,7.92,0,0,1,324,62.26q-2.52-3.57-2.52-9.54a17.55,17.55,0,0,1,.85-5.73,13.53,13.53,0,0,1,2.36-4.22,10,10,0,0,1,3.33-2.6,9.37,9.37,0,0,1,4.13-1,10.9,10.9,0,0,1,3.25.41,20.16,20.16,0,0,1,2.95,1.3V30.19h7.86Zm-7.86-7V45.8a5.76,5.76,0,0,0-1.53-.48,8.16,8.16,0,0,0-1.62-.19,4.89,4.89,0,0,0-4.25,2,9.33,9.33,0,0,0-1.43,5.53q0,3.72,1.14,5.39a4.11,4.11,0,0,0,3.67,1.66,5.82,5.82,0,0,0,2.09-.4A7.37,7.37,0,0,0,338.36,58.18Z"></path><path class="cls-6" d="M33.35,111.59a9.41,9.41,0,0,1-3.54-.65A7.51,7.51,0,0,1,27,109a9,9,0,0,1-1.82-3.19,13.74,13.74,0,0,1-.65-4.39,13.21,13.21,0,0,1,.63-4.3A9.29,9.29,0,0,1,27,94a7.82,7.82,0,0,1,2.79-2,9,9,0,0,1,3.6-.69,10.94,10.94,0,0,1,1.85.14,13.47,13.47,0,0,1,1.6.37c.42.13.85.3,1.3.49s.88.42,1.31.66v3.15h-.21c-.23-.21-.52-.47-.88-.77A8.63,8.63,0,0,0,37,94.41a8.28,8.28,0,0,0-1.64-.67,7,7,0,0,0-2-.27A5.47,5.47,0,0,0,31,94a5.63,5.63,0,0,0-2,1.51A7.3,7.3,0,0,0,27.73,98a11.65,11.65,0,0,0-.46,3.42,10.84,10.84,0,0,0,.49,3.47,7.25,7.25,0,0,0,1.33,2.46A5.26,5.26,0,0,0,31,108.84a5.69,5.69,0,0,0,2.35.49,7.84,7.84,0,0,0,2.1-.27,8.36,8.36,0,0,0,1.71-.7,8.48,8.48,0,0,0,1.25-.84,10.32,10.32,0,0,0,.83-.73h.2v3.11l-1.22.58a9.64,9.64,0,0,1-1.39.54,11.81,11.81,0,0,1-1.59.42A9.79,9.79,0,0,1,33.35,111.59Z"></path><path class="cls-6" d="M44.22,111.23H41.74V90.72h2.48Z"></path><path class="cls-6" d="M50.59,94H47.77V91.47h2.82Zm-.17,17.19H47.94V96.51h2.48Z"></path><path class="cls-6" d="M59.91,111.56a7.76,7.76,0,0,1-2.78-.47A5.78,5.78,0,0,1,55,109.68a6.66,6.66,0,0,1-1.41-2.4,10.44,10.44,0,0,1-.5-3.39,9.86,9.86,0,0,1,.52-3.35A7.24,7.24,0,0,1,55,98.17a5.88,5.88,0,0,1,2.17-1.49,7.6,7.6,0,0,1,2.79-.52,7.94,7.94,0,0,1,2.34.35,11.7,11.7,0,0,1,2,.79v2.78h-.14c-.18-.15-.41-.32-.68-.52a8.76,8.76,0,0,0-1-.59,7,7,0,0,0-1.21-.46,5.08,5.08,0,0,0-1.35-.2,3.77,3.77,0,0,0-3.09,1.46,6.42,6.42,0,0,0-1.17,4.12A6.54,6.54,0,0,0,56.74,108a3.73,3.73,0,0,0,3.13,1.45,5.4,5.4,0,0,0,2.31-.5,7.14,7.14,0,0,0,1.94-1.29h.14v2.78l-.92.42a7.28,7.28,0,0,1-1,.36,11.69,11.69,0,0,1-1.14.28A6.48,6.48,0,0,1,59.91,111.56Z"></path><path class="cls-6" d="M78.72,111.23H75.47l-5.5-7.1-1,1v6.15H66.52V90.72H69v12l5.82-6.22h3.09l-6,6.15Z"></path><path class="cls-6" d="M102.85,111.23h-2.61v-9.61h-9v9.61H88.6V91.6h2.61v7.7h9V91.6h2.61Z"></path><path class="cls-6" d="M113,111.57a7.33,7.33,0,0,1-5.47-2,7.74,7.74,0,0,1-1.94-5.64,8.34,8.34,0,0,1,1.88-5.72,6.27,6.27,0,0,1,4.93-2.13,7,7,0,0,1,2.43.39,5,5,0,0,1,1.85,1.24,5.72,5.72,0,0,1,1.21,2.07,9.18,9.18,0,0,1,.42,3v1.35h-10.2a5.46,5.46,0,0,0,1.29,3.92,4.67,4.67,0,0,0,3.57,1.36,7.07,7.07,0,0,0,1.6-.18,7.38,7.38,0,0,0,1.42-.48,9,9,0,0,0,1.13-.58,6.27,6.27,0,0,0,.77-.54h.14v2.71l-1.08.42c-.43.17-.81.31-1.16.41s-.92.23-1.31.3A8.73,8.73,0,0,1,113,111.57Zm2.9-9.34a7,7,0,0,0-.24-1.73,3.71,3.71,0,0,0-.6-1.23,2.93,2.93,0,0,0-1.12-.84,4.33,4.33,0,0,0-1.68-.29,4.21,4.21,0,0,0-1.68.3,4,4,0,0,0-1.26.86,4.31,4.31,0,0,0-.85,1.29,5.51,5.51,0,0,0-.36,1.64Z"></path><path class="cls-6" d="M128.65,99.17h-.13a2.8,2.8,0,0,0-.59-.1l-.74,0a4.87,4.87,0,0,0-2,.44,6.45,6.45,0,0,0-1.88,1.29v10.45h-2.48V96.51h2.48v2.18A11.48,11.48,0,0,1,125.69,97a4.65,4.65,0,0,1,2.53-.47l.43.06Z"></path><path class="cls-6" d="M136.84,111.57a7.33,7.33,0,0,1-5.47-2,7.74,7.74,0,0,1-1.94-5.64,8.34,8.34,0,0,1,1.88-5.72,6.27,6.27,0,0,1,4.93-2.13,7,7,0,0,1,2.43.39,4.88,4.88,0,0,1,1.84,1.24,5.6,5.6,0,0,1,1.22,2.07,9.18,9.18,0,0,1,.42,3v1.35H132a5.46,5.46,0,0,0,1.29,3.92,4.67,4.67,0,0,0,3.57,1.36,7.14,7.14,0,0,0,1.6-.18,7.62,7.62,0,0,0,1.42-.48,9,9,0,0,0,1.13-.58,6.27,6.27,0,0,0,.77-.54h.14v2.71l-1.08.42c-.43.17-.82.31-1.16.41s-.92.23-1.31.3A8.73,8.73,0,0,1,136.84,111.57Zm2.9-9.34a7,7,0,0,0-.24-1.73,3.55,3.55,0,0,0-.61-1.23,2.83,2.83,0,0,0-1.11-.84,4.33,4.33,0,0,0-1.68-.29,4.21,4.21,0,0,0-1.68.3,4,4,0,0,0-1.26.86,4.1,4.1,0,0,0-.84,1.29,5.21,5.21,0,0,0-.37,1.64Z"></path><path class="cls-6" d="M157.55,111.52a4.24,4.24,0,0,1-3.17-1.15,5.08,5.08,0,0,1-1.13-3.65V98.56h-1.67v-2h1.67V92.27h2.48v4.24h4.56v2h-4.56v7c0,.75,0,1.33,0,1.73a3.1,3.1,0,0,0,.3,1.13,1.47,1.47,0,0,0,.73.7,3.33,3.33,0,0,0,1.36.23,3.86,3.86,0,0,0,1.17-.18,7.11,7.11,0,0,0,.82-.3h.14v2.23a11.21,11.21,0,0,1-1.42.31A9.26,9.26,0,0,1,157.55,111.52Z"></path><path class="cls-6" d="M174.24,103.88a8.42,8.42,0,0,1-1.79,5.74,6.07,6.07,0,0,1-4.78,2,6,6,0,0,1-4.83-2.09,8.53,8.53,0,0,1-1.76-5.67,8.34,8.34,0,0,1,1.82-5.74,6.62,6.62,0,0,1,9.55,0A8.46,8.46,0,0,1,174.24,103.88Zm-2.56,0a7.08,7.08,0,0,0-1-4.26,3.88,3.88,0,0,0-5.95,0,9,9,0,0,0,0,8.45,3.81,3.81,0,0,0,5.94,0A7,7,0,0,0,171.68,103.88Z"></path><path class="cls-6" d="M193,99.17h-.14a2.7,2.7,0,0,0-.58-.1l-.75,0a4.9,4.9,0,0,0-2,.44,6.41,6.41,0,0,0-1.87,1.29v10.45h-2.48V96.51h2.48v2.18A11,11,0,0,1,190.07,97a4.39,4.39,0,0,1,2-.49,4.47,4.47,0,0,1,.58,0l.43.06Z"></path><path class="cls-6" d="M201.21,111.57a7.3,7.3,0,0,1-5.46-2A7.7,7.7,0,0,1,193.8,104a8.29,8.29,0,0,1,1.89-5.72,6.27,6.27,0,0,1,4.93-2.13,7,7,0,0,1,2.43.39,5,5,0,0,1,1.84,1.24,5.58,5.58,0,0,1,1.21,2.07,8.9,8.9,0,0,1,.43,3v1.35H196.32a5.46,5.46,0,0,0,1.29,3.92,4.71,4.71,0,0,0,3.58,1.36,7.2,7.2,0,0,0,1.6-.18,7.88,7.88,0,0,0,1.42-.48,10.61,10.61,0,0,0,1.13-.58,6.08,6.08,0,0,0,.76-.54h.15v2.71l-1.08.42c-.43.17-.82.31-1.16.41s-.92.23-1.31.3A8.78,8.78,0,0,1,201.21,111.57Zm2.9-9.34a7,7,0,0,0-.23-1.73,3.73,3.73,0,0,0-.61-1.23,2.83,2.83,0,0,0-1.11-.84,4.4,4.4,0,0,0-1.68-.29,4.26,4.26,0,0,0-1.69.3,4,4,0,0,0-1.26.86,4.28,4.28,0,0,0-.84,1.29,5.5,5.5,0,0,0-.37,1.64Z"></path><path class="cls-6" d="M217.26,109.66q-.31.23-.81.63a5.68,5.68,0,0,1-1,.64,7.82,7.82,0,0,1-1.27.53,6.39,6.39,0,0,1-1.72.18,4.41,4.41,0,0,1-1.73-.34,4.5,4.5,0,0,1-1.43-1,4.42,4.42,0,0,1-.95-1.5,5.34,5.34,0,0,1,.29-4.48,4.38,4.38,0,0,1,2-1.71,10.25,10.25,0,0,1,2.93-.79c1.12-.14,2.34-.25,3.64-.32v-.47a3.16,3.16,0,0,0-.27-1.41,1.9,1.9,0,0,0-.74-.82,2.79,2.79,0,0,0-1.16-.4,9.18,9.18,0,0,0-1.41-.1,8.93,8.93,0,0,0-2,.26,12.74,12.74,0,0,0-2.32.74h-.15V96.82c.46-.13,1.11-.27,2-.43a13.63,13.63,0,0,1,2.53-.24,11.5,11.5,0,0,1,2.55.24,5,5,0,0,1,1.88.85,3.82,3.82,0,0,1,1.2,1.57,6.28,6.28,0,0,1,.39,2.35v10.07h-2.46Zm0-2v-4.09c-.59,0-1.34.12-2.24.22a11.53,11.53,0,0,0-2.18.39,4,4,0,0,0-1.63.92,2.29,2.29,0,0,0-.65,1.75,2.45,2.45,0,0,0,.71,1.91,3,3,0,0,0,2.08.65,4.44,4.44,0,0,0,2.13-.51A9.65,9.65,0,0,0,217.26,107.61Z"></path><path class="cls-6" d="M234.54,111.23h-2.48v-1.5c-.39.32-.72.59-1,.8a5.17,5.17,0,0,1-1,.58,5.46,5.46,0,0,1-1.09.39,5.75,5.75,0,0,1-1.32.14,5,5,0,0,1-2.22-.5,4.77,4.77,0,0,1-1.74-1.46,7.47,7.47,0,0,1-1.12-2.41,12.53,12.53,0,0,1-.39-3.29,9.89,9.89,0,0,1,.5-3.35,7.87,7.87,0,0,1,1.38-2.48,5.89,5.89,0,0,1,2-1.51,5.53,5.53,0,0,1,2.39-.54,6.92,6.92,0,0,1,1.93.24,8.4,8.4,0,0,1,1.72.76V90.72h2.48Zm-2.48-3.58V99.16a7.62,7.62,0,0,0-1.65-.62,6.67,6.67,0,0,0-1.59-.18,3.52,3.52,0,0,0-3,1.44,6.69,6.69,0,0,0-1.08,4.13,7.7,7.7,0,0,0,.83,4,2.87,2.87,0,0,0,2.66,1.38,4.84,4.84,0,0,0,2-.44A7.43,7.43,0,0,0,232.06,107.65Z"></path><path class="cls-6" d="M258.68,103.88a8.42,8.42,0,0,1-1.79,5.74,6.07,6.07,0,0,1-4.78,2,6,6,0,0,1-4.83-2.09,8.53,8.53,0,0,1-1.76-5.67,8.34,8.34,0,0,1,1.82-5.74,6.62,6.62,0,0,1,9.55,0A8.46,8.46,0,0,1,258.68,103.88Zm-2.56,0a7.15,7.15,0,0,0-1-4.26,3.88,3.88,0,0,0-6,0,9,9,0,0,0,0,8.45,3.81,3.81,0,0,0,5.94,0A7,7,0,0,0,256.12,103.88Z"></path><path class="cls-6" d="M272.69,111.23h-2.47V109.6a11.28,11.28,0,0,1-2.18,1.52,5.32,5.32,0,0,1-4.11.2,3.78,3.78,0,0,1-1.48-1,4.65,4.65,0,0,1-1-1.72,8.15,8.15,0,0,1-.35-2.54V96.51h2.48v8.38c0,.78,0,1.43.08,2a4,4,0,0,0,.39,1.35,2,2,0,0,0,.83.83,3.43,3.43,0,0,0,1.49.26,4.39,4.39,0,0,0,1.94-.51,9.62,9.62,0,0,0,1.89-1.27v-11h2.47Z"></path><path class="cls-6" d="M284.09,99.17H284a2.7,2.7,0,0,0-.58-.1l-.75,0a4.9,4.9,0,0,0-2,.44,6.41,6.41,0,0,0-1.87,1.29v10.45h-2.48V96.51h2.48v2.18A11.2,11.2,0,0,1,281.12,97a4.68,4.68,0,0,1,2.54-.47l.43.06Z"></path><path class="cls-6" d="M30.26,146.23V128.92H23.67V126.6H39.46v2.32H32.87v17.31Z"></path><path class="cls-6" d="M46.54,134.17h-.13a2.69,2.69,0,0,0-.59-.1l-.74,0a4.9,4.9,0,0,0-2,.44,6.41,6.41,0,0,0-1.87,1.29v10.45H38.74V131.51h2.48v2.18A11.2,11.2,0,0,1,43.58,132a4.43,4.43,0,0,1,2-.49,4.21,4.21,0,0,1,.57,0l.43.06Z"></path><path class="cls-6" d="M51.17,129H48.35v-2.57h2.82ZM51,146.23H48.52V131.51H51Z"></path><path class="cls-6" d="M71.35,146.23v-8.51a18.24,18.24,0,0,0-.08-1.88,3.82,3.82,0,0,0-.32-1.35,1.65,1.65,0,0,0-.76-.78,2.83,2.83,0,0,0-1.31-.25,3.47,3.47,0,0,0-1.65.47,8.73,8.73,0,0,0-1.81,1.35c0,.15,0,.32,0,.53s0,.45,0,.73v9.69H63v-8.51c0-.68,0-1.31-.08-1.88a4,4,0,0,0-.33-1.35,1.67,1.67,0,0,0-.75-.78,2.9,2.9,0,0,0-1.32-.25,3.37,3.37,0,0,0-1.69.5,8.66,8.66,0,0,0-1.71,1.28v11H54.64V131.51h2.48v1.63a9,9,0,0,1,1.93-1.51,4.18,4.18,0,0,1,2.1-.53,4.51,4.51,0,0,1,2.31.59A3.71,3.71,0,0,1,65,133.64a10.15,10.15,0,0,1,2.19-1.9,4.38,4.38,0,0,1,2.32-.64,5,5,0,0,1,1.73.29,3.43,3.43,0,0,1,1.35,1,4.72,4.72,0,0,1,.92,1.67,8.22,8.22,0,0,1,.32,2.52v9.69Z"></path><path class="cls-6" d="M81.29,146.59a9.16,9.16,0,0,1-2.76-.4,12.11,12.11,0,0,1-2.13-.84v-2.78h.14l.74.55a8.07,8.07,0,0,0,1.14.63,9.81,9.81,0,0,0,1.39.52,5.53,5.53,0,0,0,1.58.22,5.78,5.78,0,0,0,1.26-.14,3.16,3.16,0,0,0,1-.35,2.13,2.13,0,0,0,.66-.64,2,2,0,0,0,.2-1A1.73,1.73,0,0,0,84,141a3.93,3.93,0,0,0-1.7-.75L81.1,140c-.51-.11-1-.22-1.41-.34a4.54,4.54,0,0,1-2.46-1.51A4.32,4.32,0,0,1,78,132.4a6.08,6.08,0,0,1,4-1.25,10.41,10.41,0,0,1,2.46.3,8.73,8.73,0,0,1,2.08.77v2.65h-.13a7.67,7.67,0,0,0-2.11-1.19,6.68,6.68,0,0,0-2.35-.43,4,4,0,0,0-2.08.51,1.7,1.7,0,0,0-.84,1.56,1.77,1.77,0,0,0,.5,1.37,3.77,3.77,0,0,0,1.61.75c.37.1.78.19,1.23.28s.93.2,1.43.33a4.64,4.64,0,0,1,2.46,1.35,3.84,3.84,0,0,1,.83,2.59,4.44,4.44,0,0,1-.38,1.8,4,4,0,0,1-1.1,1.45,5.64,5.64,0,0,1-1.79,1A8,8,0,0,1,81.29,146.59Z"></path><path class="cls-6" d="M115.06,146.23h-3.38L109,143.42a8.77,8.77,0,0,1-2.76,2.47,6.73,6.73,0,0,1-3.21.75,6.24,6.24,0,0,1-4.4-1.6,5.47,5.47,0,0,1-1.73-4.2,5.87,5.87,0,0,1,1.16-3.61A6.2,6.2,0,0,1,99.24,136a12.71,12.71,0,0,1,1.29-.9,7.13,7.13,0,0,1-2-1.89,4.4,4.4,0,0,1-.66-2.49,4,4,0,0,1,.37-1.73,5,5,0,0,1,1-1.41,4.81,4.81,0,0,1,1.64-1,5.87,5.87,0,0,1,2.21-.4,5.38,5.38,0,0,1,3.57,1.16,3.64,3.64,0,0,1,1.38,2.92,5.68,5.68,0,0,1-.16,1.33,4,4,0,0,1-.6,1.34,5.63,5.63,0,0,1-1.14,1.22,6.71,6.71,0,0,1-1.88,1l4.64,4.78a16.77,16.77,0,0,0,.22-2.36c0-.84,0-1.95,0-3.31h2.57v1.26a14.19,14.19,0,0,1-.33,2.86,11.35,11.35,0,0,1-1.06,3Zm-7.21-4-6.07-6.21a5.74,5.74,0,0,0-.66.5,4.78,4.78,0,0,0-.72.88,4.64,4.64,0,0,0-.56,1.2,4.84,4.84,0,0,0-.25,1.58,4.34,4.34,0,0,0,1.12,3.08,3.89,3.89,0,0,0,3,1.2A4.91,4.91,0,0,0,106,144,5.44,5.44,0,0,0,107.85,142.26Zm-4.83-8a3.65,3.65,0,0,0,1.22-.67,3.27,3.27,0,0,0,.75-.93,4.48,4.48,0,0,0,.35-1,4.84,4.84,0,0,0,.12-1.11,2.62,2.62,0,0,0-.74-2,2.5,2.5,0,0,0-1.74-.7,2.3,2.3,0,0,0-1.84.79,3,3,0,0,0-.68,2,4,4,0,0,0,.1.91,3.39,3.39,0,0,0,.42.87,4.54,4.54,0,0,0,.77.87A7.9,7.9,0,0,0,103,134.21Z"></path><path class="cls-6" d="M141.45,146.23h-2.61V129.32l-5.11,11.51h-1.59l-5.07-11.51v16.91h-2.44V126.6h3.56l4.9,10.93,4.74-10.93h3.62Z"></path><path class="cls-6" d="M157.35,138.88a8.42,8.42,0,0,1-1.79,5.74,6.65,6.65,0,0,1-9.61-.07,8.53,8.53,0,0,1-1.76-5.67,8.34,8.34,0,0,1,1.82-5.74,6.62,6.62,0,0,1,9.55,0A8.46,8.46,0,0,1,157.35,138.88Zm-2.56,0a7.08,7.08,0,0,0-1-4.26,3.49,3.49,0,0,0-3-1.39,3.53,3.53,0,0,0-3,1.39,9,9,0,0,0,0,8.45,3.82,3.82,0,0,0,5.95,0A7.09,7.09,0,0,0,154.79,138.88Z"></path><path class="cls-6" d="M171.36,146.23h-2.47V144.6a11.28,11.28,0,0,1-2.18,1.52,5.32,5.32,0,0,1-4.11.2,3.78,3.78,0,0,1-1.48-1,4.65,4.65,0,0,1-1-1.72,8.15,8.15,0,0,1-.35-2.54v-9.55h2.48v8.38c0,.78,0,1.43.08,2a4,4,0,0,0,.39,1.35,2,2,0,0,0,.83.83,3.43,3.43,0,0,0,1.49.26,4.36,4.36,0,0,0,1.94-.51,9.06,9.06,0,0,0,1.89-1.27v-11h2.47Z"></path><path class="cls-6" d="M177.48,146.23H175V125.72h2.48Z"></path><path class="cls-6" d="M192.46,146.23H190v-1.5c-.39.32-.72.59-1,.8a5.17,5.17,0,0,1-1,.58,5.46,5.46,0,0,1-1.09.39,5.75,5.75,0,0,1-1.32.14,5.09,5.09,0,0,1-2.23-.5,4.74,4.74,0,0,1-1.73-1.46,7.27,7.27,0,0,1-1.12-2.41,12.51,12.51,0,0,1-.4-3.29,9.88,9.88,0,0,1,.51-3.35,7.87,7.87,0,0,1,1.38-2.48,5.85,5.85,0,0,1,1.94-1.51,5.57,5.57,0,0,1,2.4-.54,6.8,6.8,0,0,1,1.92.24,8.47,8.47,0,0,1,1.73.76v-6.38h2.48ZM190,142.65v-8.49a8,8,0,0,0-1.65-.62,6.67,6.67,0,0,0-1.59-.18,3.54,3.54,0,0,0-3,1.44,6.75,6.75,0,0,0-1.08,4.13,7.8,7.8,0,0,0,.83,4,2.88,2.88,0,0,0,2.67,1.38,4.84,4.84,0,0,0,2-.44A7.43,7.43,0,0,0,190,142.65Z"></path><path class="cls-6" d="M198.75,129h-2.83v-2.57h2.83Zm-.17,17.19H196.1V131.51h2.48Z"></path><path class="cls-6" d="M213.79,146.23h-2.48v-8.38a15.87,15.87,0,0,0-.1-1.89,4,4,0,0,0-.37-1.41,2,2,0,0,0-.85-.82,3.33,3.33,0,0,0-1.47-.27,4.23,4.23,0,0,0-1.91.49,10.09,10.09,0,0,0-1.92,1.29v11h-2.48V131.51h2.48v1.63a10.09,10.09,0,0,1,2.19-1.52,5.14,5.14,0,0,1,2.28-.52,4.21,4.21,0,0,1,3.4,1.43,6.16,6.16,0,0,1,1.23,4.14Z"></path><path class="cls-6" d="M217.8,148.59l.74.29c.32.11.69.23,1.1.33s.88.21,1.27.28a7.15,7.15,0,0,0,1.26.1,5.55,5.55,0,0,0,2-.3,2.84,2.84,0,0,0,1.24-.84,3.2,3.2,0,0,0,.6-1.26,7.13,7.13,0,0,0,.17-1.62v-1.29a7.85,7.85,0,0,1-2,1.29,6.3,6.3,0,0,1-2.42.41,4.83,4.83,0,0,1-4-1.87,8.43,8.43,0,0,1-1.5-5.38,9.59,9.59,0,0,1,.52-3.25,7.46,7.46,0,0,1,1.38-2.41,5.76,5.76,0,0,1,2-1.46,5.64,5.64,0,0,1,2.34-.51,6.52,6.52,0,0,1,2,.27,7.85,7.85,0,0,1,1.68.77l.14-.63h2.34v13.05c0,2.49-.55,4.33-1.64,5.49a6.5,6.5,0,0,1-5,1.76,15.16,15.16,0,0,1-2.21-.17,17.16,17.16,0,0,1-2.1-.46v-2.59Zm8.33-6.35v-8.08a8.31,8.31,0,0,0-1.71-.64,6.4,6.4,0,0,0-1.56-.19,3.56,3.56,0,0,0-3,1.38,6.34,6.34,0,0,0-1.08,4,6.92,6.92,0,0,0,.83,3.73,3,3,0,0,0,2.67,1.28,5.53,5.53,0,0,0,2-.39A6.23,6.23,0,0,0,226.13,142.24Z"></path><path class="cls-6" d="M236.17,146.59a9.16,9.16,0,0,1-2.76-.4,12.43,12.43,0,0,1-2.13-.84v-2.78h.14l.74.55a8.07,8.07,0,0,0,1.14.63,9.81,9.81,0,0,0,1.39.52,5.53,5.53,0,0,0,1.58.22,5.72,5.72,0,0,0,1.26-.14,3.07,3.07,0,0,0,1-.35,1.67,1.67,0,0,0,.87-1.67,1.7,1.7,0,0,0-.49-1.33,3.93,3.93,0,0,0-1.7-.75L236,140c-.51-.11-1-.22-1.41-.34a4.54,4.54,0,0,1-2.46-1.51,4.32,4.32,0,0,1,.74-5.72,6.08,6.08,0,0,1,4-1.25,10.35,10.35,0,0,1,2.46.3,9,9,0,0,1,2.09.77v2.65h-.14a7.67,7.67,0,0,0-2.11-1.19,6.68,6.68,0,0,0-2.35-.43,3.92,3.92,0,0,0-2.07.51,1.69,1.69,0,0,0-.85,1.56,1.77,1.77,0,0,0,.5,1.37,3.77,3.77,0,0,0,1.61.75c.37.1.78.19,1.23.28s.93.2,1.43.33a4.64,4.64,0,0,1,2.46,1.35,3.84,3.84,0,0,1,.83,2.59,4.44,4.44,0,0,1-.38,1.8,4,4,0,0,1-1.1,1.45,5.64,5.64,0,0,1-1.79,1A8,8,0,0,1,236.17,146.59Z"></path><path class="cls-6" d="M261.09,146.61a11,11,0,0,1-3.81-.63,7.66,7.66,0,0,1-3-1.92,8.7,8.7,0,0,1-1.9-3.23,13.67,13.67,0,0,1-.66-4.43,12.83,12.83,0,0,1,.66-4.26,9.2,9.2,0,0,1,1.91-3.21,8.06,8.06,0,0,1,2.95-2,10.41,10.41,0,0,1,3.84-.69,11.72,11.72,0,0,1,1.9.14,13.3,13.3,0,0,1,3.21.94l1.31.6v3.15h-.22c-.33-.29-.67-.56-1-.82a9.07,9.07,0,0,0-1.47-.84,9.89,9.89,0,0,0-1.82-.66,9.25,9.25,0,0,0-2.22-.26,5.62,5.62,0,0,0-4.58,2.14,8.7,8.7,0,0,0-1.75,5.68,11.81,11.81,0,0,0,.46,3.45,7.17,7.17,0,0,0,1.34,2.51,5.71,5.71,0,0,0,2,1.55,6.62,6.62,0,0,0,2.69.53,14.71,14.71,0,0,0,2.2-.16,7.34,7.34,0,0,0,1.84-.47v-5.08H260.5v-2.29h7.12v8.57l-1.34.56a13.28,13.28,0,0,1-1.56.54,15.86,15.86,0,0,1-1.74.44A10.27,10.27,0,0,1,261.09,146.61Z"></path><path class="cls-6" d="M282.17,146.23h-2.48V144.6a10.94,10.94,0,0,1-2.17,1.52,5.32,5.32,0,0,1-4.11.2,3.78,3.78,0,0,1-1.48-1,4.65,4.65,0,0,1-1-1.72,7.87,7.87,0,0,1-.35-2.54v-9.55h2.48v8.38a17.82,17.82,0,0,0,.08,2,4,4,0,0,0,.39,1.35,2,2,0,0,0,.83.83,3.43,3.43,0,0,0,1.49.26,4.39,4.39,0,0,0,1.94-.51,9,9,0,0,0,1.88-1.27v-11h2.48Z"></path><path class="cls-6" d="M288.46,129h-2.82v-2.57h2.82Zm-.17,17.19h-2.48V131.51h2.48Z"></path><path class="cls-6" d="M303.27,146.23h-2.48v-1.5c-.39.32-.72.59-1,.8a5.86,5.86,0,0,1-1,.58,5.55,5.55,0,0,1-1.1.39,5.62,5.62,0,0,1-1.32.14,5.05,5.05,0,0,1-2.22-.5,4.66,4.66,0,0,1-1.73-1.46,7.27,7.27,0,0,1-1.12-2.41,12.51,12.51,0,0,1-.4-3.29,9.88,9.88,0,0,1,.51-3.35,7.87,7.87,0,0,1,1.38-2.48,5.85,5.85,0,0,1,1.94-1.51,5.54,5.54,0,0,1,2.4-.54,6.9,6.9,0,0,1,1.92.24,8.71,8.71,0,0,1,1.73.76v-6.38h2.48Zm-2.48-3.58v-8.49a7.87,7.87,0,0,0-1.66-.62,6.55,6.55,0,0,0-1.59-.18,3.53,3.53,0,0,0-3,1.44,6.75,6.75,0,0,0-1.08,4.13,7.8,7.8,0,0,0,.83,4,2.87,2.87,0,0,0,2.66,1.38,4.89,4.89,0,0,0,2-.44A7.43,7.43,0,0,0,300.79,142.65Z"></path><path class="cls-6" d="M313.25,146.57a7.33,7.33,0,0,1-5.47-2,7.74,7.74,0,0,1-1.94-5.64,8.34,8.34,0,0,1,1.88-5.72,6.27,6.27,0,0,1,4.93-2.13,7,7,0,0,1,2.43.39,4.88,4.88,0,0,1,1.84,1.24,5.6,5.6,0,0,1,1.22,2.07,9.18,9.18,0,0,1,.42,3v1.35H308.35a5.47,5.47,0,0,0,1.3,3.92,4.67,4.67,0,0,0,3.57,1.36,7.14,7.14,0,0,0,1.6-.18,7.62,7.62,0,0,0,1.42-.48,9,9,0,0,0,1.13-.58,7.15,7.15,0,0,0,.77-.54h.14v2.71l-1.08.42c-.43.17-.82.31-1.16.41s-.92.23-1.31.3A8.73,8.73,0,0,1,313.25,146.57Zm2.9-9.34a7,7,0,0,0-.24-1.73,3.55,3.55,0,0,0-.61-1.23,2.83,2.83,0,0,0-1.11-.84,4.36,4.36,0,0,0-1.68-.29,4.21,4.21,0,0,0-1.68.3,4,4,0,0,0-1.26.86,4.31,4.31,0,0,0-.85,1.29,5.83,5.83,0,0,0-.37,1.64Z"></path><path class="cls-7" d="M400,128.36a4.13,4.13,0,0,1-4.15,4.15c-8.82,0-17.64,0-26.45,0s-17.39,0-26.09,0a4.47,4.47,0,0,1-4.54-3.32,3.29,3.29,0,0,1-.18-1.12V96.46c0-.95,0-.95-1-.95H300.92c-1.24,0-2.48,0-3.72,0-1,0-1.58-.36-1.61-1.66a5.91,5.91,0,0,1,1.34-4,6.35,6.35,0,0,1,3.35-2c2.13-.57,4.25-1.12,6.37-1.72,2.59-.74,5.22-1.33,7.83-2,2-.52,4-1.08,6-1.62,2.35-.63,4.7-1.28,7.05-1.9,1.92-.52,3.86-1,5.77-1.52,1.7-.49,3.41-1.05,5.12-1.43a37.42,37.42,0,0,1,5.53-1c2.55-.18,5.1-.31,7.66-.31,13,0,26.06,0,39.09,0,1.76,0,7.75.13,9.54.19m-3.47,3.29c-1.77-.18-6-.32-7.75-.33H349.23c-1.89,0-3.75.17-5.63.33a38.19,38.19,0,0,0-5.54,1.2c-2.39.58-4.76,1.22-7.14,1.85-2.11.55-4.21,1.11-6.32,1.68-2.28.61-4.56,1.24-6.84,1.86l-7.19,1.9c-2.29.61-4.59,1.17-6.87,1.81a16.92,16.92,0,0,0-3.92,1.26c-.3.17-.58.4-.48.8s.48.23.73.23H338.9a2.07,2.07,0,0,0,.71-.07,1.71,1.71,0,0,1,2.18,1.27,6.61,6.61,0,0,1,0,1.18q0,12.75,0,25.5c0,2.39,0,4.78,0,7.16,0,1.79.6,1.82,1.73,1.81q12.93,0,25.86,0h26.38c.37,0,.85,0,.87-.42s.22-1,.22-1.56q0-16.18,0-32.37"></path></g></g></svg> 