<?xml version="1.0" encoding="UTF-8"?> <svg xmlns="http://www.w3.org/2000/svg" viewBox="0 0 746 391.54"><title>Asset 1-4</title><g id="Layer_2" data-name="Layer 2"><g id="Layer_1-2" data-name="Layer 1"><path d="M32.93,275.55a27,27,0,0,1,19.24,7.85l.35.35,4.14-3.58-.41-.4a32.73,32.73,0,0,0-23.32-9.6c-9.66,0-17.89,3.15-23.79,9.12S-.1,293.87,0,303.28c.09,16.12,10.3,32.38,32.93,32.38a33.18,33.18,0,0,0,23.32-9.6l.39-.39-4-3.79-.36.36a27.75,27.75,0,0,1-19.34,7.86c-18.55,0-27-13.57-27.19-27,0-8,2.64-15.19,7.56-20.14S24.9,275.55,32.93,275.55Z"></path><path d="M103.87,270.89,75.13,334.94h6.39l6.84-15.48h36.93l6.92,15.48h6.39l-28.74-64.05Zm-13.16,43,16.11-36.49,16.11,36.49Z"></path><path d="M207.48,305.07a19.41,19.41,0,0,0,5.35-14c-.09-9.7-6.77-20.14-21.23-20.14H163.35v64.05h5.92V311.09H185.7l21.77,23.85h7.84L193.06,310.8C199,310.57,204,308.6,207.48,305.07Zm-38.21-28.62H191.6a14.84,14.84,0,0,1,10.84,4.13,14.53,14.53,0,0,1,4,10.36c-.1,9.35-5.57,14.5-15.4,14.5H169.27Z"></path><path d="M267.83,270.89H239.67v64.05h5.92V313.16h22.24c14.46,0,21.05-11,21.05-21.13S282.29,270.89,267.83,270.89Zm0,36.8H245.59V276.45h22.24c10.44,0,15.2,8.09,15.2,15.62a16.38,16.38,0,0,1-3.8,10.76A14.57,14.57,0,0,1,267.83,307.69Z"></path><polygon points="322.37 305.42 359.26 305.42 359.26 299.95 322.37 299.95 322.37 276.54 361.06 276.54 361.06 270.89 316.54 270.89 316.54 334.94 362.14 334.94 362.14 329.2 322.37 329.2 322.37 305.42"></polygon><polygon points="436.23 322.03 394.63 270.89 391.78 270.89 391.78 334.94 397.7 334.94 397.7 283.88 439.39 334.94 442.06 334.94 442.06 270.89 436.23 270.89 436.23 322.03"></polygon><polygon points="468.19 276.36 490.96 276.36 490.96 334.94 496.88 334.94 496.88 276.36 519.65 276.36 519.65 270.98 468.19 270.98 468.19 276.36"></polygon><polygon points="551.6 305.42 588.5 305.42 588.5 299.95 551.6 299.95 551.6 276.54 590.3 276.54 590.3 270.89 545.77 270.89 545.77 334.94 591.38 334.94 591.38 329.2 551.6 329.2 551.6 305.42"></polygon><path d="M663.25,305.07a19.43,19.43,0,0,0,5.35-14c-.09-9.7-6.77-20.14-21.23-20.14H619.12v64.05H625V311.09h16.43l21.77,23.85h7.84L648.83,310.8C654.78,310.57,659.75,308.6,663.25,305.07ZM625,276.45h22.33a14.8,14.8,0,0,1,10.83,4.13,14.49,14.49,0,0,1,4,10.36c-.1,9.35-5.57,14.5-15.4,14.5H625Z"></path><path d="M721.51,299.29l-.69-.14C709.45,297,702,295.1,702,287.8c0-11.91,16.65-12.25,18.54-12.25,7.06.09,14.2,1.15,18.64,8.3l.27.44,4.89-2.89-.31-.47c-6.09-9.08-13.79-10.94-23.48-10.94-8.46,0-16,2.56-20.24,6.86A14.92,14.92,0,0,0,696.07,288c0,12.08,12.07,14.44,23.74,16.72,10,1.91,20.35,3.89,20.27,13,0,11.54-13.66,12.79-19.54,12.79-7.65,0-17.34-3.82-21-11.14l-.24-.47L694,321.49l.24.47c5.2,10.3,17,14,26.3,14,6,0,25.35-1.31,25.46-18.17C746,304,733.55,301.6,721.51,299.29Z"></path><path d="M170.3,373.31c-.05,9.29-6,18.23-17.82,18.23s-17.82-9-17.82-18.33S140.57,355,152.48,355,170.35,363.77,170.3,373.31Zm-33-.05c0,8,5.1,15.75,15.14,15.75s15.2-7.77,15.2-15.75c0-8.17-5.05-15.7-15.2-15.7S137.29,364.93,137.34,373.26Z"></path><path d="M215,390.93l-3.89-8.68H190l-3.83,8.68h-2.93l15.85-35.33h3l15.85,35.33ZM210,379.72l-9.49-21.5L191,379.72Z"></path><path d="M256.81,390.93h-3.43l-18.63-17.41v17.36H232V355.6h2.72v16.1l17.16-16.1h3.29v.25l-17.77,16.66,19.38,18.22Z"></path><path d="M297.19,372.41h20.34V375H297.19v16h-2.73V355.6h23.78v2.72H297.19Z"></path><path d="M337.06,355.6v32.76H357v2.57H334.34V355.6Z"></path><path d="M405.26,373.31c-.06,9.29-6,18.23-17.82,18.23s-17.82-9-17.82-18.33S375.52,355,387.44,355,405.31,363.77,405.26,373.31Zm-33-.05c0,8,5.1,15.75,15.15,15.75s15.19-7.77,15.19-15.75c0-8.17-5.05-15.7-15.19-15.7S372.24,364.93,372.29,373.26Z"></path><path d="M455.93,373.31c-.05,9.29-6,18.23-17.82,18.23s-17.82-9-17.82-18.33S426.2,355,438.11,355,456,363.77,455.93,373.31Zm-33-.05c0,8,5.1,15.75,15.14,15.75s15.2-7.77,15.2-15.75c0-8.17-5.05-15.7-15.2-15.7S422.92,364.93,423,373.26Z"></path><path d="M500.7,390.93h-3.59L484.9,377.55h-9.64v13.38h-2.73V355.6h15.55c7.67,0,11.56,5.5,11.61,11,.05,5.76-3.74,10.8-11.46,10.8ZM475.26,375h12.52c6.15,0,8.88-3.48,8.93-8.43.05-4.14-2.78-8.43-8.63-8.43H475.26Z"></path><path d="M515.38,390.93V355.6h2.68v35.33Z"></path><path d="M537.14,355.6l23.77,29.22V355.6h2.68v35.33h-1.06L538.7,361.75v29.18H536V355.6Z"></path><path d="M609.37,362.11A16.43,16.43,0,0,0,598,357.56c-10.35,0-15.65,7.58-15.6,15.75,0,8.33,5.3,15.5,15.6,15.5a15.91,15.91,0,0,0,10.75-4.09v-9.89H596.45v-2.37h14.89v13.22A18.25,18.25,0,0,1,598,391.39c-12,0-18.22-8.38-18.22-18,0-11.05,7.47-18.27,18.22-18.27a18.4,18.4,0,0,1,12.92,5.3Z"></path><polygon points="441.66 106.92 376.37 41.63 308.87 109.13 297.56 97.81 376.37 19 452.97 95.61 441.66 106.92"></polygon><polygon points="308.95 134.77 376.18 202 443.68 134.5 454.99 145.81 376.18 224.63 297.63 146.08 308.95 134.77"></polygon><path d="M458.4,149.22l-82,82-85.31-85.32,17.81-17.81,67.5,67.5,73.75-73.75L431.5,103.26,425.28,97l0,0L378,144.29l-25.76-25.75L399.5,71.26h0L393.25,65,376.37,48.13l-67.5,67.5L291.06,97.81,376.37,12.5l79.85,79.85,6.25-6.25L376.37,0,278.56,97.81l24.06,24.07-24.06,24.06,97.81,97.82,88.28-88.29Zm-82-88.59L387,71.26l-47.28,47.28.53.54h0l36.64,36.63h0l1.08,1.08,47.28-47.28,12.37,12.37-61.25,61.25-61.25-61.25Z"></path></g></g></svg> 